<svg width="99" height="88" viewBox="0 0 99 88" fill="none" xmlns="http://www.w3.org/2000/svg">
<g id="Icon / blogs">
<mask id="mask0_231_1576" style="mask-type:alpha" maskUnits="userSpaceOnUse" x="0" y="0" width="100" height="100">
<rect id="Bounding box" width="100" height="100" fill="#D9D9D9"/>
</mask>
<g mask="url(#mask0_231_1576)">
<path id="blogs" d="M33.6321 88C29.8397 88 26.5663 85.4432 25.6681 81.7766L19.0415 54.5838H17.1254C7.68448 54.5838 0 46.9531 0 37.5784C0 28.2036 7.68448 20.573 17.1254 20.573H23.5923C51.2365 20.573 65.1484 10.8414 69.8589 6.65946C69.8589 6.65946 69.8988 6.61982 69.9187 6.61982V6.3027C69.9187 2.83423 72.773 0 76.2659 0H82.2937C85.7867 0 88.6409 2.83423 88.6409 6.3027V28.2829H90.4173C95.1478 28.2829 99 32.1081 99 36.8054V38.3315C99 43.0288 95.1478 46.854 90.4173 46.854H88.6409V66.2577C88.6409 69.7261 85.7867 72.5604 82.2937 72.5604H76.2659C73.3917 72.5604 70.8369 70.5784 70.1183 67.8432C66.8849 65.3261 58.0827 59.4595 43.3125 56.3279C42.1349 56.4072 40.7177 57.2396 39.6399 58.5874C38.3625 60.1928 37.7837 62.2342 38.1429 63.7604L41.576 77.9315C42.1748 80.3694 41.6159 82.9063 40.0391 84.8685C38.4823 86.8306 36.127 87.9604 33.6121 87.9604L33.6321 88ZM31.2768 80.4288C31.5363 81.5189 32.5143 82.2721 33.6321 82.2721C34.3706 82.2721 35.0692 81.9351 35.5282 81.3604C35.9873 80.7856 36.147 80.0324 35.9873 79.2991L32.5542 65.1279C31.7758 61.8973 32.7538 58.0324 35.129 55.0595C35.129 55.0595 35.149 55.0396 35.169 55.0198C31.8357 54.6234 28.4026 54.4054 24.9496 54.3658L31.2968 80.4288H31.2768ZM76.2659 5.72793C75.9466 5.72793 75.6871 5.98558 75.6871 6.3027V66.2775C75.6871 66.5946 75.9466 66.8522 76.2659 66.8522H82.2937C82.6131 66.8522 82.8726 66.5946 82.8726 66.2775V6.3027C82.8726 5.98558 82.6131 5.72793 82.2937 5.72793H76.2659ZM43.8115 50.6198C43.9313 50.6198 44.051 50.6595 44.1508 50.6793C56.6655 53.2955 65.3879 57.8937 69.8988 60.7279V13.8937C63.2323 18.5712 49.3802 25.7063 26.4665 26.2613V48.6577C32.3746 48.8162 38.2028 49.4703 43.7915 50.6198H43.8115ZM17.1254 26.3009C10.8581 26.3009 5.76835 31.355 5.76835 37.5784C5.76835 43.8018 10.8581 48.8559 17.1254 48.8559H20.7181V26.3009H17.1254ZM90.3974 41.1261C91.9542 41.1261 93.2117 39.8775 93.2117 38.3315V36.8054C93.2117 35.2595 91.9542 34.0108 90.3974 34.0108H88.621V41.1459H90.3974V41.1261Z" fill="url(#paint0_linear_2301_3748)"/>
</g>
</g>
<defs>
<linearGradient id="paint0_linear_2301_3748" x1="0" y1="44" x2="98.98" y2="44" gradientUnits="userSpaceOnUse">
<stop stop-color="#FFCE00"/>
<stop offset="1" stop-color="#6715E8"/>
</linearGradient>
</defs>
</svg>

