<svg width="100" height="100" viewBox="0 0 100 100" fill="none" xmlns="http://www.w3.org/2000/svg">
<g id="Icon / check_circle">
<mask id="mask0_231_1580" style="mask-type:alpha" maskUnits="userSpaceOnUse" x="0" y="0" width="100" height="100">
<rect id="Bounding box" width="100" height="100" fill="#D9D9D9"/>
</mask>
<g mask="url(#mask0_231_1580)">
<path id="check_circle" d="M44.0868 58.9424L34.4072 49.2629C33.8303 48.686 33.1052 48.3908 32.2318 48.3775C31.3584 48.3641 30.6199 48.6592 30.0163 49.2629C29.4127 49.8665 29.1108 50.5983 29.1108 51.4583C29.1108 52.3183 29.4127 53.0501 30.0163 53.6537L41.4505 65.088C42.2037 65.8412 43.0825 66.2178 44.0868 66.2178C45.091 66.2178 45.9697 65.8412 46.7229 65.088L69.904 41.907C70.4809 41.3301 70.7761 40.605 70.7894 39.7316C70.8028 38.8582 70.5077 38.1196 69.904 37.516C69.3004 36.9124 68.5686 36.6106 67.7086 36.6106C66.8486 36.6106 66.1168 36.9124 65.5131 37.516L44.0868 58.9424ZM50.0072 89.5832C44.5325 89.5832 39.3865 88.5443 34.5693 86.4666C29.752 84.3888 25.5616 81.569 21.9982 78.0072C18.4348 74.4453 15.6137 70.2568 13.535 65.4417C11.4563 60.6266 10.417 55.4817 10.417 50.007C10.417 44.5322 11.4559 39.3863 13.5337 34.5691C15.6114 29.7518 18.4312 25.5614 21.993 21.998C25.5549 18.4345 29.7434 15.6135 34.5586 13.5348C39.3736 11.4561 44.5185 10.4168 49.9932 10.4168C55.468 10.4168 60.6139 11.4557 65.4312 13.5334C70.2485 15.6112 74.4388 18.431 78.0022 21.9928C81.5657 25.5547 84.3868 29.7432 86.4654 34.5583C88.5441 39.3734 89.5835 44.5183 89.5835 49.993C89.5835 55.4677 88.5446 60.6137 86.4668 65.4309C84.389 70.2482 81.5692 74.4386 78.0074 78.002C74.4455 81.5654 70.257 84.3865 65.4419 86.4652C60.6268 88.5439 55.4819 89.5832 50.0072 89.5832ZM50.0002 83.3333C59.3058 83.3333 67.1877 80.1042 73.6461 73.6458C80.1044 67.1875 83.3336 59.3056 83.3336 50C83.3336 40.6944 80.1044 32.8125 73.6461 26.3542C67.1877 19.8958 59.3058 16.6667 50.0002 16.6667C40.6947 16.6667 32.8127 19.8958 26.3544 26.3542C19.8961 32.8125 16.6669 40.6944 16.6669 50C16.6669 59.3056 19.8961 67.1875 26.3544 73.6458C32.8127 80.1042 40.6947 83.3333 50.0002 83.3333Z" fill="url(#paint0_linear_231_1580)"/>
</g>
</g>
<defs>
<linearGradient id="paint0_linear_231_1580" x1="10.1697" y1="9.66148" x2="98.7963" y2="29.2106" gradientUnits="userSpaceOnUse">
<stop stop-color="#FFCE00"/>
<stop offset="1" stop-color="#6715E8"/>
</linearGradient>
</defs>
</svg>
