

<svg width="77" height="92" viewBox="0 0 77 92" fill="none" xmlns="http://www.w3.org/2000/svg">
<g id="Icon / cloud_ai">
<mask id="mask0_231_1576" style="mask-type:alpha" maskUnits="userSpaceOnUse" x="0" y="0" width="100" height="100">
<rect id="Bounding box" width="100" height="100" fill="#D9D9D9"/>
</mask>
<g mask="url(#mask0_231_1576)">
<path id="cloud_ai" d="M68.1625 52.1403C66.5365 52.1403 65.075 52.798 64.0154 53.8758L57.7308 51.5739V45.6547H66.4452C71.9442 45.6547 76.4385 41.1787 76.4385 35.6614C76.4385 31.4047 73.7711 27.7326 69.9163 26.3258C70.099 25.1566 70.2086 23.9691 70.2086 22.8181C70.2086 10.2306 59.9779 -0.00012207 47.3904 -0.00012207C39.6808 -0.00012207 32.501 3.92776 28.299 10.3403C27.8058 10.3037 27.3308 10.2672 26.8558 10.2672C17.8673 10.2672 10.4317 17.0085 9.31731 25.6864C4.12885 26.0335 0 30.3633 0 35.6432C0 40.923 4.47596 45.6364 9.99327 45.6364H20.7538V51.5557L14.4692 53.8576C13.4096 52.7797 11.9481 52.122 10.3221 52.122C7.08846 52.122 4.47596 54.7345 4.47596 57.9681C4.47596 61.2018 7.08846 63.8143 10.3221 63.8143C13.5558 63.8143 16.0769 61.2749 16.15 58.1143L23.8231 55.3008C24.7183 54.972 25.3212 54.1133 25.3212 53.1633V45.6547H28.5548V63.2662L14.049 70.5374C13.2817 70.921 12.7885 71.7066 12.7885 72.5835V80.1105C10.6144 80.9691 9.07981 83.0701 9.07981 85.5364C9.07981 88.7701 11.6923 91.3826 14.926 91.3826C18.1596 91.3826 20.7721 88.7701 20.7721 85.5364C20.7721 83.1797 19.3654 81.1518 17.3558 80.2383V73.9903L31.8615 66.7191C32.6288 66.3355 33.1221 65.5499 33.1221 64.673V45.6547H37.0317V80.1653C34.9308 81.0605 33.4692 83.1249 33.4692 85.5547C33.4692 88.7883 36.0817 91.4008 39.3154 91.4008C42.549 91.4008 45.1615 88.7883 45.1615 85.5547C45.1615 83.1432 43.7 81.0605 41.599 80.1653V45.6547H45.399V64.673C45.399 65.5316 45.8923 66.3355 46.6596 66.7191L61.1654 73.9903V80.2383C59.1558 81.1701 57.749 83.1797 57.749 85.5364C57.749 88.7701 60.3615 91.3826 63.5952 91.3826C66.8288 91.3826 69.4413 88.7701 69.4413 85.5364C69.4413 83.0701 67.9067 80.9508 65.7327 80.1105V72.5835C65.7327 71.7249 65.2394 70.921 64.4721 70.5374L49.9663 63.2662V45.6547H53.2V53.1633C53.2 54.1133 53.8029 54.972 54.6981 55.3008L62.3712 58.1143C62.4442 61.2749 65.0202 63.8143 68.199 63.8143C71.3779 63.8143 74.0452 61.2018 74.0452 57.9681C74.0452 54.7345 71.4327 52.122 68.199 52.122L68.1625 52.1403ZM4.54904 35.6797C4.54904 32.6835 6.97885 30.2537 9.975 30.2537H11.4365C12.6971 30.2537 13.7202 29.2306 13.7202 27.9701C13.7202 20.7355 19.6029 14.8528 26.8375 14.8528C27.5317 14.8528 28.2625 14.9258 29.0663 15.0537C30.0163 15.2181 30.9663 14.7614 31.4413 13.921C34.675 8.16622 40.7769 4.58545 47.3721 4.58545C57.4385 4.58545 65.6231 12.7701 65.6231 22.8364C65.6231 24.3528 65.4221 25.9056 65.0019 27.4768C64.8375 28.1162 64.9471 28.8105 65.3308 29.3585C65.7144 29.9066 66.3173 30.2537 66.975 30.3268C69.7519 30.6008 71.8529 32.9028 71.8529 35.6797C71.8529 38.6758 69.4231 41.1056 66.4269 41.1056H9.95673C6.96058 41.1056 4.53077 38.6758 4.53077 35.6797H4.54904Z" fill="url(#paint0_linear_2267_3529)"/>
</g>
</g>
<defs>
<linearGradient id="paint0_linear_2267_3529" x1="-0.238813" y1="-0.872124" x2="86.5442" y2="15.1366" gradientUnits="userSpaceOnUse">
<stop stop-color="#FFCE00"/>
<stop offset="1" stop-color="#6715E8"/>
</linearGradient>
</defs>
</svg>

