<svg xmlns="http://www.w3.org/2000/svg" width="46.68" height="42.92" viewBox="0 0 46.68 42.92">
<g id="Icon / codelinaro">
<mask id="mask0_231_1568" style="mask-type:alpha" maskUnits="userSpaceOnUse" x="0" y="0" width="100" height="100">
<rect id="Bounding box" width="100" height="100" fill="#D9D9D9"/>
</mask>
<g mask="url(#mask0_231_1568)">
<path id="codelinaro" d="M42.86,19.88c-1.2-1.2-2.47-1.81-3.78-1.81-1.09,0-2.2.42-3.3,1.25-1.85,1.39-4.38,3.3-5.33,4.02-.7-.71-1.65-1.1-2.67-1.1h-4.04c-2.14-1.38-3.62-1.63-5.91-1.63-2.8,0-5.12,1.25-7.71,4.17l-.97-.97c-.18-.18-.41-.28-.66-.28s-.49.1-.66.28l-3.41,3.41c-.18.18-.28.41-.28.66s.1.49.27.66c.18.18.41.27.66.27s.49-.1.66-.27l2.75-2.75.49.49c-.08.34.04.71.32.94.16.13.36.2.57.2.08,0,.15,0,.22-.03l6.75,6.74-2.75,2.74c-.18.18-.28.41-.28.66s.1.49.27.66c.18.18.41.27.66.27s.48-.1.66-.27l3.41-3.41c.18-.18.27-.41.27-.66s-.1-.48-.27-.66l-1.06-1.06h12.8c.24,0,.47-.09.64-.25l11.62-10.94c.18-.17.29-.42.29-.67,0-.25-.1-.5-.27-.67ZM30.21,30.55h-14.12c-.06,0-.11,0-.17.02l-4.47-4.47c2.24-2.57,4.11-3.62,6.38-3.62s3.23.21,5.1,1.47c.16.1.34.16.52.16h4.32c.51,0,1.65.19,1.97,1.81h-8.07c-.52,0-.94.42-.94.94s.42.94.94.94h9.09c.52,0,.94-.42.94-.94,0-.69-.09-1.33-.28-1.9.81-.61,3.53-2.67,5.49-4.13.79-.59,1.5-.88,2.18-.88.57,0,1.14.21,1.72.63l-10.6,9.98ZM8.97,28.3c-.34,0-.67.13-.91.38-.5.5-.5,1.32,0,1.82.24.24.57.38.91.38s.67-.13.91-.38c.5-.5.5-1.32,0-1.82-.24-.24-.57-.38-.91-.38ZM26.87,19.92c4.28,0,7.76-3.48,7.76-7.76s-3.48-7.76-7.76-7.76-7.76,3.48-7.76,7.76,3.48,7.76,7.76,7.76ZM26.87,6.27c3.25,0,5.89,2.64,5.89,5.89s-2.64,5.89-5.89,5.89-5.89-2.64-5.89-5.89,2.64-5.89,5.89-5.89ZM26.07,15.9v.68c0,.52.42.94.94.94s.94-.42.94-.94v-.66c1.01-.3,1.75-1.12,1.85-2.1.12-1.13-.67-2.42-2.67-2.74-.61-.1-.93-.3-.96-.38,0-.38.37-.5.58-.54.07-.01.15-.02.23-.02.38,0,.85.16,1.01.6.14.36.49.61.88.61.11,0,.22-.02.33-.06.48-.18.73-.72.55-1.21-.3-.8-.95-1.39-1.8-1.66v-.69c0-.52-.42-.94-.94-.94s-.94.42-.94.94v.67c-1.08.32-1.77,1.19-1.78,2.28-.02,1.16.93,2,2.54,2.25.69.11,1.14.39,1.1.7-.02.23-.33.54-.91.54h0c-1.03-.05-1.24-.66-1.24-.66-.08-.44-.47-.76-.92-.76-.06,0-.12,0-.17.02-.25.05-.46.19-.6.39-.14.21-.19.46-.15.7.12.65.78,1.67,2.13,2.04Z" fill="url(#paint0_linear_231_1568)"/>
</g>
</g>
<defs>
<linearGradient id="paint0_linear_231_1568" x1="8.28742" y1="9.82364" x2="99.5067" y2="29.9446" gradientUnits="userSpaceOnUse">
<stop stop-color="#FFCE00"/>
<stop offset="1" stop-color="#6715E8"/>
</linearGradient>
</defs>
</svg>