<svg width="127" height="129" viewBox="0 0 127 129" fill="none" xmlns="http://www.w3.org/2000/svg">
<path d="M90.6466 63.5645C92.0436 63.9837 91.3451 67.9505 91.4721 69.2405C96.9649 67.8537 102.934 68.4987 103.728 75.239C104.902 85.301 93.4089 89.9127 85.1539 89.2032L80.2961 94.202H102.934C105.029 94.202 102.839 98.588 102.077 99.5877C98.8381 104.006 91.3134 105.264 86.1699 105.586C73.5016 106.392 51.0544 106.812 38.7036 105.489C34.5126 105.038 29.0199 102.813 25.9401 99.878C25.0511 99.0395 21.4316 94.202 24.0986 94.202H46.7364C40.5451 88.1067 36.6399 79.496 36.1001 70.6595C35.9731 68.5632 35.6556 65.048 36.9574 63.5322H90.6149L90.6466 63.5645ZM39.7831 66.4025C38.4814 66.4025 39.4974 72.143 39.6561 73.3362C40.4181 78.4962 42.4501 84.14 45.6569 88.2357C46.6411 89.4935 50.5464 93.4602 51.8164 93.9117C53.7214 94.5567 71.8189 94.6212 74.3906 94.202C77.5974 93.686 82.2646 87.881 83.8839 85.1075C86.3921 80.786 88.6781 73.4007 88.7099 68.3697C88.7099 67.7247 88.4241 66.4025 87.8526 66.4025H39.7831ZM98.5524 82.1082C101.283 79.109 101.632 71.885 96.7744 71.5302C96.1076 71.498 92.3929 72.401 91.8531 72.7235C90.7101 73.433 90.4244 77.432 89.8211 79.1735C88.9956 81.6245 87.8209 83.8175 87.0271 86.2685C90.6466 85.9137 96.0124 84.8817 98.5524 82.1082ZM99.3144 97.6205H28.3531L32.8299 100.749L38.1321 102.168C54.5469 101.297 72.1681 103.361 88.4559 102.168C92.2341 101.91 97.1871 101.071 99.3144 97.5882V97.6205Z" fill="#FFCD00"/>
<path d="M59.3729 22.7044C61.4367 22.0917 65.8817 28.7997 66.6119 30.6379C70.8664 41.2159 62.5797 44.0862 65.2467 53.6C65.9134 55.9865 68.7074 58.2762 66.5802 60.1467C63.2782 61.1142 61.2462 50.8264 61.3414 48.6012C61.5954 41.5062 68.4852 38.2489 62.3257 29.3157C61.6907 28.4127 56.1027 23.6397 59.3729 22.7044Z" fill="#FFCD00"/>
<path d="M77.4707 31.25C79.0899 35.1523 79.7884 37.4743 77.7564 41.4088C75.3752 46.0205 70.9937 45.3755 72.0732 52.3738C72.4542 54.9215 74.5814 56.9532 74.1687 59.5977C70.1999 60.4362 68.5489 52.8253 68.7077 49.8583C69.0887 42.8278 76.3594 42.215 75.8832 36.0553C75.7244 33.8623 73.0257 31.5403 77.5024 31.25H77.4707Z" fill="#FFCD00"/>
<path d="M52.9276 31.7666C55.1501 32.5084 57.3726 35.6366 57.8171 37.8618C59.2776 45.0858 51.7529 47.7626 57.7219 54.9866C58.4839 55.9218 63.5321 59.1146 60.4206 60.0821C57.7854 60.9206 53.1816 54.6641 52.6101 52.2131C50.8956 44.8279 58.9601 40.3451 51.9434 34.3144L52.9276 31.7666Z" fill="#FFCD00"/>
<path d="M58.6742 74.627V77.0135L51.7527 80.5932L58.6742 84.2375V86.5595L49.5938 81.6897V79.529L58.6742 74.627Z" fill="#FFCD00"/>
<path d="M60.3574 87.3652L66.4534 69.918H68.0092L61.9132 87.3652H60.3574Z" fill="#FFCD00"/>
<path d="M69.6914 74.627L78.7402 79.529V81.6897L69.6914 86.5917V84.2375L76.5812 80.5932L69.6914 77.0135V74.627Z" fill="#FFCD00"/>
</svg>
