<svg width="112" height="100" viewBox="0 0 112 100" fill="none" xmlns="http://www.w3.org/2000/svg">
<g id="Icon / conference-t-shirt-1">
<path d="M46.7108 18.3668C48.4446 18.7801 48.113 20.1268 48.4871 21.4401C50.6174 28.8912 61.3806 28.8912 63.5108 21.4401C63.8871 20.1268 63.5556 18.7801 65.2871 18.3668H77.363C77.5466 18.5645 77.8446 18.5156 78.0663 18.669C78.8794 19.2356 80.6199 21.0823 81.4711 21.8934C86.2446 26.4445 90.8881 31.2334 95.4622 35.9579C95.8564 36.6134 95.5114 37.1756 95.0948 37.7112L82.0849 50.6023C80.7431 51.7445 79.753 50.3468 78.7562 49.529V80.6156C78.7562 81.0912 77.3025 81.7267 76.8254 81.6179H35.4772C35.0135 81.5934 34.3505 81.5223 33.954 81.2868C33.7524 81.1668 33.2394 80.449 33.2394 80.3068V49.5267C32.2807 50.2979 31.3153 51.6979 29.9982 50.6667C26.0625 46.2312 20.6663 42.1934 16.9009 37.7112C16.6858 37.4556 16.6007 37.1579 16.3633 36.9379V36.1712C16.6007 35.9512 16.6858 35.6556 16.9009 35.3979C20.8276 30.7223 26.45 26.5423 30.5246 21.889C32.0903 20.8845 33.0177 18.9823 34.785 18.3623H46.7063L46.7108 18.3668ZM75.6606 78.5445V45.309C75.6606 45.1556 76.2609 44.509 76.4468 44.4023C78.2142 43.3823 79.6276 46.6334 80.7722 47.1556C80.9425 47.2334 81.0634 47.2756 81.2315 47.1556L91.7595 36.5579L76.6753 21.5823L76.057 21.4267L66.6714 21.5045C63.9745 32.8534 48.1802 32.8401 45.2951 21.6112L35.2554 21.6712L20.2474 36.6912L30.8628 47.2179C32.2762 46.4712 33.6382 43.5156 35.5242 44.2756C35.8199 44.3956 36.3374 45.0268 36.3374 45.309V78.5445H75.6606Z" fill="#FFCE00"/>
<path d="M68.2006 39.3241C68.2655 34.9596 63.6399 31.8574 59.6684 33.8485C58.4902 34.3863 57.3366 35.4508 56.0105 35.4552C55.0562 35.4641 54.1558 34.8552 53.3314 34.3596C52.525 33.8641 51.6582 33.4574 50.7151 33.3152C47.0706 32.6952 43.7442 35.7174 43.7935 39.3463C43.7442 42.9863 47.0841 46.0108 50.7375 45.3752C51.6806 45.2285 52.5429 44.8196 53.3516 44.3219C54.1737 43.8263 55.0742 43.2219 56.0284 43.2396C57.3478 43.2552 58.4901 44.3108 59.6661 44.8463C63.6533 46.8463 68.2812 43.7174 68.1983 39.3463V39.3219L68.2006 39.3241ZM65.1676 39.6841C65.0623 41.0108 64.0902 42.3174 62.7014 42.433C60.3919 42.5752 58.8732 40.1552 56.6444 39.8619C54.2767 39.4174 52.6079 41.5063 50.6412 42.2508C49.1762 42.8219 47.6284 42.073 47.0818 40.6196C46.4636 39.1307 47.0482 37.113 48.5983 36.4596C52.0143 35.193 53.7906 40.7241 58.2796 38.2485C59.6281 37.5263 60.7951 36.3463 62.3362 36.2619C64.1394 36.1552 65.3625 37.9908 65.1698 39.6574V39.6819L65.1676 39.6841Z" fill="#FFCE00"/>
</svg>
