<svg width="77" height="70" viewBox="0 0 77 70" fill="none" xmlns="http://www.w3.org/2000/svg">
<g id="Icon / custom_ai">
<mask id="mask0_231_1576" style="mask-type:alpha" maskUnits="userSpaceOnUse" x="0" y="0" width="100" height="100">
<rect id="Bounding box" width="100" height="100" fill="#D9D9D9"/>
</mask>
<g mask="url(#mask0_231_1576)">
<path id="custom_ai" d="M11.2538 38.2008C11.4 38.2374 11.5279 38.2922 11.6923 38.2922H37.5067C38.7673 38.2922 39.7904 37.2691 39.7904 36.0085C39.7904 34.748 38.7673 33.7249 37.5067 33.7249H11.6923C11.5462 33.7249 11.4 33.7797 11.2538 33.8162C10.3769 31.6787 8.29423 30.1624 5.84615 30.1624C2.6125 30.1624 0 32.7749 0 36.0085C0 39.2422 2.6125 41.8547 5.84615 41.8547C8.29423 41.8547 10.3952 40.3383 11.2538 38.2008ZM57.676 45.4903C57.676 44.2297 56.6529 43.2066 55.3923 43.2066H32.1904C31.6788 43.2066 31.2038 43.371 30.8019 43.6816L22.8548 49.7835H18.6712C17.7212 47.8287 15.7481 46.4768 13.4279 46.4768C10.1942 46.4768 7.58173 49.0893 7.58173 52.323C7.58173 55.5566 10.1942 58.1691 13.4279 58.1691C15.949 58.1691 18.0683 56.5797 18.8904 54.3508H23.6404C24.1519 54.3508 24.6269 54.1864 25.0288 53.8758L32.976 47.7739H55.3923C56.6529 47.7739 57.676 46.7508 57.676 45.4903ZM75.9635 37.1412L57.2192 12.1306C56.6346 11.3451 55.5933 11.0162 54.6615 11.3268C53.7298 11.6374 53.1087 12.5143 53.1087 13.5008V14.7249H45.0885L42.8779 10.4681C44.2663 9.40853 45.1798 7.72776 45.1798 5.84603C45.1798 2.61238 42.5673 -0.00012207 39.3337 -0.00012207C36.1 -0.00012207 33.4875 2.61238 33.4875 5.84603C33.4875 8.80565 35.6981 11.2355 38.5481 11.6191C38.5481 11.9297 38.6394 12.2403 38.7856 12.5508L41.6356 18.0864C42.0192 18.8537 42.8048 19.3287 43.6635 19.3287H53.0721V24.2614H34.4375V17.2643C34.4375 16.0037 33.3962 14.9806 32.1356 14.9806H23.3846C23.275 14.9806 23.1837 15.0172 23.0923 15.0355C22.2519 12.8431 20.1327 11.272 17.6481 11.272C14.4144 11.272 11.8019 13.8845 11.8019 17.1181C11.8019 20.3518 14.4144 22.9643 17.6481 22.9643C20.0413 22.9643 22.0875 21.521 23.001 19.4749C23.1288 19.4931 23.2567 19.548 23.4029 19.548H29.8702V26.5451C29.8702 27.8056 30.9115 28.8287 32.1721 28.8287H55.374C56.6346 28.8287 57.6577 27.8056 57.6577 26.5451V20.4066L71.2317 38.5114L57.6394 55.4105V55.1912C57.6942 54.5518 57.475 53.9306 57.0548 53.4739C56.6164 53.0172 56.0135 52.7431 55.3923 52.7431H43.7C42.8962 52.7431 42.1654 53.1633 41.7452 53.8393L39.3154 57.8585C36.1 57.8585 33.5058 60.4893 33.5058 63.7047C33.5058 66.9201 36.1183 69.5508 39.3519 69.5508C42.5856 69.5508 45.1981 66.9383 45.1981 63.7047C45.1981 62.1335 44.5769 60.7085 43.5721 59.6672L44.9971 57.2922H52.9442L52.5971 62.3345C52.524 63.321 53.1087 64.2528 54.0404 64.6182C54.3144 64.7278 54.5885 64.7826 54.8808 64.7826C55.5567 64.7826 56.2144 64.472 56.6529 63.9239L75.9269 39.9547C76.5846 39.1326 76.6029 37.9816 75.9817 37.1595L75.9635 37.1412ZM55.3923 38.2739C56.6529 38.2739 57.676 37.2508 57.676 35.9903C57.676 34.7297 56.6529 33.7066 55.3923 33.7066H46.3308C45.0702 33.7066 44.0471 34.7297 44.0471 35.9903C44.0471 37.2508 45.0702 38.2739 46.3308 38.2739H55.3923Z" fill="url(#paint0_linear_2267_3531)"/>
</g>
</g>
<defs>
<linearGradient id="paint0_linear_2267_3531" x1="-0.2388" y1="-0.663666" x2="84.5123" y2="19.8807" gradientUnits="userSpaceOnUse">
<stop stop-color="#FFCE00"/>
<stop offset="1" stop-color="#6715E8"/>
</linearGradient>
</defs>
</svg>

