<svg width="112" height="100" viewBox="0 0 112 100" fill="none" xmlns="http://www.w3.org/2000/svg">
<g id="Icon / customizable-schedule-1">
<path d="M33.2952 35.0673C32.5112 35.0673 31.875 34.4362 31.875 33.6584V23.6407C31.875 21.7318 33.4408 20.1807 35.3649 20.1807H37.3204C38.1044 20.1807 38.7406 20.8118 38.7406 21.5896C38.7406 22.3673 38.1044 22.9984 37.3204 22.9984H35.3649C35.0065 22.9984 34.7153 23.2873 34.7153 23.6429V33.6607C34.7153 34.4384 34.0792 35.0696 33.2952 35.0696V35.0673Z" fill="#FFCE00"/>
<path d="M103.813 74.3473H55.4495C54.6655 74.3473 54.0293 73.7162 54.0293 72.9384C54.0293 72.1607 54.6655 71.5296 55.4495 71.5296H103.813C104.172 71.5296 104.463 71.2407 104.463 70.8851V23.6429C104.463 23.2873 104.172 22.9984 103.813 22.9984H101.004C100.22 22.9984 99.5842 22.3673 99.5842 21.5896C99.5842 20.8118 100.22 20.1807 101.004 20.1807H103.813C105.737 20.1807 107.301 21.734 107.301 23.6407V70.8851C107.301 72.794 105.735 74.3451 103.813 74.3451V74.3473Z" fill="#FFCE00"/>
<path d="M73.5503 22.9984H70.1096C69.3256 22.9984 68.6895 22.3673 68.6895 21.5896C68.6895 20.8118 69.3256 20.1807 70.1096 20.1807H73.5503C74.3343 20.1807 74.9704 20.8118 74.9704 21.5896C74.9704 22.3673 74.3343 22.9984 73.5503 22.9984Z" fill="#FFCE00"/>
<path d="M58.5952 22.9984H55.1545C54.3705 22.9984 53.7344 22.3673 53.7344 21.5896C53.7344 20.8118 54.3705 20.1807 55.1545 20.1807H58.5952C59.3792 20.1807 60.0153 20.8118 60.0153 21.5896C60.0153 22.3673 59.3792 22.9984 58.5952 22.9984Z" fill="#FFCE00"/>
<path d="M89.5968 22.9984H86.1584C85.3744 22.9984 84.7383 22.3673 84.7383 21.5896C84.7383 20.8118 85.3744 20.1807 86.1584 20.1807H89.5968C90.3808 20.1807 91.017 20.8118 91.017 21.5896C91.017 22.3673 90.3808 22.9984 89.5968 22.9984Z" fill="#FFCE00"/>
<path d="M46.3372 28.2869C43.7679 28.2869 41.6758 26.2136 41.6758 23.6624V19.518C41.6758 16.9691 43.7657 14.8936 46.3372 14.8936C48.9087 14.8936 50.9987 16.9669 50.9987 19.518V23.6624C50.9987 26.2113 48.9087 28.2869 46.3372 28.2869ZM46.3372 17.7091C45.3315 17.7091 44.5139 18.5202 44.5139 19.518V23.6624C44.5139 24.6602 45.3315 25.4713 46.3372 25.4713C47.343 25.4713 48.1606 24.6602 48.1606 23.6624V19.518C48.1606 18.5202 47.343 17.7091 46.3372 17.7091Z" fill="#FFCE00"/>
<path d="M61.8372 28.2869C59.2679 28.2869 57.1758 26.2136 57.1758 23.6624V19.518C57.1758 16.9691 59.2657 14.8936 61.8372 14.8936C64.4087 14.8936 66.4987 16.9669 66.4987 19.518V23.6624C66.4987 26.2113 64.4087 28.2869 61.8372 28.2869ZM61.8372 17.7091C60.8315 17.7091 60.0139 18.5202 60.0139 19.518V23.6624C60.0139 24.6602 60.8315 25.4713 61.8372 25.4713C62.843 25.4713 63.6606 24.6602 63.6606 23.6624V19.518C63.6606 18.5202 62.843 17.7091 61.8372 17.7091Z" fill="#FFCE00"/>
<path d="M77.3411 28.2869C74.7696 28.2869 72.6797 26.2136 72.6797 23.6624V19.518C72.6797 16.9691 74.7696 14.8936 77.3411 14.8936C79.9126 14.8936 82.0026 16.9669 82.0026 19.518V23.6624C82.0026 26.2113 79.9126 28.2869 77.3411 28.2869ZM77.3411 17.7091C76.3354 17.7091 75.5178 18.5202 75.5178 19.518V23.6624C75.5178 24.6602 76.3354 25.4713 77.3411 25.4713C78.3469 25.4713 79.1645 24.6602 79.1645 23.6624V19.518C79.1645 18.5202 78.3469 17.7091 77.3411 17.7091Z" fill="#FFCE00"/>
<path d="M92.8392 28.2869C90.2699 28.2869 88.1777 26.2136 88.1777 23.6624V19.518C88.1777 16.9691 90.2677 14.8936 92.8392 14.8936C95.4107 14.8936 97.5006 16.9669 97.5006 19.518V23.6624C97.5006 26.2113 95.4107 28.2869 92.8392 28.2869ZM92.8392 17.7091C91.8334 17.7091 91.0158 18.5202 91.0158 19.518V23.6624C91.0158 24.6602 91.8334 25.4713 92.8392 25.4713C93.8449 25.4713 94.6625 24.6602 94.6625 23.6624V19.518C94.6625 18.5202 93.8449 17.7091 92.8392 17.7091Z" fill="#FFCE00"/>
<path d="M65.6034 50.0155H58.0725C57.2885 50.0155 56.6523 49.3843 56.6523 48.6066V41.1355C56.6523 40.3577 57.2885 39.7266 58.0725 39.7266H65.6034C66.3874 39.7266 67.0235 40.3577 67.0235 41.1355V48.6066C67.0235 49.3843 66.3874 50.0155 65.6034 50.0155ZM59.4927 47.1999H64.1855V42.5443H59.4927V47.1999Z" fill="#FFCE00"/>
<path d="M81.0819 50.0155H73.551C72.767 50.0155 72.1309 49.3843 72.1309 48.6066V41.1355C72.1309 40.3577 72.767 39.7266 73.551 39.7266H81.0819C81.8659 39.7266 82.5021 40.3577 82.5021 41.1355V48.6066C82.5021 49.3843 81.8659 50.0155 81.0819 50.0155ZM74.9712 47.1999H79.664V42.5443H74.9712V47.1999Z" fill="#FFCE00"/>
<path d="M96.5819 50.0155H89.051C88.267 50.0155 87.6309 49.3843 87.6309 48.6066V41.1355C87.6309 40.3577 88.267 39.7266 89.051 39.7266H96.5819C97.3659 39.7266 98.0021 40.3577 98.0021 41.1355V48.6066C98.0021 49.3843 97.3659 50.0155 96.5819 50.0155ZM90.4712 47.1999H95.164V42.5443H90.4712V47.1999Z" fill="#FFCE00"/>
<path d="M65.6034 64.7576H58.0725C57.2885 64.7576 56.6523 64.1265 56.6523 63.3488V55.8776C56.6523 55.0999 57.2885 54.4688 58.0725 54.4688H65.6034C66.3874 54.4688 67.0235 55.0999 67.0235 55.8776V63.3488C67.0235 64.1265 66.3874 64.7576 65.6034 64.7576ZM59.4927 61.9399H64.1855V57.2843H59.4927V61.9399Z" fill="#FFCE00"/>
<path d="M81.0819 64.7576H73.551C72.767 64.7576 72.1309 64.1265 72.1309 63.3488V55.8776C72.1309 55.0999 72.767 54.4688 73.551 54.4688H81.0819C81.8659 54.4688 82.5021 55.0999 82.5021 55.8776V63.3488C82.5021 64.1265 81.8659 64.7576 81.0819 64.7576ZM74.9712 61.9399H79.664V57.2843H74.9712V61.9399Z" fill="#FFCE00"/>
<path d="M96.5819 64.7576H89.051C88.267 64.7576 87.6309 64.1265 87.6309 63.3488V55.8776C87.6309 55.0999 88.267 54.4688 89.051 54.4688H96.5819C97.3659 54.4688 98.0021 55.0999 98.0021 55.8776V63.3488C98.0021 64.1265 97.3659 64.7576 96.5819 64.7576ZM90.4712 61.9399H95.164V57.2843H90.4712V61.9399Z" fill="#FFCE00"/>
<path d="M28.2486 85.1063C15.2633 85.1063 4.69727 74.6263 4.69727 61.7441C4.69727 48.8618 15.2633 38.3818 28.2486 38.3818C41.2339 38.3818 51.7977 48.8618 51.7977 61.7441C51.7977 74.6263 41.2339 85.1063 28.2486 85.1063ZM28.2486 41.1974C16.8291 41.1974 7.53759 50.4152 7.53759 61.7441C7.53759 73.073 16.8291 82.2907 28.2486 82.2907C39.6681 82.2907 48.9597 73.073 48.9597 61.7441C48.9597 50.4152 39.6681 41.1974 28.2486 41.1974Z" fill="#FFCE00"/>
<path d="M28.2483 63.1503C27.9369 63.1503 27.63 63.0481 27.3792 62.8548C27.032 62.5881 26.8281 62.177 26.8281 61.7414V49.1726C26.8281 48.3948 27.4643 47.7637 28.2483 47.7637C29.0323 47.7637 29.6684 48.3948 29.6684 49.1726V59.9237L35.8284 58.3459C36.5856 58.1503 37.3628 58.6037 37.5577 59.357C37.7526 60.1103 37.2979 60.8792 36.5385 61.0726L28.6044 63.1037C28.488 63.1326 28.3692 63.1481 28.2505 63.1481L28.2483 63.1503Z" fill="#FFCE00"/>
</svg>
