<svg width="111" height="100" viewBox="0 0 111 100" fill="none" xmlns="http://www.w3.org/2000/svg">
<g id="Icon / daily-schedule-1">
<g clip-path="url(#clip0_5346_1568)">
<path d="M92.5765 49.0959C91.795 46.1382 89.8592 43.7204 87.2662 42.4582C85.9364 41.8115 84.5645 41.4848 83.1903 41.4848C81.5342 41.4848 79.878 41.956 78.2641 42.8871V38.5359C78.2641 37.7893 77.658 37.1826 76.9143 37.1826H25.73C24.9863 37.1826 24.3803 37.7893 24.3803 38.5359V49.6382C24.3803 59.4004 29.4108 70.196 36.9521 76.7093H19.3986C18.6549 76.7093 18.0488 77.3159 18.0488 78.0604C18.0488 81.0648 21.9494 83.176 25.2216 84.4204C29.2021 85.9337 33.3468 86.6137 35.0185 86.6137H67.6303C69.302 86.6137 73.4467 85.9337 77.4272 84.4204C80.6994 83.1782 84.5978 81.0648 84.5978 78.0604C84.5978 77.3159 83.9917 76.7093 83.248 76.7093H65.7211C67.8456 74.8693 69.8059 72.6426 71.5508 70.0893C74.3569 66.3293 78.233 65.0293 81.9804 63.7715C85.5524 62.5715 88.9268 61.4404 91.038 58.3648C92.8406 55.736 93.4178 52.2715 92.5809 49.0982L92.5765 49.0959ZM75.1317 63.6204C77.183 58.9515 78.2641 54.1315 78.2641 49.6382V46.1782C79.918 44.8648 81.5852 44.1982 83.2214 44.1982C84.1804 44.1982 85.1461 44.4293 86.0874 44.8871C87.9988 45.8182 89.3774 47.5582 89.968 49.7848C90.6073 52.2093 90.1744 54.8426 88.8091 56.8293C87.2129 59.1582 84.3935 60.1048 81.1212 61.2048C79.3541 61.8004 77.1919 62.5271 75.1339 63.6204H75.1317ZM67.6281 83.9115H35.0163C31.7684 83.9115 24.1516 81.7026 21.5808 79.4137H81.0635C78.4928 81.7026 70.8759 83.9115 67.6281 83.9115ZM61.1923 76.7093H41.4609C33.2603 71.316 27.082 59.6915 27.082 49.6382V39.8871H75.5646V49.6382C75.5646 59.6893 69.3908 71.3137 61.1923 76.7093Z" fill="#FFCE00"/>
<path d="M50.4855 22.9756C51.2803 23.6823 51.7154 24.6067 51.7154 25.5778C51.7154 26.5489 51.2781 27.4756 50.4855 28.1801C50.2169 28.4201 50.0548 28.7489 50.0326 29.1089C50.0104 29.4689 50.1303 29.8178 50.3701 30.0889C50.6254 30.3778 50.9939 30.5423 51.3802 30.5423C51.711 30.5423 52.0284 30.4223 52.2771 30.2001C53.6557 28.9734 54.4149 27.3312 54.4149 25.5756C54.4149 23.8201 53.6557 22.1778 52.2771 20.9534C51.4823 20.2467 51.045 19.3223 51.045 18.3512C51.045 17.3801 51.4823 16.4534 52.2771 15.7467C52.5479 15.5067 52.7077 15.1778 52.7299 14.8178C52.7521 14.4578 52.6323 14.1112 52.3925 13.8401C52.135 13.5512 51.7665 13.3867 51.3824 13.3867C51.0516 13.3867 50.7342 13.5089 50.4877 13.7289C49.1091 14.9534 48.3477 16.5978 48.3477 18.3534C48.3477 20.1089 49.1069 21.7512 50.4877 22.9756H50.4855Z" fill="#FFCE00"/>
<path d="M64.7922 22.9759C65.5847 23.6825 66.022 24.607 66.022 25.5781C66.022 26.5492 65.5847 27.4759 64.7922 28.1803C64.2349 28.6737 64.1839 29.5314 64.6789 30.0892C64.9342 30.3781 65.3028 30.5425 65.689 30.5425C66.0198 30.5425 66.3395 30.4203 66.5859 30.2003C67.9645 28.9737 68.7238 27.3314 68.7238 25.5759C68.7238 23.8203 67.9645 22.1781 66.5859 20.9537C65.7934 20.247 65.356 19.3225 65.356 18.3514C65.356 17.3803 65.7934 16.4537 66.5859 15.747C66.8568 15.507 67.0166 15.1759 67.0366 14.8159C67.0566 14.4559 66.9367 14.1092 66.6969 13.8403C66.4416 13.5514 66.0731 13.3848 65.6868 13.3848C65.356 13.3848 65.0386 13.507 64.7922 13.727C63.4135 14.9514 62.6543 16.5937 62.6543 18.3514C62.6543 20.1092 63.4135 21.7492 64.7922 22.9737V22.9759Z" fill="#FFCE00"/>
<path d="M36.1794 22.9759C36.9719 23.6825 37.4093 24.607 37.4093 25.5781C37.4093 26.5492 36.9719 27.4759 36.1794 28.1803C35.9086 28.4203 35.7487 28.7492 35.7265 29.1092C35.7043 29.4692 35.8242 29.8181 36.064 30.0892C36.3193 30.3781 36.6878 30.5425 37.0741 30.5425C37.4048 30.5425 37.7223 30.4225 37.9709 30.2003C39.3496 28.9737 40.1088 27.3314 40.1088 25.5759C40.1088 23.8203 39.3496 22.1781 37.9709 20.9537C37.1762 20.247 36.7388 19.3225 36.7388 18.3514C36.7388 17.3803 37.1762 16.4537 37.9709 15.747C38.5259 15.2537 38.577 14.3981 38.0842 13.8381C37.8266 13.5492 37.4581 13.3848 37.0718 13.3848C36.7411 13.3848 36.4236 13.507 36.1772 13.727C34.7986 14.9514 34.0371 16.5959 34.0371 18.3514C34.0371 20.107 34.7963 21.7492 36.1772 22.9737L36.1794 22.9759Z" fill="#FFCE00"/>
</g>
<defs>
<clipPath id="clip0_5346_1568">
<rect width="111" height="100" fill="white"/>
</clipPath>
</defs>
</svg>
