<svg width="100" height="100" viewBox="0 0 100 100" fill="none" xmlns="http://www.w3.org/2000/svg">
<g id="Icon / diversity_2">
<mask id="mask0_231_1576" style="mask-type:alpha" maskUnits="userSpaceOnUse" x="0" y="0" width="100" height="100">
<rect id="Bounding box" width="100" height="100" fill="#D9D9D9"/>
</mask>
<g mask="url(#mask0_231_1576)">
<path id="diversity_2" d="M36.4583 93.4377C33.2639 93.4377 30.3993 92.6044 27.8646 90.9377C25.3299 89.271 23.3681 86.9794 21.9792 84.0627C20.8681 85.521 19.4618 86.6495 17.7604 87.4481C16.059 88.2467 14.3056 88.646 12.5 88.646C8.95833 88.646 5.98958 87.4307 3.59375 85.0002C1.19792 82.5696 0 79.6182 0 76.146C0 73.1599 0.972222 70.4689 2.91667 68.0731C4.86111 65.6773 7.32639 64.3057 10.3125 63.9585C9.34028 62.5696 8.59375 61.0939 8.07292 59.5314C7.55208 57.9689 7.29167 56.3196 7.29167 54.5835C7.29167 51.8057 8.00347 49.2016 9.42708 46.771C10.8507 44.3405 12.8472 42.3613 15.4167 40.8335C15.7639 42.0835 16.2326 43.4203 16.8229 44.8439C17.4132 46.2676 18.0903 47.5002 18.8542 48.5419C17.8819 49.3057 17.1181 50.2259 16.5625 51.3023C16.0069 52.3787 15.7292 53.5071 15.7292 54.6877C15.7292 58.5766 17.3264 60.9724 20.5208 61.8752C23.7153 62.778 26.7361 63.5071 29.5833 64.0627L31.5625 67.396C30.7986 69.6182 30.1389 71.5106 29.5833 73.0731C29.0278 74.6356 28.75 76.0419 28.75 77.2919C28.75 79.3752 29.4965 81.1981 30.9896 82.7606C32.4826 84.3231 34.3056 85.1044 36.4583 85.1044C39.0972 85.1044 41.2847 83.9238 43.0208 81.5627C44.7569 79.2016 46.1806 76.4238 47.2917 73.2294C48.4028 70.0349 49.2535 66.8057 49.8438 63.5419C50.434 60.278 50.9028 57.778 51.25 56.0419L59.375 58.2294C58.75 61.3544 57.9861 64.9307 57.0833 68.9585C56.1806 72.9863 54.9132 76.8231 53.2812 80.4689C51.6493 84.1148 49.4965 87.1877 46.8229 89.6877C44.1493 92.1877 40.6944 93.4377 36.4583 93.4377ZM12.5 80.3127C13.6806 80.3127 14.6701 79.9134 15.4688 79.1148C16.2674 78.3162 16.6667 77.3266 16.6667 76.146C16.6667 74.9655 16.2674 73.9759 15.4688 73.1773C14.6701 72.3787 13.6806 71.9794 12.5 71.9794C11.3194 71.9794 10.3299 72.3787 9.53125 73.1773C8.73264 73.9759 8.33333 74.9655 8.33333 76.146C8.33333 77.3266 8.73264 78.3162 9.53125 79.1148C10.3299 79.9134 11.3194 80.3127 12.5 80.3127ZM42.0833 63.8544C38.8889 61.0071 35.9896 58.3509 33.3854 55.8856C30.7812 53.4203 28.5417 51.0245 26.6667 48.6981C24.7917 46.3717 23.3507 44.0453 22.3438 41.7189C21.3368 39.3926 20.8333 36.9794 20.8333 34.4794C20.8333 29.9655 22.3785 26.1634 25.4688 23.0731C28.559 19.9828 32.3611 18.4377 36.875 18.4377C37.1528 18.4377 37.3958 18.4551 37.6042 18.4898C37.8125 18.5245 38.0556 18.5419 38.3333 18.5419C38.0556 17.8474 37.8472 17.153 37.7083 16.4585C37.5694 15.7641 37.5 15.0349 37.5 14.271C37.5 10.7988 38.7153 7.84742 41.1458 5.41686C43.5764 2.9863 46.5278 1.77103 50 1.77103C53.4722 1.77103 56.4236 2.9863 58.8542 5.41686C61.2847 7.84742 62.5 10.7988 62.5 14.271C62.5 15.0349 62.4306 15.7467 62.2917 16.4064C62.1528 17.0662 61.9444 17.7432 61.6667 18.4377H63.125C67.2917 18.4377 70.8333 19.7745 73.75 22.4481C76.6667 25.1217 78.4028 28.4377 78.9583 32.396C77.7083 32.1877 76.3021 32.0835 74.7396 32.0835C73.1771 32.0835 71.7361 32.153 70.4167 32.2919C69.9305 30.6946 69.0451 29.3752 67.7604 28.3335C66.4757 27.2919 64.9306 26.771 63.125 26.771C60.6944 26.771 58.8021 27.4828 57.4479 28.9064C56.0938 30.3301 54.2361 32.396 51.875 35.1044H48.0208C45.5903 32.2571 43.6979 30.1564 42.3438 28.8023C40.9896 27.4481 39.1667 26.771 36.875 26.771C34.6528 26.771 32.8125 27.5002 31.3542 28.9585C29.8958 30.4169 29.1667 32.2571 29.1667 34.4794C29.1667 36.0766 29.6181 37.7259 30.5208 39.4273C31.4236 41.1287 32.691 42.9342 34.3229 44.8439C35.9549 46.7537 37.934 48.7849 40.2604 50.9377C42.5868 53.0905 45.1736 55.4169 48.0208 57.9169L42.0833 63.8544ZM50 18.4377C51.1806 18.4377 52.1701 18.0384 52.9688 17.2398C53.7674 16.4412 54.1667 15.4516 54.1667 14.271C54.1667 13.0905 53.7674 12.1009 52.9688 11.3023C52.1701 10.5037 51.1806 10.1044 50 10.1044C48.8194 10.1044 47.8299 10.5037 47.0312 11.3023C46.2326 12.1009 45.8333 13.0905 45.8333 14.271C45.8333 15.4516 46.2326 16.4412 47.0312 17.2398C47.8299 18.0384 48.8194 18.4377 50 18.4377ZM63.4375 93.4377C61.9097 93.4377 60.3993 93.2294 58.9062 92.8127C57.4132 92.396 55.9722 91.7363 54.5833 90.8335C55.3472 89.8613 56.1111 88.7155 56.875 87.396C57.6389 86.0766 58.3333 84.8613 58.9583 83.7502C59.7222 84.2363 60.4861 84.5835 61.25 84.7919C62.0139 85.0002 62.7778 85.1044 63.5417 85.1044C65.7639 85.1044 67.6215 84.3231 69.1146 82.7606C70.6076 81.1981 71.3542 79.3405 71.3542 77.1877C71.3542 75.8682 71.0764 74.4446 70.5208 72.9169C69.9653 71.3891 69.3056 69.5141 68.5417 67.2919L70.5208 63.9585C73.4375 63.403 76.4757 62.6738 79.6354 61.771C82.7951 60.8682 84.375 58.4724 84.375 54.5835C84.375 51.8057 83.3507 49.7919 81.3021 48.5419C79.2535 47.2919 77.0139 46.6669 74.5833 46.6669C71.6667 46.6669 68.2639 47.2224 64.375 48.3335C60.4861 49.4446 55.9375 50.8682 50.7292 52.6044L48.5417 44.4794C53.9583 42.7432 58.7847 41.2849 63.0208 40.1044C67.2569 38.9238 71.1458 38.3335 74.6875 38.3335C79.4792 38.3335 83.6806 39.7571 87.2917 42.6044C90.9028 45.4516 92.7083 49.4446 92.7083 54.5835C92.7083 56.3196 92.4479 57.9689 91.9271 59.5314C91.4062 61.0939 90.6597 62.5696 89.6875 63.9585C92.6736 64.3057 95.1389 65.6773 97.0833 68.0731C99.0278 70.4689 100 73.1599 100 76.146C100 79.6182 98.8021 82.5696 96.4062 85.0002C94.0104 87.4307 91.0417 88.646 87.5 88.646C85.6944 88.646 83.941 88.2467 82.2396 87.4481C80.5382 86.6495 79.1319 85.521 78.0208 84.0627C76.6319 86.9794 74.6701 89.271 72.1354 90.9377C69.6007 92.6044 66.7014 93.4377 63.4375 93.4377ZM87.6042 80.3127C88.7847 80.3127 89.7569 79.9134 90.5208 79.1148C91.2847 78.3162 91.6667 77.3266 91.6667 76.146C91.6667 74.9655 91.2674 73.9585 90.4687 73.1252C89.6701 72.2919 88.6805 71.8752 87.5 71.8752C86.3194 71.8752 85.3299 72.2745 84.5312 73.0731C83.7326 73.8717 83.3333 74.8613 83.3333 76.0419C83.3333 77.2224 83.75 78.2294 84.5833 79.0627C85.4167 79.896 86.4236 80.3127 87.6042 80.3127Z" fill="url(#paint0_linear_231_1576)"/>
</g>
</g>
<defs>
<linearGradient id="paint0_linear_231_1576" x1="-0.312425" y1="0.89649" x2="110.659" y2="27.5995" gradientUnits="userSpaceOnUse">
<stop stop-color="#FFCE00"/>
<stop offset="1" stop-color="#6715E8"/>
</linearGradient>
</defs>
</svg>
