<svg width="100" height="100" viewBox="0 0 100 100" fill="none" xmlns="http://www.w3.org/2000/svg">
<g id="Icon / done_outline">
<mask id="mask0_231_1559" style="mask-type:alpha" maskUnits="userSpaceOnUse" x="0" y="0" width="100" height="100">
<rect id="Bounding box" width="100" height="100" fill="#D9D9D9"/>
</mask>
<g mask="url(#mask0_231_1559)">
<path id="done_outline" d="M39.6875 75L83.8542 30.8333L77.9167 25L39.5833 63.2292L21.9792 45.5208L16.0417 51.4583L39.6875 75ZM33.75 80.8333L10.2083 57.2917C9.375 56.4583 8.76736 55.5382 8.38542 54.5312C8.00347 53.5243 7.8125 52.5 7.8125 51.4583C7.8125 50.4167 8.00347 49.375 8.38542 48.3333C8.76736 47.2917 9.375 46.3542 10.2083 45.5208L16.0417 39.6875C16.875 38.8542 17.7951 38.2292 18.8021 37.8125C19.809 37.3958 20.8681 37.1875 21.9792 37.1875C23.0903 37.1875 24.1493 37.3958 25.1562 37.8125C26.1632 38.2292 27.0833 38.8542 27.9167 39.6875L39.6875 51.4583L71.9792 19.0625C72.7431 18.2292 73.6458 17.6215 74.6875 17.2396C75.7292 16.8576 76.7708 16.6667 77.8125 16.6667C78.8542 16.6667 79.8958 16.8576 80.9375 17.2396C81.9792 17.6215 82.9167 18.1944 83.75 18.9583L89.6875 24.7917C90.5208 25.625 91.1458 26.5451 91.5625 27.5521C91.9792 28.559 92.1875 29.618 92.1875 30.7292C92.1875 31.8403 91.9965 32.8993 91.6146 33.9062C91.2326 34.9132 90.625 35.8333 89.7917 36.6667L45.625 80.8333C44.7917 81.6667 43.8542 82.2917 42.8125 82.7083C41.7708 83.125 40.7292 83.3333 39.6875 83.3333C38.6458 83.3333 37.6042 83.125 36.5625 82.7083C35.5208 82.2917 34.5833 81.6667 33.75 80.8333Z" fill="url(#paint0_linear_231_1559)"/>
</g>
</g>
<defs>
<linearGradient id="paint0_linear_231_1559" x1="7.54889" y1="16.0306" x2="99.4406" y2="41.684" gradientUnits="userSpaceOnUse">
<stop stop-color="#FFCE00"/>
<stop offset="1" stop-color="#6715E8"/>
</linearGradient>
</defs>
</svg>
