<svg width="94" height="113" viewBox="0 0 94 113" fill="none" xmlns="http://www.w3.org/2000/svg">
<g id="Icon / enthusiasm">
<mask id="mask0_231_1576" style="mask-type:alpha" maskUnits="userSpaceOnUse" x="0" y="0" width="100" height="100">
<rect id="Bounding box" width="100" height="100" fill="#D9D9D9"/>
</mask>
<g mask="url(#mask0_231_1576)">
<path id="enthusiasm" d="M93.8776 37.4544C93.0456 35.2497 90.7206 34.5148 88.7628 35.8621C87.2945 36.8665 85.8016 37.8708 84.3577 38.8996C79.0961 42.5985 73.4184 45.4891 67.2512 47.3997C61.9651 49.041 56.5566 49.9718 51.0013 50.0943C46.1557 50.1923 41.2856 50.2413 36.4645 49.5799C28.4619 48.4531 20.9487 45.9055 14.0229 41.6922C10.9883 39.855 8.1005 37.7973 5.13929 35.8131C4.1359 35.1272 3.08357 35.0048 1.9823 35.4457C0.929966 35.8621 0.367092 36.695 0 37.6993V39.1936C0.367092 40.2224 1.05233 40.9083 1.93335 41.5207C9.03046 46.5179 16.1031 51.5151 23.2002 56.5367C26.4551 58.8394 28.2906 61.9993 28.4619 65.9922C28.5842 68.4418 28.5108 70.9159 28.5353 73.3655C28.5353 73.5859 28.5353 73.8064 28.5353 74.0514H65.4647V73.3655C65.4647 71.2588 65.4647 69.1277 65.4647 67.021C65.4647 62.5138 67.3002 58.9863 70.9711 56.3898C77.8969 51.4906 84.8227 46.5914 91.773 41.7167C92.7274 41.0308 93.6084 40.3449 94 39.1936V37.6993C94 37.6993 93.9021 37.5279 93.8776 37.4544ZM28.5597 78.2892C28.5597 88.6755 28.5597 99.0863 28.5597 109.473C28.5597 110.011 28.78 110.599 29.0247 111.114C29.5142 112.143 30.4442 112.633 31.4475 113H33.0627C33.1851 112.927 33.3319 112.853 33.4788 112.804C35.045 112.192 35.9505 110.893 35.9505 109.203C35.9505 105.48 35.9505 101.756 35.9505 98.0329C35.9505 93.0113 39.3523 88.6265 44.2468 87.3282C48.9945 86.0789 54.1094 88.259 56.5566 92.5948C57.56 94.383 58.0739 96.3182 58.0739 98.3759C58.0739 101.879 58.0739 105.357 58.0739 108.86C58.0739 111.016 58.8081 112.094 60.8149 112.902C60.8638 112.902 60.9128 112.976 60.9373 113H62.5525C62.5525 113 62.6748 112.927 62.7482 112.902C64.5348 112.29 65.4647 111.016 65.4647 109.154C65.4647 98.9393 65.4647 88.7 65.4647 78.4851V77.8727H28.5597C28.5597 78.0442 28.5353 78.1912 28.5353 78.3137L28.5597 78.2892ZM42.2645 9.25948C42.4114 9.40646 42.5337 9.72491 42.5092 9.94537C42.3624 10.9987 42.1666 12.0275 41.9953 13.0809C41.8974 13.6688 41.7995 14.2812 41.6772 14.967C41.9953 14.7956 42.2156 14.6976 42.4358 14.5996C43.6595 13.9627 44.8831 13.3258 46.1067 12.6644C46.4004 12.493 46.6451 12.4685 46.9633 12.6644C47.5996 13.0319 48.2848 13.3748 48.9456 13.7178C49.7287 14.1342 50.5363 14.5261 51.3929 14.967C51.3929 14.7221 51.3684 14.5996 51.3439 14.4526C51.0992 13.0809 50.8789 11.6846 50.6097 10.3128C50.5118 9.7984 50.6097 9.43096 51.0013 9.03902C52.0292 8.10817 52.9836 7.12833 53.987 6.14849C54.1094 6.02601 54.2317 5.87904 54.403 5.68307C52.6899 5.43811 51.0747 5.21765 49.4595 4.94819C49.2148 4.8992 48.9456 4.70323 48.8232 4.50726C48.2359 3.38045 47.673 2.25363 47.1346 1.10232C46.9633 0.73488 46.8409 0.36744 46.6941 0H46.4738C45.9844 1.02883 45.4215 2.05766 45.0544 3.13549C44.565 4.60525 43.635 5.21765 42.0932 5.24214C40.9919 5.24214 39.9151 5.53609 38.7404 5.70756C38.9362 5.92803 39.0586 6.075 39.1809 6.19748C40.2333 7.22632 41.2856 8.23065 42.3135 9.25948H42.2645ZM47.0122 46.3954C53.0815 46.3954 58.0739 41.4472 58.0984 35.3967C58.0984 29.1502 53.2039 24.1775 47.0122 24.1775C40.9185 24.1775 35.9261 29.1257 35.9261 35.1762C35.9261 41.4227 40.8206 46.3954 47.0122 46.3954ZM65.1466 14.5506C65.8318 15.114 65.9052 15.6774 65.7339 16.4858C65.4403 17.8576 65.2445 19.2294 64.9997 20.6991C65.22 20.6011 65.3668 20.5521 65.4892 20.4786C66.7863 19.7928 68.1078 19.1069 69.4048 18.421C69.723 18.2495 69.9922 18.225 70.3103 18.421C71.069 18.8374 71.8277 19.2294 72.5863 19.6458C73.2471 19.9887 73.9323 20.3317 74.691 20.7236C74.6665 20.4297 74.642 20.2337 74.6175 20.0377C74.3728 18.6414 74.1281 17.2452 73.9078 15.8489C73.8589 15.6039 73.9078 15.261 74.0791 15.0895C74.5197 14.5751 75.0336 14.1587 75.523 13.6688C76.2328 12.9584 76.918 12.2235 77.6277 11.4641C76.453 11.2927 75.3028 11.1212 74.1526 10.9497C72.2926 10.7047 72.2926 10.7047 71.485 9.01452C70.9711 7.9367 70.4327 6.88337 69.8698 5.75656C69.723 6.00152 69.6496 6.17299 69.5517 6.34446C68.9154 7.64275 68.2791 8.91654 67.6428 10.2148C67.4715 10.5823 67.2512 10.7047 66.8597 10.7537C65.2689 10.9497 63.6782 11.2192 61.9651 11.4641C62.2098 11.7336 62.3567 11.905 62.528 12.0765C63.3845 12.9094 64.1921 13.7912 65.0976 14.5506H65.1466ZM19.0888 14.8691C19.4069 15.163 19.5048 15.457 19.4314 15.8734C19.1622 17.2207 18.9419 18.5925 18.7217 19.9642C18.6972 20.1847 18.6727 20.3807 18.6483 20.6991C20.0187 19.9887 21.2913 19.3518 22.515 18.6414C23.1757 18.2495 23.7386 18.1515 24.3994 18.6414C24.742 18.9109 25.1825 19.0579 25.5741 19.2783C26.4796 19.7438 27.3606 20.2092 28.3395 20.7236C28.3395 20.5031 28.315 20.4052 28.2906 20.2827C28.0458 18.8864 27.8256 17.4656 27.5564 16.0939C27.4585 15.555 27.4829 15.163 27.9479 14.7956C28.364 14.4771 28.7311 14.0607 29.1226 13.6933C29.8323 12.9829 30.542 12.248 31.3252 11.4641C29.8079 11.2437 28.364 10.9987 26.9201 10.8517C26.1859 10.7782 25.7699 10.5088 25.4762 9.82289C24.8888 8.47561 24.1791 7.17732 23.4939 5.75656C23.347 6.02601 23.2492 6.22198 23.1513 6.39345C22.4905 7.69174 21.8542 9.01452 21.1934 10.3128C21.0955 10.5088 20.8263 10.6803 20.6061 10.7292C19.7985 10.8762 18.9664 10.9742 18.1588 11.0967C17.3267 11.2192 16.5191 11.3416 15.6136 11.4641C15.8094 11.6846 15.9073 11.8071 16.0297 11.9295C17.0575 12.9094 18.0609 13.9137 19.0888 14.8936V14.8691Z" fill="url(#paint0_linear_2267_3535)"/>
</g>
</g>
<defs>
<linearGradient id="paint0_linear_2267_3535" x1="0.0365382" y1="14.396" x2="64.9471" y2="44.6499" gradientUnits="userSpaceOnUse">
<stop stop-color="#FFCE00"/>
<stop offset="1" stop-color="#6715E8"/>
</linearGradient>
</defs>
</svg>