<svg width="100" height="100" viewBox="0 0 100 100" fill="none" xmlns="http://www.w3.org/2000/svg">
<g id="Icon / flash_on">
<mask id="mask0_231_1562" style="mask-type:alpha" maskUnits="userSpaceOnUse" x="0" y="0" width="100" height="100">
<rect id="Bounding box" width="100" height="100" fill="#D9D9D9"/>
</mask>
<g mask="url(#mask0_231_1562)">
<path id="flash_on" d="M50.0003 64.9998L63.3337 45.8331H51.4587L59.792 16.6665H37.5003V49.9998H50.0003V64.9998ZM72.3962 47.2915L47.3962 83.4373C46.9795 84.0623 46.4413 84.479 45.7816 84.6873C45.1219 84.8956 44.4795 84.8956 43.8545 84.6873C43.2295 84.479 42.7087 84.1144 42.292 83.5936C41.8753 83.0727 41.667 82.4304 41.667 81.6665V58.3331H37.5003C35.2087 58.3331 33.2469 57.5172 31.6149 55.8852C29.983 54.2533 29.167 52.2915 29.167 49.9998V16.6665C29.167 14.3748 29.983 12.413 31.6149 10.781C33.2469 9.1491 35.2087 8.33313 37.5003 8.33313H61.8753C64.0976 8.33313 65.8857 9.20119 67.2399 10.9373C68.5941 12.6734 68.9934 14.5831 68.4378 16.6665L62.5003 37.4998H67.1878C69.6878 37.4998 71.5455 38.6109 72.7607 40.8331C73.976 43.0554 73.8545 45.2081 72.3962 47.2915Z" fill="url(#paint0_linear_231_1562)"/>
</g>
</g>
<defs>
<linearGradient id="paint0_linear_231_1562" x1="29.0282" y1="7.60319" x2="80.337" y2="14.1742" gradientUnits="userSpaceOnUse">
<stop stop-color="#FFCE00"/>
<stop offset="1" stop-color="#6715E8"/>
</linearGradient>
</defs>
</svg>
