<svg width="112" height="101" viewBox="0 0 112 101" fill="none" xmlns="http://www.w3.org/2000/svg">
<g id="Icon / full-event-access-1">
<path d="M69.7215 84.4026H42.2748C40.8748 84.4026 39.5509 83.7877 38.646 82.7171C37.7388 81.6465 37.3535 80.2392 37.582 78.8544L37.9225 76.8074C39.0962 69.7329 45.1442 64.5977 52.301 64.5977H59.6953C66.8521 64.5977 72.9001 69.7329 74.0738 76.8074L74.4143 78.8544C74.645 80.2392 74.2553 81.6465 73.3503 82.7171C72.4453 83.7877 71.1215 84.4026 69.7215 84.4026ZM52.301 67.4436C46.5375 67.4436 41.6677 71.5779 40.7247 77.2743L40.3842 79.3212C40.2924 79.8801 40.4469 80.4479 40.8121 80.8789C41.1772 81.3098 41.7103 81.5589 42.2748 81.5589H69.7215C70.286 81.5589 70.8191 81.312 71.1842 80.8789C71.5493 80.4479 71.7061 79.8801 71.6121 79.3212L71.2716 77.2743C70.3263 71.5779 65.4565 67.4436 59.6953 67.4436H52.301Z" fill="#FFCE00"/>
<path d="M55.9993 67.4438C50.9817 67.4438 46.9004 63.3545 46.9004 58.3269C46.9004 53.2993 50.9817 49.21 55.9993 49.21C61.0169 49.21 65.0982 53.2993 65.0982 58.3269C65.0982 63.3545 61.0169 67.4438 55.9993 67.4438ZM55.9993 52.0514C52.5474 52.0514 49.7385 54.866 49.7385 58.3246C49.7385 61.7833 52.5474 64.5979 55.9993 64.5979C59.4511 64.5979 62.2601 61.7833 62.2601 58.3246C62.2601 54.866 59.4511 52.0514 55.9993 52.0514Z" fill="#FFCE00"/>
<path d="M33.459 80.262H18.8273C17.4273 80.262 16.1035 79.647 15.1985 78.5764C14.2936 77.5058 13.906 76.0963 14.1345 74.7137L14.475 72.6668C15.6488 65.5923 21.6968 60.457 28.8536 60.457H36.2478C38.4228 60.457 40.5195 60.9284 42.4795 61.8576C43.1873 62.1942 43.4897 63.0426 43.156 63.7519C42.82 64.4611 41.9755 64.7641 41.2654 64.4297C39.6884 63.6823 38.0017 63.303 36.2478 63.303H28.8536C23.09 63.303 18.2203 67.4373 17.275 73.1337L16.9345 75.1806C16.8427 75.7395 16.9972 76.3073 17.3624 76.7382C17.7275 77.1692 18.2606 77.4183 18.8251 77.4183H33.4568C34.2408 77.4183 34.8769 78.0557 34.8769 78.8413C34.8769 79.6268 34.2408 80.2643 33.4568 80.2643L33.459 80.262Z" fill="#FFCE00"/>
<path d="M32.5501 63.3003C27.5325 63.3003 23.4512 59.2109 23.4512 54.1833C23.4512 49.1558 27.5325 45.0664 32.5501 45.0664C37.5677 45.0664 41.6489 49.1558 41.6489 54.1833C41.6489 59.2109 37.5677 63.3003 32.5501 63.3003ZM32.5501 47.9101C29.0982 47.9101 26.2893 50.7247 26.2893 54.1833C26.2893 57.642 29.0982 60.4566 32.5501 60.4566C36.0019 60.4566 38.8109 57.642 38.8109 54.1833C38.8109 50.7247 36.0019 47.9101 32.5501 47.9101Z" fill="#FFCE00"/>
<path d="M93.1731 80.262H78.5168C77.7328 80.262 77.0966 79.6246 77.0966 78.839C77.0966 78.0535 77.7328 77.4161 78.5168 77.4161H93.1731C93.7376 77.4161 94.2707 77.1692 94.6359 76.736C95.001 76.3028 95.1578 75.735 95.0637 75.1783L94.7232 73.1314C93.7779 67.435 88.9082 63.3007 83.1446 63.3007H75.7504C73.9987 63.3007 72.3098 63.6801 70.7328 64.4297C70.025 64.7664 69.1782 64.4634 68.8422 63.7519C68.5062 63.0426 68.8087 62.1942 69.5187 61.8576C71.4787 60.9284 73.5754 60.457 75.7526 60.457H83.1469C90.3037 60.457 96.3517 65.5923 97.5254 72.6668L97.8659 74.7137C98.0966 76.0986 97.7069 77.5058 96.8019 78.5764C95.897 79.647 94.5731 80.262 93.1731 80.262Z" fill="#FFCE00"/>
<path d="M79.4504 63.3003C74.4328 63.3003 70.3516 59.2109 70.3516 54.1833C70.3516 49.1558 74.4328 45.0664 79.4504 45.0664C84.468 45.0664 88.5493 49.1558 88.5493 54.1833C88.5493 59.2109 84.468 63.3003 79.4504 63.3003ZM79.4504 47.9101C75.9986 47.9101 73.1896 50.7247 73.1896 54.1833C73.1896 57.642 75.9986 60.4566 79.4504 60.4566C82.9023 60.4566 85.7112 57.642 85.7112 54.1833C85.7112 50.7247 82.9023 47.9101 79.4504 47.9101Z" fill="#FFCE00"/>
<path d="M49.6675 40.4272C49.224 40.4272 48.7827 40.2881 48.4064 40.0142C47.7411 39.5294 47.4118 38.7214 47.5507 37.9089L48.5677 31.9612L44.2557 27.7483C43.6665 27.1738 43.4582 26.3276 43.7113 25.5421C43.9667 24.7565 44.6297 24.1954 45.4451 24.0764L51.4057 23.2078L54.0713 17.7965C54.4365 17.0558 55.1757 16.5957 55.9977 16.5957C56.8198 16.5957 57.559 17.0558 57.9241 17.7942L60.5897 23.2056L66.5504 24.0742C67.3657 24.1931 68.031 24.7543 68.2841 25.5398C68.5395 26.3254 68.3312 27.1693 67.7398 27.7461L63.4278 31.9589L64.4448 37.9067C64.5837 38.7192 64.2566 39.5272 63.5891 40.012C62.9216 40.4968 62.0547 40.5596 61.3267 40.1758L55.9955 37.368L50.6643 40.1758C50.3484 40.3442 50.0035 40.425 49.663 40.425L49.6675 40.4272ZM47.2393 26.689L50.8099 30.1768C51.3161 30.6706 51.5469 31.3821 51.4281 32.0801L50.5859 37.0067L54.9987 34.6814C55.6259 34.3515 56.3741 34.3515 56.999 34.6814L61.4118 37.0067L60.5696 32.0824C60.4508 31.3821 60.6816 30.6706 61.1901 30.1768L64.7606 26.689L59.8259 25.9707C59.1292 25.8697 58.5222 25.4321 58.2086 24.7947L56 20.3125L53.7936 24.7924C53.48 25.4298 52.8729 25.8697 52.1741 25.9707L47.2416 26.689H47.2393Z" fill="#FFCE00"/>
<path d="M37.0787 42.0521C36.7382 42.0521 36.3933 41.9691 36.0774 41.803L32.5517 39.9446L29.0259 41.803C28.2934 42.1868 27.4265 42.1239 26.7635 41.6391C26.096 41.1543 25.7689 40.3463 25.9078 39.5338L26.5821 35.5993L23.7283 32.8117C23.1392 32.2349 22.9309 31.391 23.184 30.6054C23.4393 29.8199 24.1046 29.2588 24.92 29.1421L28.8601 28.5697L30.623 24.9898C30.9881 24.2492 31.7273 23.7891 32.5494 23.7891C33.3715 23.7891 34.1107 24.2492 34.4758 24.9876L36.2387 28.5697L40.1811 29.1443C40.9942 29.261 41.6595 29.8221 41.9149 30.6077C42.1702 31.3932 41.9619 32.2394 41.3705 32.814L38.5168 35.6016L39.191 39.5361C39.3299 40.3486 39.0029 41.1566 38.3353 41.6414C37.959 41.9152 37.5177 42.0543 37.0742 42.0543L37.0787 42.0521ZM26.7097 31.7546L28.8198 33.8172C29.3261 34.3133 29.5568 35.0247 29.4381 35.7205L28.9408 38.6338L31.5504 37.2602C32.1798 36.9303 32.928 36.9303 33.5507 37.2602L36.1603 38.6338L35.663 35.7228C35.5443 35.0248 35.775 34.3133 36.279 33.8172L38.3913 31.7546L35.4749 31.3304C34.7737 31.2272 34.1689 30.7872 33.8576 30.1521L32.5539 27.5036L31.2502 30.1521C30.9389 30.7872 30.3341 31.2272 29.6352 31.3304L26.7142 31.7546H26.7097Z" fill="#FFCE00"/>
<path d="M74.9211 42.0521C74.4776 42.0521 74.0363 41.913 73.66 41.6391C72.9947 41.1543 72.6654 40.3463 72.8043 39.5338L73.4786 35.5993L70.6248 32.814C70.0357 32.2394 69.8274 31.3932 70.0805 30.6077C70.3358 29.8221 71.0011 29.261 71.8165 29.1421L75.7566 28.5697L77.5195 24.9898C77.8846 24.2492 78.6238 23.7891 79.4459 23.7891C80.268 23.7891 81.0072 24.2492 81.3701 24.9898L83.133 28.5697L87.0776 29.1443C87.8907 29.261 88.556 29.8221 88.8114 30.6077C89.0667 31.3932 88.8584 32.2394 88.267 32.814L85.4133 35.6016L86.0875 39.5361C86.2264 40.3486 85.8994 41.1566 85.2318 41.6414C84.5666 42.1262 83.6974 42.189 82.9694 41.8075L79.4414 39.9491L75.9157 41.8052C75.5998 41.9736 75.2549 42.0544 74.9144 42.0544L74.9211 42.0521ZM79.4504 37.0111C79.7931 37.0111 80.1381 37.0941 80.4494 37.258L83.059 38.6316L82.5618 35.7205C82.443 35.0225 82.6738 34.311 83.1778 33.815L85.2901 31.7524L82.3714 31.3282C81.6702 31.2249 81.0654 30.785 80.7541 30.1498L79.4504 27.5014L78.1467 30.1498C77.8354 30.785 77.2306 31.2249 76.5317 31.3282L73.613 31.7524L75.723 33.815C76.2315 34.311 76.4622 35.0248 76.339 35.7228L75.8418 38.6316L78.4514 37.258C78.765 37.0919 79.1077 37.0111 79.4504 37.0111ZM78.8299 26.2445C78.8299 26.2445 78.8299 26.2445 78.8299 26.2467V26.2445Z" fill="#FFCE00"/>
</svg>
