<svg width="100" height="100" viewBox="0 0 100 100" fill="none" xmlns="http://www.w3.org/2000/svg">
<g id="Icon / gamepad">
<mask id="mask0_231_1560" style="mask-type:alpha" maskUnits="userSpaceOnUse" x="0" y="0" width="100" height="100">
<rect id="Bounding box" width="100" height="100" fill="#D9D9D9"/>
</mask>
<g mask="url(#mask0_231_1560)">
<path id="gamepad" d="M47.083 40.8331L38.7497 32.4998C38.333 32.0831 38.0205 31.6144 37.8122 31.0935C37.6038 30.5727 37.4997 30.0345 37.4997 29.479V12.4998C37.4997 11.3192 37.899 10.3297 38.6976 9.53105C39.4962 8.73244 40.4858 8.33313 41.6663 8.33313H58.333C59.5136 8.33313 60.5032 8.73244 61.3018 9.53105C62.1004 10.3297 62.4997 11.3192 62.4997 12.4998V29.479C62.4997 30.0345 62.3955 30.5727 62.1872 31.0935C61.9788 31.6144 61.6663 32.0831 61.2497 32.4998L52.9163 40.8331C52.4997 41.2498 52.0483 41.5449 51.5622 41.7185C51.0761 41.8922 50.5552 41.979 49.9997 41.979C49.4441 41.979 48.9233 41.8922 48.4372 41.7185C47.9511 41.5449 47.4997 41.2498 47.083 40.8331ZM59.1663 52.9165C58.7497 52.4998 58.4545 52.0484 58.2809 51.5623C58.1073 51.0762 58.0205 50.5554 58.0205 49.9998C58.0205 49.4442 58.1073 48.9234 58.2809 48.4373C58.4545 47.9512 58.7497 47.4998 59.1663 47.0831L67.4997 38.7498C67.9163 38.3331 68.3851 38.0206 68.9059 37.8123C69.4268 37.604 69.965 37.4998 70.5205 37.4998H87.4997C88.6802 37.4998 89.6698 37.8991 90.4684 38.6977C91.267 39.4963 91.6664 40.4859 91.6664 41.6665V58.3331C91.6664 59.5137 91.267 60.5033 90.4684 61.3019C89.6698 62.1005 88.6802 62.4998 87.4997 62.4998H70.5205C69.965 62.4998 69.4268 62.3956 68.9059 62.1873C68.3851 61.979 67.9163 61.6665 67.4997 61.2498L59.1663 52.9165ZM8.33301 58.3331V41.6665C8.33301 40.4859 8.73231 39.4963 9.53092 38.6977C10.3295 37.8991 11.3191 37.4998 12.4997 37.4998H29.4788C30.0344 37.4998 30.5726 37.604 31.0934 37.8123C31.6143 38.0206 32.083 38.3331 32.4997 38.7498L40.833 47.0831C41.2497 47.4998 41.5448 47.9512 41.7184 48.4373C41.892 48.9234 41.9788 49.4442 41.9788 49.9998C41.9788 50.5554 41.892 51.0762 41.7184 51.5623C41.5448 52.0484 41.2497 52.4998 40.833 52.9165L32.4997 61.2498C32.083 61.6665 31.6143 61.979 31.0934 62.1873C30.5726 62.3956 30.0344 62.4998 29.4788 62.4998H12.4997C11.3191 62.4998 10.3295 62.1005 9.53092 61.3019C8.73231 60.5033 8.33301 59.5137 8.33301 58.3331ZM37.4997 87.4998V70.5206C37.4997 69.9651 37.6038 69.4269 37.8122 68.9061C38.0205 68.3852 38.333 67.9165 38.7497 67.4998L47.083 59.1665C47.4997 58.7498 47.9511 58.4547 48.4372 58.2811C48.9233 58.1074 49.4441 58.0206 49.9997 58.0206C50.5552 58.0206 51.0761 58.1074 51.5622 58.2811C52.0483 58.4547 52.4997 58.7498 52.9163 59.1665L61.2497 67.4998C61.6663 67.9165 61.9788 68.3852 62.1872 68.9061C62.3955 69.4269 62.4997 69.9651 62.4997 70.5206V87.4998C62.4997 88.6804 62.1004 89.6699 61.3018 90.4686C60.5032 91.2672 59.5136 91.6665 58.333 91.6665H41.6663C40.4858 91.6665 39.4962 91.2672 38.6976 90.4686C37.899 89.6699 37.4997 88.6804 37.4997 87.4998ZM49.9997 31.8748L54.1663 27.7081V16.6665H45.833V27.7081L49.9997 31.8748ZM16.6663 54.1665H27.708L31.8747 49.9998L27.708 45.8331H16.6663V54.1665ZM45.833 83.3331H54.1663V72.2915L49.9997 68.1248L45.833 72.2915V83.3331ZM72.2913 54.1665H83.333V45.8331H72.2913L68.1247 49.9998L72.2913 54.1665Z" fill="url(#paint0_linear_231_1560)"/>
</g>
</g>
<defs>
<linearGradient id="paint0_linear_231_1560" x1="8.07265" y1="7.5381" x2="101.364" y2="28.1161" gradientUnits="userSpaceOnUse">
<stop stop-color="#FFCE00"/>
<stop offset="1" stop-color="#6715E8"/>
</linearGradient>
</defs>
</svg>
