<svg width="128" height="128" viewBox="0 0 128 128" fill="none" xmlns="http://www.w3.org/2000/svg">
<path d="M101.055 81.6321C99.4233 74.6561 96.5753 68.1281 91.7113 62.4321C86.4633 56.2241 79.5193 55.1041 72.9273 59.1361C69.9193 60.9921 66.9433 61.9201 63.9673 61.9841C60.9913 61.9201 57.9833 60.9921 55.0073 59.1361C48.4153 55.1041 41.5033 56.2561 36.2233 62.4321C31.3913 68.1281 28.5113 74.6561 26.8793 81.6321C25.1193 88.4161 24.6713 95.3601 26.1753 102.4C27.7433 109.728 33.4713 112 39.7113 107.808C43.0713 105.536 46.0793 102.656 48.9593 99.7761C50.8793 97.8561 52.7673 96.7681 55.5513 96.8321C57.9193 96.8961 61.8553 96.9281 64.5113 96.9281H65.2153C67.5833 96.9281 69.9193 96.8961 72.2873 96.8321C75.0713 96.7681 76.9593 97.8561 78.8793 99.7761C81.7593 102.688 84.7673 105.568 88.1273 107.808C94.3673 112 100.095 109.76 101.663 102.4C103.167 95.3281 102.719 88.3841 100.959 81.6321H101.055ZM98.9113 101.856C97.9833 106.88 94.5273 108.448 90.2713 105.632C86.7513 103.296 83.5833 100.288 80.5753 97.2801C78.4313 95.1361 76.1913 93.9841 73.1833 94.0161C70.3993 94.0481 67.6153 94.0801 64.8313 94.1121C61.9193 94.1121 57.5353 94.0481 54.8153 94.0161C51.8073 93.9841 49.5673 95.1361 47.4233 97.2801C44.4153 100.288 41.2793 103.296 37.7273 105.632C33.4713 108.448 30.0153 106.88 29.0873 101.856C27.8073 94.9121 28.0633 88.1281 29.8233 81.6001H29.8553C31.4873 74.9121 34.2713 68.7681 39.0713 63.5521C43.1673 59.1041 48.0953 58.2401 52.9593 61.2481C56.6073 63.4881 60.2233 64.6721 63.8073 64.7681C63.8073 64.7681 63.9353 64.7681 63.9993 64.7681C64.0633 64.7681 64.1273 64.7681 64.1913 64.7681C67.8073 64.6721 71.3913 63.4881 75.0393 61.2481C79.9033 58.2401 84.8313 59.1041 88.9273 63.5521C93.7273 68.7361 96.5113 74.9121 98.1433 81.6001H98.1753C99.9353 88.1281 100.159 94.9121 98.9113 101.856Z" fill="#FFCD00"/>
<path d="M51.5205 78.3684H48.4485V75.2964C48.4485 74.4964 47.8085 73.8564 47.0085 73.8564H44.5125C43.7125 73.8564 43.0725 74.4964 43.0725 75.2964V78.3684H40.0005C39.2005 78.3684 38.5605 79.0084 38.5605 79.8084V82.3044C38.5605 83.1044 39.2005 83.7444 40.0005 83.7444H43.0725V86.8164C43.0725 87.6164 43.7125 88.2564 44.5125 88.2564H47.0085C47.8085 88.2564 48.4485 87.6164 48.4485 86.8164V83.7444H51.5205C52.3205 83.7444 52.9605 83.1044 52.9605 82.3044V79.8084C52.9605 79.0084 52.3205 78.3684 51.5205 78.3684Z" fill="#FFCD00"/>
<path d="M75.4883 79.3604C77.0082 79.3604 78.2403 78.1283 78.2403 76.6084C78.2403 75.0886 77.0082 73.8564 75.4883 73.8564C73.9684 73.8564 72.7363 75.0886 72.7363 76.6084C72.7363 78.1283 73.9684 79.3604 75.4883 79.3604Z" fill="#FFCD00"/>
<path d="M75.4883 88.7677C77.0082 88.7677 78.2403 87.5356 78.2403 86.0157C78.2403 84.4958 77.0082 83.2637 75.4883 83.2637C73.9684 83.2637 72.7363 84.4958 72.7363 86.0157C72.7363 87.5356 73.9684 88.7677 75.4883 88.7677Z" fill="#FFCD00"/>
<path d="M85.4395 79.3604C86.9594 79.3604 88.1915 78.1283 88.1915 76.6084C88.1915 75.0886 86.9594 73.8564 85.4395 73.8564C83.9196 73.8564 82.6875 75.0886 82.6875 76.6084C82.6875 78.1283 83.9196 79.3604 85.4395 79.3604Z" fill="#FFCD00"/>
<path d="M85.4395 88.7677C86.9594 88.7677 88.1915 87.5356 88.1915 86.0157C88.1915 84.4958 86.9594 83.2637 85.4395 83.2637C83.9196 83.2637 82.6875 84.4958 82.6875 86.0157C82.6875 87.5356 83.9196 88.7677 85.4395 88.7677Z" fill="#FFCD00"/>
</svg>
