<svg width="100" height="100" viewBox="0 0 100 100" fill="none" xmlns="http://www.w3.org/2000/svg">
<g id="Icon / grade">
<mask id="mask0_231_1563" style="mask-type:alpha" maskUnits="userSpaceOnUse" x="0" y="0" width="100" height="100">
<rect id="Bounding box" width="100" height="100" fill="#D9D9D9"/>
</mask>
<g mask="url(#mask0_231_1563)">
<path id="grade" d="M36.8752 70.104L50.0002 62.1874L63.1252 70.2082L59.6877 55.2082L71.2502 45.2082L56.0419 43.854L50.0002 29.6874L43.9586 43.7499L28.7502 45.104L40.3127 55.2082L36.8752 70.104ZM50.0002 71.979L32.7086 82.3957C31.9447 82.8818 31.1461 83.0901 30.3127 83.0207C29.4794 82.9512 28.7502 82.6735 28.1252 82.1874C27.5002 81.7012 27.0141 81.0936 26.6669 80.3644C26.3197 79.6353 26.2502 78.8193 26.4586 77.9165L31.0419 58.229L15.7294 44.9999C15.0349 44.3749 14.6009 43.6631 14.4273 42.8644C14.2537 42.0658 14.3058 41.2846 14.5836 40.5207C14.8613 39.7568 15.278 39.1318 15.8336 38.6457C16.3891 38.1596 17.153 37.8471 18.1252 37.7082L38.3336 35.9374L46.1461 17.3957C46.4933 16.5624 47.0315 15.9374 47.7606 15.5207C48.4898 15.104 49.2363 14.8957 50.0002 14.8957C50.7641 14.8957 51.5106 15.104 52.2398 15.5207C52.969 15.9374 53.5072 16.5624 53.8544 17.3957L61.6669 35.9374L81.8752 37.7082C82.8475 37.8471 83.6113 38.1596 84.1669 38.6457C84.7225 39.1318 85.1391 39.7568 85.4169 40.5207C85.6947 41.2846 85.7468 42.0658 85.5732 42.8644C85.3995 43.6631 84.9655 44.3749 84.2711 44.9999L68.9586 58.229L73.5419 77.9165C73.7502 78.8193 73.6808 79.6353 73.3336 80.3644C72.9863 81.0936 72.5002 81.7012 71.8752 82.1874C71.2502 82.6735 70.5211 82.9512 69.6877 83.0207C68.8544 83.0901 68.0558 82.8818 67.2919 82.3957L50.0002 71.979Z" fill="url(#paint0_linear_231_1563)"/>
</g>
</g>
<defs>
<linearGradient id="paint0_linear_231_1563" x1="14.1042" y1="14.2456" x2="93.6205" y2="32.611" gradientUnits="userSpaceOnUse">
<stop stop-color="#FFCE00"/>
<stop offset="1" stop-color="#6715E8"/>
</linearGradient>
</defs>
</svg>
