<svg width="100" height="100" viewBox="0 0 100 100" fill="none" xmlns="http://www.w3.org/2000/svg">
<g id="Icon / grain">
<mask id="mask0_231_1561" style="mask-type:alpha" maskUnits="userSpaceOnUse" x="0" y="0" width="100" height="100">
<rect id="Bounding box" width="100" height="100" fill="#D9D9D9"/>
</mask>
<g mask="url(#mask0_231_1561)">
<path id="grain" d="M25.0003 83.3335C22.7087 83.3335 20.7469 82.5175 19.1149 80.8855C17.483 79.2536 16.667 77.2918 16.667 75.0001C16.667 72.7085 17.483 70.7466 19.1149 69.1147C20.7469 67.4828 22.7087 66.6668 25.0003 66.6668C27.292 66.6668 29.2538 67.4828 30.8857 69.1147C32.5177 70.7466 33.3337 72.7085 33.3337 75.0001C33.3337 77.2918 32.5177 79.2536 30.8857 80.8855C29.2538 82.5175 27.292 83.3335 25.0003 83.3335ZM58.3337 83.3335C56.042 83.3335 54.0802 82.5175 52.4482 80.8855C50.8163 79.2536 50.0003 77.2918 50.0003 75.0001C50.0003 72.7085 50.8163 70.7466 52.4482 69.1147C54.0802 67.4828 56.042 66.6668 58.3337 66.6668C60.6253 66.6668 62.5871 67.4828 64.2191 69.1147C65.851 70.7466 66.667 72.7085 66.667 75.0001C66.667 77.2918 65.851 79.2536 64.2191 80.8855C62.5871 82.5175 60.6253 83.3335 58.3337 83.3335ZM41.667 66.6668C39.3753 66.6668 37.4135 65.8508 35.7816 64.2189C34.1496 62.5869 33.3337 60.6251 33.3337 58.3335C33.3337 56.0418 34.1496 54.08 35.7816 52.448C37.4135 50.8161 39.3753 50.0001 41.667 50.0001C43.9587 50.0001 45.9205 50.8161 47.5524 52.448C49.1844 54.08 50.0003 56.0418 50.0003 58.3335C50.0003 60.6251 49.1844 62.5869 47.5524 64.2189C45.9205 65.8508 43.9587 66.6668 41.667 66.6668ZM75.0003 66.6668C72.7087 66.6668 70.7469 65.8508 69.1149 64.2189C67.483 62.5869 66.667 60.6251 66.667 58.3335C66.667 56.0418 67.483 54.08 69.1149 52.448C70.7469 50.8161 72.7087 50.0001 75.0003 50.0001C77.292 50.0001 79.2538 50.8161 80.8857 52.448C82.5177 54.08 83.3337 56.0418 83.3337 58.3335C83.3337 60.6251 82.5177 62.5869 80.8857 64.2189C79.2538 65.8508 77.292 66.6668 75.0003 66.6668ZM25.0003 50.0001C22.7087 50.0001 20.7469 49.1841 19.1149 47.5522C17.483 45.9203 16.667 43.9584 16.667 41.6668C16.667 39.3751 17.483 37.4133 19.1149 35.7814C20.7469 34.1494 22.7087 33.3334 25.0003 33.3334C27.292 33.3334 29.2538 34.1494 30.8857 35.7814C32.5177 37.4133 33.3337 39.3751 33.3337 41.6668C33.3337 43.9584 32.5177 45.9203 30.8857 47.5522C29.2538 49.1841 27.292 50.0001 25.0003 50.0001ZM58.3337 50.0001C56.042 50.0001 54.0802 49.1841 52.4482 47.5522C50.8163 45.9203 50.0003 43.9584 50.0003 41.6668C50.0003 39.3751 50.8163 37.4133 52.4482 35.7814C54.0802 34.1494 56.042 33.3334 58.3337 33.3334C60.6253 33.3334 62.5871 34.1494 64.2191 35.7814C65.851 37.4133 66.667 39.3751 66.667 41.6668C66.667 43.9584 65.851 45.9203 64.2191 47.5522C62.5871 49.1841 60.6253 50.0001 58.3337 50.0001ZM41.667 33.3334C39.3753 33.3334 37.4135 32.5175 35.7816 30.8855C34.1496 29.2536 33.3337 27.2918 33.3337 25.0001C33.3337 22.7084 34.1496 20.7466 35.7816 19.1147C37.4135 17.4828 39.3753 16.6668 41.667 16.6668C43.9587 16.6668 45.9205 17.4828 47.5524 19.1147C49.1844 20.7466 50.0003 22.7084 50.0003 25.0001C50.0003 27.2918 49.1844 29.2536 47.5524 30.8855C45.9205 32.5175 43.9587 33.3334 41.667 33.3334ZM75.0003 33.3334C72.7087 33.3334 70.7469 32.5175 69.1149 30.8855C67.483 29.2536 66.667 27.2918 66.667 25.0001C66.667 22.7084 67.483 20.7466 69.1149 19.1147C70.7469 17.4828 72.7087 16.6668 75.0003 16.6668C77.292 16.6668 79.2538 17.4828 80.8857 19.1147C82.5177 20.7466 83.3337 22.7084 83.3337 25.0001C83.3337 27.2918 82.5177 29.2536 80.8857 30.8855C79.2538 32.5175 77.292 33.3334 75.0003 33.3334Z" fill="url(#paint0_linear_231_1561)"/>
</g>
</g>
<defs>
<linearGradient id="paint0_linear_231_1561" x1="16.4587" y1="16.0308" x2="91.0918" y2="32.4932" gradientUnits="userSpaceOnUse">
<stop stop-color="#FFCE00"/>
<stop offset="1" stop-color="#6715E8"/>
</linearGradient>
</defs>
</svg>
