<svg width="111" height="101" viewBox="0 0 111 101" fill="none" xmlns="http://www.w3.org/2000/svg">
<g id="Icon / hacking-room-access-1">
<path d="M49.4399 40.4807C49.1846 40.4807 48.927 40.4111 48.6939 40.263C44.9266 37.8726 42.6777 33.7653 42.6777 29.2764C42.6777 22.1279 48.4298 16.3125 55.5005 16.3125C62.5712 16.3125 68.3232 22.1279 68.3232 29.2764C68.3232 33.7675 66.0743 37.8749 62.3092 40.263C61.6499 40.6827 60.7841 40.4807 60.3689 39.8141C59.956 39.1475 60.1536 38.2699 60.8129 37.8524C63.7544 35.9873 65.5104 32.78 65.5104 29.2742C65.5104 23.6945 61.0194 19.154 55.5027 19.154C49.986 19.154 45.4949 23.6945 45.4949 29.2742C45.4949 32.78 47.2509 35.9873 50.1924 37.8524C50.8518 38.2699 51.0494 39.1475 50.6364 39.8118C50.37 40.2428 49.9127 40.4784 49.4443 40.4784L49.4399 40.4807Z" fill="#FFCE00"/>
<path d="M55.501 52.1495C54.8328 52.1495 54.1668 52.0553 53.5163 51.8667C50.2885 50.9286 48.0352 47.9031 48.0352 44.5095V43.6476C48.0352 42.862 48.6656 42.2246 49.4426 42.2246H61.5594C62.3364 42.2246 62.9669 42.862 62.9669 43.6476V44.5095C62.9669 47.9053 60.7136 50.9308 57.4857 51.8667C56.8375 52.0553 56.1692 52.1495 55.501 52.1495ZM50.8834 45.0683C51.1054 46.9694 52.4463 48.5966 54.2956 49.133C55.0859 49.3619 55.9184 49.3619 56.7087 49.133C58.558 48.5966 59.8988 46.9671 60.1208 45.0683H50.8834Z" fill="#FFCE00"/>
<path d="M55.5012 14.3777C54.7242 14.3777 54.0938 13.7403 54.0938 12.9547V9.39954C54.0938 8.61398 54.7242 7.97656 55.5012 7.97656C56.2782 7.97656 56.9087 8.61398 56.9087 9.39954V12.9547C56.9087 13.7403 56.2782 14.3777 55.5012 14.3777Z" fill="#FFCE00"/>
<path d="M47.4821 16.548C46.9959 16.548 46.523 16.2944 46.2633 15.8365L44.5051 12.7594C44.1166 12.0793 44.3474 11.2085 45.0201 10.8157C45.6928 10.4252 46.5541 10.6563 46.9426 11.3364L48.7009 14.4135C49.0894 15.0936 48.8585 15.9645 48.1858 16.3572C47.9638 16.4874 47.7218 16.548 47.4843 16.548H47.4821Z" fill="#FFCE00"/>
<path d="M41.6053 22.4868C41.3678 22.4868 41.1258 22.4262 40.9038 22.296L37.858 20.5184C37.1853 20.1256 36.9544 19.2548 37.3429 18.5747C37.7314 17.8947 38.5928 17.6612 39.2655 18.054L42.3113 19.8316C42.984 20.2244 43.2148 21.0952 42.8263 21.7753C42.5666 22.2309 42.0937 22.4868 41.6076 22.4868H41.6053Z" fill="#FFCE00"/>
<path d="M39.4588 30.596H35.9446C35.1676 30.596 34.5371 29.9585 34.5371 29.173C34.5371 28.3874 35.1676 27.75 35.9446 27.75H39.4588C40.2358 27.75 40.8663 28.3874 40.8663 29.173C40.8663 29.9585 40.2358 30.596 39.4588 30.596Z" fill="#FFCE00"/>
<path d="M38.5637 40.4809C38.0775 40.4809 37.6046 40.2273 37.3449 39.7694C36.9564 39.0894 37.1873 38.2185 37.8599 37.8257L40.9058 36.0481C41.5784 35.6554 42.4398 35.8888 42.8283 36.5689C43.2168 37.2489 42.9859 38.1198 42.3133 38.5125L39.2674 40.2901C39.0454 40.4203 38.8034 40.4809 38.5659 40.4809H38.5637Z" fill="#FFCE00"/>
<path d="M72.4374 40.4809C72.1998 40.4809 71.9579 40.4203 71.7359 40.2901L68.69 38.5125C68.0174 38.1198 67.7865 37.2489 68.175 36.5689C68.5635 35.8888 69.4248 35.6554 70.0975 36.0481L73.1433 37.8257C73.816 38.2185 74.0469 39.0894 73.6584 39.7694C73.3986 40.2251 72.9258 40.4809 72.4396 40.4809H72.4374Z" fill="#FFCE00"/>
<path d="M75.0587 30.596H71.5422C70.7652 30.596 70.1348 29.9585 70.1348 29.173C70.1348 28.3874 70.7652 27.75 71.5422 27.75H75.0587C75.8357 27.75 76.4662 28.3874 76.4662 29.173C76.4662 29.9585 75.8357 30.596 75.0587 30.596Z" fill="#FFCE00"/>
<path d="M69.3957 22.4868C68.9095 22.4868 68.4367 22.2309 68.1769 21.7753C67.7884 21.0952 68.0193 20.2244 68.692 19.8316L71.7378 18.054C72.4127 17.6612 73.2718 17.8947 73.6603 18.5747C74.0488 19.2548 73.8179 20.1256 73.1453 20.5184L70.0994 22.296C69.8774 22.4262 69.6355 22.4868 69.3979 22.4868H69.3957Z" fill="#FFCE00"/>
<path d="M63.5185 16.548C63.2809 16.548 63.039 16.4874 62.817 16.3572C62.1443 15.9645 61.9134 15.0936 62.3019 14.4135L64.0602 11.3364C64.4487 10.6563 65.31 10.4252 65.9827 10.8157C66.6553 11.2085 66.8862 12.0793 66.4977 12.7594L64.7395 15.8365C64.4797 16.2921 64.0069 16.548 63.5207 16.548H63.5185Z" fill="#FFCE00"/>
<path d="M55.5001 44.4439C54.7253 44.4439 54.0948 43.8087 54.0926 43.0254L54.0682 34.2384L50.7759 30.0502C50.2587 29.3949 50.161 28.515 50.5229 27.7587C50.8847 27.0023 51.624 26.5332 52.4543 26.5332H58.4971C59.3252 26.5332 60.0644 27.0023 60.4263 27.7564C60.7881 28.5106 60.6949 29.3881 60.1821 30.0458C59.7003 30.663 58.8168 30.7685 58.2063 30.2837C57.9132 30.0502 57.7379 29.7248 57.6868 29.3792H53.8395L56.5746 32.8558C56.7722 33.1072 56.8787 33.4169 56.8809 33.7356L56.9076 43.0164C56.9098 43.802 56.2815 44.4394 55.5045 44.4416H55.5001V44.4439Z" fill="#FFCE00"/>
<path d="M69.0998 93.0208H41.8981C40.5106 93.0208 39.1986 92.4058 38.3017 91.3352C37.4048 90.2646 37.0208 88.8574 37.2472 87.4725L37.5847 85.4256C38.7479 78.3511 44.7419 73.2158 51.8348 73.2158H59.1631C66.256 73.2158 72.25 78.3511 73.4132 85.4256L73.7507 87.4725C73.9793 88.8574 73.5931 90.2646 72.6962 91.3352C71.7993 92.4058 70.4873 93.0208 69.0998 93.0208ZM51.8348 76.0618C46.1228 76.0618 41.2965 80.196 40.3619 85.8924L40.0244 87.9394C39.9334 88.4982 40.0866 89.0661 40.4485 89.497C40.8103 89.928 41.3387 90.1771 41.8981 90.1771H69.0998C69.6592 90.1771 70.1876 89.9302 70.5494 89.497C70.9113 89.0661 71.0667 88.496 70.9735 87.9394L70.636 85.8924C69.6992 80.196 64.8729 76.0618 59.1608 76.0618H51.8326H51.8348Z" fill="#FFCE00"/>
<path d="M55.5001 76.062C50.5273 76.062 46.4824 71.9726 46.4824 66.9451C46.4824 61.9175 50.5273 57.8281 55.5001 57.8281C60.4729 57.8281 64.5177 61.9175 64.5177 66.9451C64.5177 71.9726 60.4729 76.062 55.5001 76.062ZM55.5001 60.6696C52.079 60.6696 49.2952 63.4841 49.2952 66.9428C49.2952 70.4015 52.079 73.216 55.5001 73.216C58.9211 73.216 61.705 70.4015 61.705 66.9428C61.705 63.4841 58.9211 60.6696 55.5001 60.6696Z" fill="#FFCE00"/>
<path d="M33.1611 88.8802H18.66C17.2725 88.8802 15.9605 88.2652 15.0636 87.1946C14.1645 86.124 13.7827 84.7167 14.0091 83.3319L14.3466 81.285C15.5099 74.2105 21.5016 69.0752 28.5968 69.0752H35.925C38.0806 69.0752 40.1585 69.5465 42.101 70.4757C42.8025 70.8124 43.1022 71.6608 42.7715 72.37C42.4385 73.0793 41.6015 73.3823 40.8978 73.0479C39.3349 72.2982 37.661 71.9189 35.925 71.9189H28.5968C22.8847 71.9189 18.0584 76.0532 17.1238 81.7518L16.7864 83.7987C16.6953 84.3576 16.8485 84.9232 17.2104 85.3564C17.5722 85.7873 18.1006 86.0365 18.66 86.0365H33.1611C33.9381 86.0365 34.5686 86.6739 34.5686 87.4594C34.5686 88.245 33.9381 88.8824 33.1611 88.8824V88.8802Z" fill="#FFCE00"/>
<path d="M32.2598 71.9184C27.287 71.9184 23.2422 67.8291 23.2422 62.8015C23.2422 57.7739 27.287 53.6846 32.2598 53.6846C37.2326 53.6846 41.2775 57.7739 41.2775 62.8015C41.2775 67.8291 37.2326 71.9184 32.2598 71.9184ZM32.2598 56.5283C28.8388 56.5283 26.0549 59.3428 26.0549 62.8015C26.0549 66.2602 28.8388 69.0747 32.2598 69.0747C35.6808 69.0747 38.4647 66.2602 38.4647 62.8015C38.4647 59.3428 35.6808 56.5283 32.2598 56.5283Z" fill="#FFCE00"/>
<path d="M92.3414 88.8795H77.8137C77.0367 88.8795 76.4062 88.2421 76.4062 87.4565C76.4062 86.671 77.0367 86.0335 77.8137 86.0335H92.3414C92.9008 86.0335 93.4292 85.7866 93.791 85.3535C94.1529 84.9225 94.3083 84.3547 94.2151 83.7958L93.8776 81.7489C92.9408 76.0525 88.1167 71.916 82.4047 71.916H75.0764C73.3404 71.916 71.6665 72.2953 70.1014 73.0449C69.3999 73.3816 68.5607 73.0786 68.2277 72.3671C67.8947 71.6579 68.1944 70.8095 68.8982 70.4728C70.8407 69.5436 72.9186 69.0723 75.0764 69.0723H82.4047C89.4976 69.0723 95.4916 74.2076 96.6548 81.282L96.9923 83.329C97.2209 84.7138 96.8369 86.1211 95.9378 87.1917C95.0409 88.2623 93.7289 88.8772 92.3414 88.8772V88.8795Z" fill="#FFCE00"/>
<path d="M78.7422 71.9184C73.7694 71.9184 69.7246 67.8291 69.7246 62.8015C69.7246 57.7739 73.7694 53.6846 78.7422 53.6846C83.715 53.6846 87.7599 57.7739 87.7599 62.8015C87.7599 67.8291 83.715 71.9184 78.7422 71.9184ZM78.7422 56.5283C75.3212 56.5283 72.5373 59.3428 72.5373 62.8015C72.5373 66.2602 75.3212 69.0747 78.7422 69.0747C82.1633 69.0747 84.9472 66.2602 84.9472 62.8015C84.9472 59.3428 82.1633 56.5283 78.7422 56.5283Z" fill="#FFCE00"/>
</svg>
