<svg width="100" height="100" viewBox="0 0 100 100" fill="none" xmlns="http://www.w3.org/2000/svg">
<g id="Icon / handshake">
<mask id="mask0_231_1565" style="mask-type:alpha" maskUnits="userSpaceOnUse" x="0" y="0" width="100" height="100">
<rect id="Bounding box" width="100" height="100" fill="#D9D9D9"/>
</mask>
<g mask="url(#mask0_231_1565)">
<path id="handshake" d="M49.4792 83.3331C49.7569 83.3331 50.0347 83.2637 50.3125 83.1248C50.5903 82.9859 50.7986 82.847 50.9375 82.7081L85.1042 48.5415C85.9375 47.7081 86.5451 46.7706 86.9271 45.729C87.309 44.6873 87.5 43.6456 87.5 42.604C87.5 41.4929 87.309 40.4338 86.9271 39.4269C86.5451 38.4199 85.9375 37.5345 85.1042 36.7706L67.3958 19.0623C66.6319 18.229 65.7465 17.6213 64.7396 17.2394C63.7326 16.8574 62.6736 16.6665 61.5625 16.6665C60.5208 16.6665 59.4792 16.8574 58.4375 17.2394C57.3958 17.6213 56.4583 18.229 55.625 19.0623L54.4792 20.2081L62.1875 28.0206C63.2292 28.9929 63.9931 30.104 64.4792 31.354C64.9653 32.604 65.2083 33.9234 65.2083 35.3123C65.2083 38.229 64.2188 40.6769 62.2396 42.6561C60.2604 44.6352 57.8125 45.6248 54.8958 45.6248C53.5069 45.6248 52.1701 45.3817 50.8854 44.8956C49.6007 44.4095 48.4722 43.6804 47.5 42.7081L39.6875 34.9998L21.4583 53.229C21.25 53.4373 21.0938 53.663 20.9896 53.9061C20.8854 54.1491 20.8333 54.4095 20.8333 54.6873C20.8333 55.2429 21.0417 55.7463 21.4583 56.1977C21.875 56.6491 22.3611 56.8748 22.9167 56.8748C23.1944 56.8748 23.4722 56.8054 23.75 56.6665C24.0278 56.5276 24.2361 56.3887 24.375 56.2498L35.625 44.9998C36.3889 44.2359 37.3438 43.8366 38.4896 43.8019C39.6354 43.7672 40.625 44.1665 41.4583 44.9998C42.2222 45.7637 42.6042 46.7359 42.6042 47.9165C42.6042 49.097 42.2222 50.0692 41.4583 50.8331L30.3125 62.0831C30.1042 62.2915 29.9479 62.5172 29.8438 62.7602C29.7396 63.0033 29.6875 63.2637 29.6875 63.5415C29.6875 64.097 29.8958 64.5831 30.3125 64.9998C30.7292 65.4165 31.2153 65.6248 31.7708 65.6248C32.0486 65.6248 32.3264 65.5554 32.6042 65.4165C32.8819 65.2776 33.0903 65.1387 33.2292 64.9998L44.4792 53.854C45.2431 53.0901 46.1979 52.6908 47.3438 52.656C48.4896 52.6213 49.4792 53.0206 50.3125 53.854C51.0764 54.6179 51.4583 55.5901 51.4583 56.7706C51.4583 57.9512 51.0764 58.9234 50.3125 59.6873L39.1667 70.9373C38.9583 71.0762 38.8021 71.2845 38.6979 71.5623C38.5937 71.8401 38.5417 72.1179 38.5417 72.3956C38.5417 72.9512 38.75 73.4373 39.1667 73.854C39.5833 74.2706 40.0694 74.479 40.625 74.479C40.9028 74.479 41.1632 74.4269 41.4062 74.3227C41.6493 74.2186 41.875 74.0623 42.0833 73.854L53.3333 62.7081C54.0972 61.9442 55.0521 61.5449 56.1979 61.5102C57.3438 61.4755 58.3333 61.8748 59.1667 62.7081C59.9306 63.472 60.3125 64.4442 60.3125 65.6248C60.3125 66.8054 59.9306 67.7776 59.1667 68.5415L47.9167 79.7915C47.7083 79.9998 47.5521 80.2255 47.4479 80.4686C47.3438 80.7116 47.2917 80.972 47.2917 81.2498C47.2917 81.8054 47.5174 82.2915 47.9688 82.7081C48.4201 83.1248 48.9236 83.3331 49.4792 83.3331ZM49.375 91.6665C46.8056 91.6665 44.5312 90.8158 42.5521 89.1144C40.5729 87.413 39.4097 85.2776 39.0625 82.7081C36.7014 82.3609 34.7222 81.3887 33.125 79.7915C31.5278 78.1942 30.5556 76.2151 30.2083 73.854C27.8472 73.5067 25.8854 72.5172 24.3229 70.8852C22.7604 69.2533 21.8056 67.2915 21.4583 64.9998C18.8194 64.6526 16.6667 63.5067 15 61.5623C13.3333 59.6179 12.5 57.3262 12.5 54.6873C12.5 53.2984 12.7604 51.9616 13.2812 50.6769C13.8021 49.3922 14.5486 48.2637 15.5208 47.2915L33.75 29.0623C35.3472 27.4651 37.309 26.6665 39.6354 26.6665C41.9618 26.6665 43.9236 27.4651 45.5208 29.0623L53.3333 36.8748C53.4722 37.0831 53.6806 37.2394 53.9583 37.3435C54.2361 37.4477 54.5139 37.4998 54.7917 37.4998C55.4167 37.4998 55.9375 37.3088 56.3542 36.9269C56.7708 36.5449 56.9792 36.0415 56.9792 35.4165C56.9792 35.1387 56.9271 34.8609 56.8229 34.5831C56.7188 34.3054 56.5625 34.097 56.3542 33.9581L41.4583 19.0623C40.6944 18.229 39.809 17.6213 38.8021 17.2394C37.7951 16.8574 36.7361 16.6665 35.625 16.6665C34.5833 16.6665 33.5417 16.8574 32.5 17.2394C31.4583 17.6213 30.5208 18.229 29.6875 19.0623L15 33.854C14.375 34.479 13.8542 35.2081 13.4375 36.0415C13.0208 36.8748 12.7431 37.7081 12.6042 38.5415C12.4653 39.3748 12.4653 40.2255 12.6042 41.0936C12.7431 41.9616 13.0208 42.7776 13.4375 43.5415L7.39583 49.5831C6.21528 47.9859 5.34722 46.2324 4.79167 44.3227C4.23611 42.413 4.02778 40.4859 4.16667 38.5415C4.30556 36.597 4.79167 34.7047 5.625 32.8644C6.45833 31.0241 7.60417 29.3748 9.0625 27.9165L23.75 13.229C25.4167 11.6317 27.2743 10.4165 29.3229 9.58313C31.3715 8.7498 33.4722 8.33313 35.625 8.33313C37.7778 8.33313 39.8785 8.7498 41.9271 9.58313C43.9757 10.4165 45.7986 11.6317 47.3958 13.229L48.5417 14.3748L49.6875 13.229C51.3542 11.6317 53.2118 10.4165 55.2604 9.58313C57.309 8.7498 59.4097 8.33313 61.5625 8.33313C63.7153 8.33313 65.816 8.7498 67.8646 9.58313C69.9132 10.4165 71.7361 11.6317 73.3333 13.229L90.9375 30.8331C92.5347 32.4304 93.75 34.2706 94.5833 36.354C95.4167 38.4373 95.8333 40.5554 95.8333 42.7081C95.8333 44.8609 95.4167 46.9616 94.5833 49.0102C93.75 51.0588 92.5347 52.8817 90.9375 54.479L56.7708 88.5415C55.7986 89.5137 54.6701 90.2776 53.3854 90.8331C52.1007 91.3887 50.7639 91.6665 49.375 91.6665Z" fill="url(#paint0_linear_231_1565)"/>
</g>
</g>
<defs>
<linearGradient id="paint0_linear_231_1565" x1="3.83848" y1="7.5381" x2="105.51" y2="32.2184" gradientUnits="userSpaceOnUse">
<stop stop-color="#FFCE00"/>
<stop offset="1" stop-color="#6715E8"/>
</linearGradient>
</defs>
</svg>
