<svg width="100" height="100" viewBox="0 0 100 100" fill="none" xmlns="http://www.w3.org/2000/svg">
<g id="Icon / key">
<mask id="mask0_231_1564" style="mask-type:alpha" maskUnits="userSpaceOnUse" x="0" y="0" width="100" height="100">
<rect id="Bounding box" width="100" height="100" fill="#D9D9D9"/>
</mask>
<g mask="url(#mask0_231_1564)">
<path id="key" d="M29.167 58.3332C26.8753 58.3332 24.9135 57.5172 23.2816 55.8853C21.6496 54.2533 20.8337 52.2915 20.8337 49.9999C20.8337 47.7082 21.6496 45.7464 23.2816 44.1145C24.9135 42.4825 26.8753 41.6665 29.167 41.6665C31.4587 41.6665 33.4205 42.4825 35.0524 44.1145C36.6844 45.7464 37.5003 47.7082 37.5003 49.9999C37.5003 52.2915 36.6844 54.2533 35.0524 55.8853C33.4205 57.5172 31.4587 58.3332 29.167 58.3332ZM29.167 74.9999C22.2225 74.9999 16.3198 72.5693 11.4587 67.7082C6.59755 62.8471 4.16699 56.9443 4.16699 49.9999C4.16699 43.0554 6.59755 37.1527 11.4587 32.2915C16.3198 27.4304 22.2225 24.9999 29.167 24.9999C33.8198 24.9999 38.0385 26.1457 41.8232 28.4374C45.608 30.729 48.6114 33.7499 50.8337 37.4999H85.7295C86.285 37.4999 86.8232 37.604 87.3441 37.8124C87.8649 38.0207 88.3337 38.3332 88.7503 38.7499L97.0837 47.0832C97.5003 47.4999 97.7955 47.9513 97.9691 48.4374C98.1427 48.9235 98.2295 49.4443 98.2295 49.9999C98.2295 50.5554 98.1427 51.0763 97.9691 51.5624C97.7955 52.0485 97.5003 52.4999 97.0837 52.9165L83.8545 66.1457C83.5073 66.4929 83.0906 66.7707 82.6045 66.979C82.1184 67.1874 81.6323 67.3263 81.1462 67.3957C80.66 67.4652 80.1739 67.4304 79.6878 67.2915C79.2017 67.1527 78.7503 66.9096 78.3337 66.5624L72.917 62.4999L66.9795 66.979C66.6323 67.2568 66.2503 67.4652 65.8337 67.604C65.417 67.7429 65.0003 67.8124 64.5837 67.8124C64.167 67.8124 63.733 67.7429 63.2816 67.604C62.8302 67.4652 62.4309 67.2568 62.0837 66.979L55.7295 62.4999H50.8337C48.6114 66.2499 45.608 69.2707 41.8232 71.5624C38.0385 73.854 33.8198 74.9999 29.167 74.9999ZM29.167 66.6665C33.0559 66.6665 36.476 65.486 39.4274 63.1249C42.3788 60.7638 44.3406 57.7777 45.3128 54.1665H58.3337L64.3753 58.4374L72.917 52.0832L80.3128 57.8124L88.1253 49.9999L83.9587 45.8332H45.3128C44.3406 42.2221 42.3788 39.236 39.4274 36.8749C36.476 34.5138 33.0559 33.3332 29.167 33.3332C24.5837 33.3332 20.66 34.9652 17.3962 38.229C14.1323 41.4929 12.5003 45.4165 12.5003 49.9999C12.5003 54.5832 14.1323 58.5068 17.3962 61.7707C20.66 65.0346 24.5837 66.6665 29.167 66.6665Z" fill="url(#paint0_linear_231_1564)"/>
</g>
</g>
<defs>
<linearGradient id="paint0_linear_231_1564" x1="3.87312" y1="24.5229" x2="98.0778" y2="63.6143" gradientUnits="userSpaceOnUse">
<stop stop-color="#FFCE00"/>
<stop offset="1" stop-color="#6715E8"/>
</linearGradient>
</defs>
</svg>
