<svg width="128" height="128" viewBox="0 0 128 128" fill="none" xmlns="http://www.w3.org/2000/svg">
<path d="M68.1917 69.2158H72.4797C72.4797 69.2158 73.6317 69.9518 73.7277 70.0478C74.5597 70.9118 74.4957 75.3918 73.7277 76.3198C73.5677 76.5438 72.6397 77.1518 72.4797 77.1518H67.3597V79.4558H84.6077C86.7197 79.4558 89.8557 82.8798 89.8877 85.0558C89.5357 92.7038 90.5597 101.088 89.9517 108.64C89.7277 111.52 87.7437 114.016 84.9277 114.688L43.8397 114.784C40.8317 114.496 38.3677 111.776 38.1117 108.8C38.6557 101.312 37.3757 92.7678 38.1117 85.4078C38.3357 83.0078 40.8637 79.4558 43.4237 79.4558H60.6717V77.1518H55.5517C55.0077 77.1518 54.0157 76.0638 53.8877 75.4878C53.6637 74.6878 53.6957 71.6798 53.8877 70.8798C54.0477 70.2398 55.1677 69.2158 55.7757 69.2158H59.8397L40.0317 25.5998C39.8077 24.8638 39.4557 24.0638 39.3917 23.3278C39.0397 20.3198 40.7357 13.5678 44.4797 13.2158H83.1677C85.5997 13.3758 86.5277 14.6558 87.3917 16.7038C89.0877 20.7038 89.2157 23.8718 87.0717 27.7758L68.2237 69.2158H68.1917ZM86.7837 20.0958C86.4317 18.6878 85.9517 16.4158 84.8957 15.4238C84.7677 15.2958 83.8397 14.6878 83.7757 14.6878H46.2717L48.1597 20.1278H86.8157L86.7837 20.0958ZM61.5997 69.2158H65.8877L44.2557 14.8798C42.5597 14.9438 41.5677 18.4318 41.2157 19.8078C40.7997 21.3758 40.5117 22.6558 41.1517 24.2558L61.5997 69.2478V69.2158ZM79.0717 21.7918H48.9597L64.0957 60.0318L79.0397 21.7918H79.0717ZM87.1997 21.7918H80.7357L64.9277 62.1118C65.2477 64.0958 66.3357 66.0478 67.0397 67.9678L86.2077 25.8878C86.7197 24.5758 87.3597 23.2318 87.2317 21.7918H87.1997ZM72.5437 70.9438L56.0317 70.7198C54.8157 70.9438 55.1357 75.1998 55.6157 75.4878L72.0637 75.6158L72.5757 75.4238C72.9597 75.0398 72.9917 71.3278 72.5757 70.9118L72.5437 70.9438ZM65.6957 77.1518H62.3357V83.9358C62.3357 84.6718 65.6957 84.6718 65.6957 83.9358V77.1518ZM60.6717 80.9278H44.0637C44.0637 80.9278 42.5917 81.4078 42.3677 81.5038C40.6717 82.3358 39.8077 83.9998 39.5837 85.8238C40.0317 93.0558 38.9757 101.024 39.5837 108.192C39.8397 111.04 41.3757 112.928 44.2877 113.312C57.0237 112.576 70.7837 114.24 83.3917 113.312C86.6557 113.056 88.2557 111.168 88.5117 107.968C89.0877 100.544 88.2557 92.0638 88.2557 84.6078C87.9997 82.9438 85.6637 80.8958 84.0317 80.8958H67.4237C67.6477 84.5118 67.1037 86.3038 63.1357 85.9198C60.5437 85.6638 60.6717 82.9118 60.7357 80.8958L60.6717 80.9278Z" fill="#FFCD00"/>
<path d="M61.0888 107.904H44.8008C45.0888 103.584 47.8728 97.8876 52.8328 97.8556C57.7928 97.8236 60.8328 103.424 61.0888 107.904ZM59.2008 106.432C58.7528 101.216 53.1848 96.5436 48.8648 101.408C47.7128 102.688 46.7208 104.672 46.6568 106.432H59.2008Z" fill="#FFCD00"/>
<path d="M56.8323 88.0956C61.3123 93.1196 53.6003 100.128 49.0563 94.9116C44.5123 89.6956 52.3843 83.0716 56.8323 88.0956ZM52.8643 87.9036C47.9683 87.9996 48.2243 95.7436 53.4723 95.1356C57.7923 94.6556 57.4403 87.8076 52.8643 87.9036Z" fill="#FFCD00"/>
<path d="M65.5363 89.2485C64.7043 88.4485 65.7923 87.9045 66.6243 87.8405C71.7763 87.3925 77.5363 88.1925 82.7203 87.8405C83.5523 87.8405 84.2883 88.4165 83.6483 89.2165L82.7203 89.5365C77.5043 89.1845 71.7443 89.9845 66.6243 89.5365C66.3043 89.5365 65.7603 89.5045 65.5363 89.2805V89.2485Z" fill="#FFCD00"/>
<path d="M65.5362 94.8799C65.2482 94.6239 65.2802 94.0159 65.5362 93.7279C65.9522 93.5679 66.4002 93.5039 66.8482 93.4719C71.9682 93.0559 77.5682 93.7919 82.7522 93.4719C83.5842 93.4719 84.3202 94.0479 83.6802 94.8479L82.7522 95.1679C77.5362 94.8159 71.7762 95.6159 66.6562 95.1679C66.3362 95.1679 65.8242 95.1359 65.5682 94.9119L65.5362 94.8799Z" fill="#FFCD00"/>
<path d="M65.4715 104.96H83.5515C83.9355 104.96 84.1595 106.208 83.1355 106.432H65.8235C65.0875 106.08 65.2795 105.6 65.4715 104.96Z" fill="#FFCD00"/>
<path d="M65.791 99.3279H83.551C83.935 99.3279 84.095 100.512 83.295 100.736L65.727 100.608C64.959 100.256 65.215 99.7439 65.791 99.2959V99.3279Z" fill="#FFCD00"/>
</svg>
