<svg width="112" height="101" viewBox="0 0 112 101" fill="none" xmlns="http://www.w3.org/2000/svg">
<g id="Icon / live-demos-1">
<path d="M74.9451 32.7618C72.3556 32.7618 69.82 32.2052 67.5732 31.1458L63.4987 32.2164C62.6161 32.4498 61.6798 32.1805 61.0504 31.5184C60.4209 30.8563 60.2014 29.9046 60.4769 29.0338L61.4894 25.8399C60.394 24.0399 59.8184 22.0379 59.8184 20.0021C59.8184 12.9658 66.6033 7.24023 74.9451 7.24023C83.2868 7.24023 90.0718 12.9636 90.0718 20.0021C90.0718 27.0407 83.2868 32.7641 74.9451 32.7641V32.7618ZM67.7233 28.2168C67.9473 28.2168 68.1691 28.2707 68.3707 28.3739C70.3374 29.3839 72.611 29.9181 74.9428 29.9181C81.7188 29.9181 87.2315 25.4696 87.2315 20.0021C87.2315 14.5347 81.7188 10.0862 74.9428 10.0862C68.1668 10.0862 62.6542 14.5347 62.6542 20.0021C62.6542 21.6832 63.1918 23.3486 64.2088 24.8187C64.4596 25.1801 64.5291 25.6379 64.3947 26.0599L63.3643 29.3121L67.3604 28.2639C67.4792 28.2325 67.6001 28.2168 67.7211 28.2168H67.7233Z" fill="#FFCE00"/>
<path d="M45.3996 38.9635C40.8367 38.9635 37.125 35.2445 37.125 30.6748C37.125 26.1051 40.8367 22.3838 45.3996 22.3838C49.9624 22.3838 53.6719 26.1028 53.6719 30.6748C53.6719 35.2467 49.9602 38.9635 45.3996 38.9635ZM45.3996 25.2275C42.4024 25.2275 39.9653 27.6695 39.9653 30.6725C39.9653 33.6756 42.4024 36.1175 45.3996 36.1175C48.3967 36.1175 50.8338 33.6756 50.8338 30.6725C50.8338 27.6695 48.3967 25.2275 45.3996 25.2275Z" fill="#FFCE00"/>
<path d="M35.8791 56.798C35.0951 56.798 34.459 56.1606 34.459 55.375V50.4103C34.459 49.6247 35.0951 48.9873 35.8791 48.9873C36.6631 48.9873 37.2993 49.6247 37.2993 50.4103V55.375C37.2993 56.1606 36.6631 56.798 35.8791 56.798Z" fill="#FFCE00"/>
<path d="M61.9422 56.7974C61.1582 56.7974 60.522 56.16 60.522 55.3744V49.3301C60.522 45.3777 57.3121 42.1614 53.3675 42.1614H52.4827C52.0459 42.1614 51.6203 42.314 51.282 42.5901L46.298 46.6593C45.7761 47.0857 45.0257 47.0857 44.5038 46.6593L39.5198 42.5901C39.1815 42.314 38.7537 42.1614 38.3191 42.1614H37.4343C33.4897 42.1614 30.2798 45.3777 30.2798 49.3301V55.3744C30.2798 56.16 29.6436 56.7974 28.8596 56.7974C28.0756 56.7974 27.4395 56.16 27.4395 55.3744V49.3301C27.4395 43.8088 31.9217 39.3154 37.4343 39.3154H38.3191C39.4078 39.3154 40.4718 39.6947 41.314 40.3838L45.3998 43.7213L49.4855 40.3838C50.3278 39.6947 51.3918 39.3154 52.4804 39.3154H53.3652C58.8756 39.3154 63.3601 43.8066 63.3601 49.3301V55.3744C63.3601 56.16 62.7239 56.7974 61.9399 56.7974H61.9422Z" fill="#FFCE00"/>
<path d="M54.9202 56.798C54.1362 56.798 53.5 56.1606 53.5 55.375V50.4103C53.5 49.6247 54.1362 48.9873 54.9202 48.9873C55.7042 48.9873 56.3403 49.6247 56.3403 50.4103V55.375C56.3403 56.1606 55.7042 56.798 54.9202 56.798Z" fill="#FFCE00"/>
<path d="M86.7497 93.7596H25.2483C24.4643 93.7596 23.8281 93.1222 23.8281 92.3366V60.3712C23.8281 59.5857 24.4643 58.9482 25.2483 58.9482H86.7475C87.5315 58.9482 88.1676 59.5857 88.1676 60.3712V92.3366C88.1676 93.1222 87.5315 93.7596 86.7475 93.7596H86.7497ZM26.6684 90.9159H85.3296V61.7942H26.6684V90.9159Z" fill="#FFCE00"/>
<path d="M89.8926 61.7942H22.1057C21.3217 61.7942 20.6855 61.1568 20.6855 60.3712C20.6855 59.5857 21.3217 58.9482 22.1057 58.9482H89.8903C90.6743 58.9482 91.3105 59.5857 91.3105 60.3712C91.3105 61.1568 90.6743 61.7942 89.8903 61.7942H89.8926Z" fill="#FFCE00"/>
<path d="M75.3987 61.7938C74.6147 61.7938 73.9785 61.1564 73.9785 60.3708V46.1388C73.9785 45.3532 74.6147 44.7158 75.3987 44.7158C76.1827 44.7158 76.8188 45.3532 76.8188 46.1388V60.3708C76.8188 61.1564 76.1827 61.7938 75.3987 61.7938Z" fill="#FFCE00"/>
<path d="M71.2245 46.3005C68.7874 46.3005 66.8027 44.3142 66.8027 41.87C66.8027 39.4258 68.7874 37.4395 71.2245 37.4395C73.6616 37.4395 75.6462 39.4258 75.6462 41.87C75.6462 44.3142 73.6639 46.3005 71.2245 46.3005ZM71.2245 40.2854C70.3509 40.2854 69.6408 40.9969 69.6408 41.87C69.6408 42.7431 70.3509 43.4546 71.2245 43.4546C72.0981 43.4546 72.8059 42.7431 72.8059 41.87C72.8059 40.9969 72.0959 40.2854 71.2245 40.2854Z" fill="#FFCE00"/>
<path d="M78.5862 50.5252C78.2233 50.5252 77.8604 50.386 77.5827 50.1077L72.4127 44.9275C71.8572 44.3709 71.8572 43.4731 72.4127 42.9165C72.9683 42.3599 73.8643 42.3599 74.4198 42.9165L79.5897 48.0967C80.1452 48.6533 80.1452 49.5511 79.5897 50.1077C79.3119 50.386 78.9491 50.5252 78.5862 50.5252Z" fill="#FFCE00"/>
</svg>
