<svg width="100" height="100" viewBox="0 0 100 100" fill="none" xmlns="http://www.w3.org/2000/svg">
<g id="Icon / low_density">
<mask id="mask0_231_1443" style="mask-type:alpha" maskUnits="userSpaceOnUse" x="0" y="0" width="100" height="100">
<rect id="Bounding box" width="100" height="100" fill="#D9D9D9"/>
</mask>
<g mask="url(#mask0_231_1443)">
<path id="low_density" d="M12.5 87.5V45.8333H20.8333V79.1667H79.1667V20.8333H45.8333V12.5H87.5V87.5H12.5ZM12.5 37.5V29.1667H20.8333V37.5H12.5ZM12.5 20.8333V12.5H20.8333V20.8333H12.5ZM29.1667 54.1667V45.8333H37.5V54.1667H29.1667ZM29.1667 20.8333V12.5H37.5V20.8333H29.1667ZM45.8333 54.1667V45.8333H54.1667V54.1667H45.8333ZM45.8333 37.5V29.1667H54.1667V37.5H45.8333Z" fill="url(#paint0_linear_231_1443)"/>
</g>
</g>
<defs>
<linearGradient id="paint0_linear_231_1443" x1="12.2657" y1="11.7845" x2="96.2279" y2="30.3047" gradientUnits="userSpaceOnUse">
<stop stop-color="#FFCE00"/>
<stop offset="1" stop-color="#6715E8"/>
</linearGradient>
</defs>
</svg>
