<svg width="112" height="100" viewBox="0 0 112 100" fill="none" xmlns="http://www.w3.org/2000/svg">
<g id="Icon / networking-opportunities-1">
<path d="M9.57862 51.6908C8.96934 51.6908 8.3511 51.5553 7.7687 51.2664L3.47686 49.1442C2.50246 48.6642 1.77446 47.8353 1.4295 46.8086C1.08454 45.7842 1.1607 44.6886 1.64678 43.722L13.81 19.4931C14.8135 17.4975 17.2618 16.682 19.2756 17.6775L23.5697 19.7997C25.5812 20.7953 26.401 23.2264 25.3997 25.222L13.2365 49.4508C12.5242 50.8686 11.0794 51.6908 9.5831 51.6908H9.57862ZM17.4567 20.0708C17.002 20.0708 16.5652 20.3197 16.3479 20.7508L4.1847 44.9797C4.03686 45.2731 4.01446 45.6042 4.11974 45.9153C4.22502 46.2264 4.44454 46.4775 4.74022 46.6242L9.0343 48.7464C9.64582 49.0464 10.3873 48.7997 10.6919 48.1953L22.8551 23.9664C23.1597 23.3597 22.9089 22.622 22.2996 22.322L18.0055 20.1997C17.8285 20.1131 17.6404 20.0708 17.4567 20.0708Z" fill="#FFCE00"/>
<path d="M76.044 58.0441C75.2241 58.0441 74.4088 57.8552 73.6539 57.4819L56.0901 48.8041C55.3889 48.4574 55.1022 47.613 55.4517 46.9152C55.8011 46.2197 56.6545 45.9374 57.3557 46.2819L74.9195 54.9597C75.5265 55.2597 76.2142 55.3063 76.8526 55.093C77.4933 54.8797 78.0129 54.4308 78.3153 53.8308C78.6177 53.2308 78.6648 52.5485 78.4497 51.913C78.2347 51.2774 77.7822 50.7619 77.1774 50.4619L57.9941 40.9819C57.2929 40.6352 57.0062 39.7908 57.3557 39.093C57.7051 38.3952 58.5585 38.113 59.2597 38.4597L78.443 47.9397C79.7265 48.573 80.6853 49.6663 81.14 51.0152C81.5969 52.3641 81.4939 53.8108 80.8555 55.0841C80.2171 56.3574 79.115 57.3085 77.7553 57.7597C77.1953 57.9463 76.6174 58.0397 76.044 58.0397V58.0441Z" fill="#FFCE00"/>
<path d="M30.019 28.7486C27.9694 28.7486 25.8212 28.4597 24.0315 27.5752C23.3303 27.2286 23.0436 26.3841 23.3931 25.6863C23.7425 24.9908 24.5959 24.7063 25.2971 25.053C27.658 26.2197 31.0919 26.0197 33.5582 25.6463C36.6113 25.1819 39.4247 24.9752 42.1822 24.9752C42.9662 24.9775 43.5979 25.6108 43.5956 26.3886C43.5934 27.1641 42.9572 27.7908 42.1755 27.7908C42.106 27.7997 42.0343 27.7908 41.9627 27.7908C39.427 27.7908 36.8151 27.9997 33.986 28.4286C32.8123 28.6063 31.4369 28.7463 30.0167 28.7463L30.019 28.7486Z" fill="#FFCE00"/>
<path d="M75.9657 66.7643C75.1458 66.7643 74.3305 66.5754 73.5756 66.2021L52.5666 55.8221C51.8655 55.4754 51.5788 54.631 51.9282 53.9332C52.2777 53.2354 53.1311 52.9554 53.8322 53.2998L74.8412 63.6798C75.446 63.9798 76.1337 64.0265 76.7743 63.8132C77.4149 63.5998 77.9346 63.151 78.237 62.551C78.5394 61.951 78.5865 61.2687 78.3714 60.6332C78.1564 59.9976 77.7061 59.4821 77.0991 59.1821L56.0901 48.7998C55.389 48.4532 55.1023 47.6087 55.4517 46.911C55.8012 46.2154 56.6546 45.9332 57.3557 46.2776L78.3647 56.6598C79.6482 57.2932 80.6069 58.3865 81.0639 59.7354C81.5186 61.0843 81.4178 62.531 80.7794 63.8043C80.1388 65.0776 79.0367 66.0287 77.677 66.4798C77.117 66.6665 76.5413 66.7598 75.9657 66.7598V66.7643Z" fill="#FFCE00"/>
<path d="M72.4374 73.7773C71.6332 73.7773 70.8179 73.5973 70.0518 73.2195L55.4156 66.2351C54.71 65.8973 54.4121 65.0573 54.7526 64.3551C55.093 63.6528 55.9398 63.3617 56.6476 63.6973L71.3017 70.6906C72.5695 71.3173 74.0927 70.8106 74.7154 69.5706C75.0178 68.9706 75.0649 68.2884 74.8498 67.6528C74.6348 67.0173 74.1823 66.5017 73.5775 66.2017L52.5686 55.8217C51.8674 55.4751 51.5807 54.6306 51.9302 53.9328C52.2796 53.2351 53.133 52.9551 53.8342 53.2995L74.8431 63.6795C76.1266 64.3151 77.0854 65.4084 77.5401 66.7573C77.997 68.1062 77.894 69.5506 77.2556 70.8262C76.3171 72.6951 74.4131 73.7773 72.4396 73.7773H72.4374Z" fill="#FFCE00"/>
<path d="M62.6375 77.6928C61.8333 77.6928 61.0202 77.5128 60.2519 77.135L59.5821 76.8039C58.881 76.4572 58.5943 75.6128 58.9437 74.915C59.2932 74.2194 60.1466 73.9372 60.8477 74.2816L61.5175 74.6128C62.7674 75.2328 64.2906 74.7239 64.9133 73.4839C65.5361 72.2439 65.0253 70.7328 63.7754 70.1172L55.4314 66.2416C54.7213 65.9128 54.4145 65.0728 54.7482 64.3683C55.0797 63.6639 55.9242 63.3616 56.6365 63.6905L65.0119 67.5816C67.6932 68.9061 68.7751 72.1105 67.4557 74.7416C66.5172 76.6105 64.6132 77.6928 62.6397 77.6928H62.6375Z" fill="#FFCE00"/>
<path d="M21.9887 57.5082C21.6773 57.5082 21.3659 57.4082 21.1039 57.2016C19.5963 56.0082 18.4831 54.8349 17.7954 53.7171C16.2879 51.2615 13.0264 49.4282 12.9951 49.4104C12.3119 49.0304 12.0677 48.1727 12.4507 47.4949C12.8338 46.8171 13.6984 46.5749 14.3794 46.9527C14.5384 47.0415 18.3218 49.1571 20.2213 52.2549C20.7275 53.0793 21.6437 54.0282 22.8757 55.0015C23.4872 55.486 23.588 56.3727 23.0997 56.9816C22.8197 57.3304 22.4053 57.5104 21.9887 57.5104V57.5082Z" fill="#FFCE00"/>
<path d="M102.612 51.0492C101.23 51.0492 99.8819 50.3537 99.1158 49.0981L85.015 25.9248C83.8547 24.0159 84.4729 21.527 86.3971 20.3737L90.503 17.9137C92.4272 16.7604 94.936 17.3759 96.0985 19.2848L110.199 42.4559C111.36 44.3648 110.739 46.8537 108.817 48.007L104.711 50.467C104.055 50.8604 103.329 51.047 102.612 51.047V51.0492ZM92.6108 20.1492C92.3891 20.1492 92.1696 20.2092 91.9724 20.327L87.8665 22.787C87.2841 23.1359 87.096 23.8915 87.4476 24.4715L101.548 47.6426C101.9 48.2204 102.664 48.407 103.246 48.0581L107.352 45.5981C107.635 45.4292 107.834 45.1604 107.915 44.8404C107.993 44.5226 107.944 44.1937 107.773 43.9115L93.6726 20.7404C93.5024 20.4604 93.2313 20.2626 92.911 20.1826C92.8124 20.1581 92.7116 20.147 92.6131 20.147L92.6108 20.1492Z" fill="#FFCE00"/>
<path d="M58.6282 41.1336C58.1466 41.1336 57.6784 40.8914 57.4118 40.4536C57.0064 39.7892 57.2214 38.9225 57.8934 38.5203L61.5536 36.3292C62.2256 35.9269 63.097 36.1403 63.5024 36.8069C63.9078 37.4714 63.6928 38.338 63.0208 38.7403L59.3606 40.9314C59.1299 41.0692 58.879 41.1336 58.6282 41.1336Z" fill="#FFCE00"/>
<path d="M46.0195 40.3753C43.3449 40.3753 40.7443 39.0131 39.2972 36.6308C38.6902 35.6331 38.5401 34.4197 38.8851 33.3042C39.23 32.1886 40.0409 31.2686 41.1071 30.7797L55.4275 24.222C56.6147 23.6775 57.9183 23.5242 59.1951 23.7731L73.8022 26.6086C73.8895 26.6264 81.2076 28.0731 85.0985 25.7442C85.7683 25.342 86.6419 25.5553 87.0473 26.222C87.4527 26.8886 87.2377 27.7531 86.5657 28.1553C81.7228 31.0575 73.5871 29.4397 73.2422 29.3686L58.6486 26.5353C57.9587 26.3975 57.2553 26.4842 56.6169 26.7775L42.2966 33.3353C41.9561 33.4908 41.7075 33.7731 41.5977 34.1286C41.4879 34.4842 41.5327 34.8553 41.7276 35.1753C42.9955 37.2642 45.6633 38.122 47.9257 37.1731L55.0691 34.1775C55.3804 34.0464 55.7276 34.0286 56.0479 34.1308L62.6828 36.202C63.431 36.4353 63.8454 37.2264 63.6102 37.9686C63.375 38.7108 62.5798 39.1242 61.8294 38.8886L55.6918 36.9731L49.03 39.7686C48.0534 40.1797 47.0275 40.3753 46.015 40.3753H46.0195Z" fill="#FFCE00"/>
<path d="M86.6946 60.956C86.213 60.956 85.7448 60.7138 85.4782 60.276C85.0728 59.6094 85.2878 58.7449 85.9598 58.3427L87.4046 57.4783C88.4754 56.7427 91.3582 54.4738 92.3842 52.4494C94.0261 49.2116 97.6213 46.7983 97.7736 46.696C98.4254 46.2627 99.308 46.4383 99.7426 47.0827C100.179 47.7294 100.005 48.6049 99.3528 49.036C99.2722 49.0894 96.2101 51.1671 94.9198 53.7138C93.3429 56.8271 89.1563 59.7005 88.9794 59.8205C88.957 59.836 88.9323 59.8494 88.9099 59.8649L87.4293 60.7516C87.1986 60.8894 86.9454 60.9538 86.6968 60.9538L86.6946 60.956Z" fill="#FFCE00"/>
<path d="M31.9792 64.5709C31.8022 64.5709 31.623 64.562 31.4438 64.5442C30.0169 64.4042 28.7289 63.7242 27.8172 62.6242C25.9379 60.3531 26.2716 56.9887 28.5587 55.1242L32.4496 51.9531C34.7388 50.0909 38.1302 50.4198 40.0096 52.6887C40.919 53.7887 41.3446 55.1754 41.2035 56.5909C41.0624 58.0065 40.3769 59.2842 39.2681 60.1887L35.3772 63.3598C34.4073 64.1487 33.2179 64.5709 31.9792 64.5709ZM35.8588 53.562C35.2921 53.562 34.7232 53.7487 34.2528 54.1309L30.3619 57.302C29.2822 58.1798 29.1254 59.7665 30.0124 60.8376C30.4425 61.3553 31.0496 61.6776 31.7216 61.742C32.3891 61.8109 33.0521 61.6109 33.574 61.1842L37.4672 58.0131C37.9891 57.5865 38.3139 56.9842 38.3788 56.3176C38.446 55.6509 38.2444 54.9976 37.8166 54.4798C37.3171 53.8754 36.5891 53.562 35.8588 53.562Z" fill="#FFCE00"/>
<path d="M35.7057 71.6734C34.1534 71.6734 32.61 71.0112 31.5505 69.7312C30.6411 68.6312 30.2155 67.2445 30.3566 65.829C30.4977 64.4134 31.1832 63.1356 32.292 62.2312L38.7521 56.969C41.0436 55.1045 44.4328 55.4379 46.3121 57.7045C47.2216 58.8045 47.6472 60.1912 47.506 61.6067C47.3649 63.0223 46.6795 64.3001 45.5707 65.2045L39.1105 70.4667C38.1137 71.2801 36.9064 71.6734 35.708 71.6734H35.7057ZM42.1569 58.5734C41.5902 58.5734 41.0212 58.7601 40.5508 59.1423L34.0907 64.4045C33.5688 64.8312 33.244 65.4334 33.179 66.1001C33.1118 66.7667 33.3134 67.4201 33.7412 67.9379C34.6283 69.009 36.2254 69.1667 37.3051 68.2845L43.7652 63.0223C44.2872 62.5956 44.612 61.9934 44.6769 61.3267C44.7441 60.6601 44.5425 60.0067 44.1147 59.489C43.6152 58.8845 42.8872 58.5712 42.1569 58.5712V58.5734Z" fill="#FFCE00"/>
<path d="M41.573 77.044C41.3961 77.044 41.2169 77.0351 41.0399 77.0173C39.6108 76.8773 38.325 76.1973 37.4133 75.0951C36.5039 73.9951 36.0783 72.6106 36.2172 71.1928C36.3583 69.7751 37.046 68.4995 38.1548 67.5951L42.917 63.7151C45.2085 61.8506 48.5977 62.1839 50.477 64.4506C52.3564 66.7217 52.0226 70.0862 49.7356 71.9506L44.9733 75.8306C44.0034 76.6195 42.814 77.0417 41.5753 77.0417L41.573 77.044ZM46.3263 65.3239C45.7596 65.3239 45.1906 65.5106 44.7202 65.8928L39.958 69.7728C39.4361 70.1995 39.1113 70.8017 39.0441 71.4684C38.9791 72.1373 39.1785 72.7906 39.6085 73.3084C40.0386 73.8284 40.6434 74.1484 41.3177 74.2151C41.9874 74.2862 42.6482 74.0839 43.1701 73.6573L47.9324 69.7773C49.0121 68.8973 49.1689 67.3128 48.2818 66.2417C47.7823 65.6373 47.0543 65.3262 46.3241 65.3262L46.3263 65.3239Z" fill="#FFCE00"/>
<path d="M47.02 82.744C45.4677 82.744 43.9266 82.0817 42.8648 80.8018C40.9855 78.5306 41.317 75.1662 43.6063 73.3018L47.4971 70.1306C48.6059 69.2262 50.0082 68.8084 51.4306 68.944C52.8597 69.084 54.1455 69.7662 55.0571 70.8662C55.9666 71.9662 56.3922 73.3506 56.2533 74.7684C56.1122 76.1862 55.4245 77.4618 54.3157 78.3662L50.4248 81.5373C49.428 82.3506 48.2207 82.7462 47.0223 82.7462L47.02 82.744ZM50.9019 71.7351C50.3173 71.7351 49.7573 71.9329 49.3003 72.3062L45.4072 75.4773C44.8853 75.904 44.5605 76.504 44.4933 77.1729C44.4283 77.8418 44.6277 78.4929 45.0578 79.0129C45.4879 79.5306 46.0927 79.8529 46.7669 79.9173C47.4389 79.984 48.0975 79.784 48.6194 79.3573L52.5125 76.1862C53.0344 75.7595 53.3592 75.1595 53.4264 74.4906C53.4914 73.824 53.292 73.1706 52.8619 72.6529C52.4319 72.1329 51.8271 71.8129 51.1528 71.7462C51.0699 71.7373 50.9848 71.7351 50.9019 71.7351Z" fill="#FFCE00"/>
</svg>
