
<svg fill="none" xmlns="http://www.w3.org/2000/svg" width="41.41" height="42.16" viewBox="0 0 41.41 42.16">
<g id="Icon / onelab">
<mask id="mask0_231_1568" style="mask-type:alpha" maskUnits="userSpaceOnUse" x="0" y="0" width="100" height="100">
<rect id="Bounding box" width="100" height="100" fill="#D9D9D9"/>
</mask>
<g mask="url(#mask0_231_1568)">
<path id="onelab" d="M19.85,4.03s0,0,0,0c0,0,0,0,0,0,0,0,0,0,0,0C10.81,4.03,3.47,11.55,3.47,20.8s7.35,16.76,16.38,16.76c0,0,0,0,0,0,0,0,0,0,0,0,0,0,0,0,0,0,9.03,0,16.38-7.52,16.38-16.76S28.88,4.03,19.85,4.03ZM34.19,19.8h-5.67c-.07-2.5-.41-4.84-.97-6.91,1.27-.36,2.45-.8,3.5-1.33,1.8,2.29,2.94,5.14,3.14,8.24ZM29.64,10.02c-.83.38-1.74.7-2.71.97-.58-1.56-1.29-2.93-2.11-4.01,1.8.69,3.44,1.72,4.82,3.05ZM20.85,19.8v-3.5c1.19-.36,2.11-1.35,2.39-2.59.8-.09,1.58-.21,2.34-.37.53,1.93.86,4.12.93,6.45h-5.67ZM26.51,21.8c-.05,1.42-.2,2.78-.42,4.07-1.3.07-2.41.87-2.95,2.01-.75-.08-1.52-.15-2.3-.17v-5.91h5.67ZM20.85,6.22c1.63.57,3.1,2.48,4.13,5.21-.6.11-1.23.2-1.86.28-.37-1.05-1.21-1.86-2.27-2.18v-3.31ZM18.85,6.22v3.31c-1.05.32-1.89,1.13-2.27,2.18-.63-.07-1.25-.16-1.86-.28,1.03-2.73,2.49-4.64,4.13-5.21ZM14.88,6.97c-.82,1.09-1.53,2.45-2.11,4.01-.97-.27-1.88-.59-2.71-.97,1.38-1.32,3.02-2.36,4.82-3.05ZM14.65,20.8c0,1.41-1.11,2.55-2.49,2.55s-2.49-1.14-2.49-2.55,1.11-2.55,2.49-2.55,2.49,1.14,2.49,2.55ZM8.65,11.55c1.05.53,2.24.97,3.5,1.33-.37,1.38-.64,2.88-.8,4.47-1.22.29-2.17,1.24-2.53,2.45h-3.32c.21-3.11,1.35-5.96,3.14-8.25ZM5.51,21.8h3.32c.35,1.21,1.31,2.15,2.53,2.45.16,1.58.43,3.09.8,4.47-1.27.36-2.45.8-3.5,1.33-1.8-2.29-2.94-5.14-3.14-8.25ZM10.05,31.58c.83-.38,1.74-.7,2.71-.97.58,1.57,1.29,2.93,2.11,4.01-1.8-.69-3.44-1.72-4.82-3.05ZM18.85,35.37c-1.63-.57-3.1-2.48-4.13-5.21,1.32-.25,2.7-.41,4.13-.46v5.67ZM18.85,27.7c-1.63.05-3.22.24-4.73.54-.35-1.27-.6-2.67-.76-4.13,1.03-.39,1.82-1.25,2.13-2.32h3.36v5.91ZM18.85,19.8h-3.36c-.31-1.08-1.11-1.94-2.13-2.32.16-1.46.41-2.86.76-4.13.76.15,1.54.27,2.34.37.28,1.24,1.2,2.22,2.39,2.59v3.5ZM19.85,15.46c-1.37,0-2.49-1.14-2.49-2.55s1.11-2.55,2.49-2.55,2.49,1.14,2.49,2.55-1.11,2.55-2.49,2.55ZM20.85,35.37v-5.67c.67.02,1.34.08,1.99.15.12.92.57,1.72,1.24,2.28-.91,1.67-2.02,2.82-3.23,3.24ZM23.79,29.4c0-1.41,1.11-2.55,2.49-2.55s2.49,1.14,2.49,2.55-1.11,2.55-2.49,2.55-2.49-1.14-2.49-2.55ZM24.82,34.62c.39-.51.75-1.09,1.08-1.71.13.01.25.04.39.04,1.2,0,2.26-.62,2.89-1.56.15.06.32.12.47.19-1.38,1.32-3.02,2.36-4.82,3.05ZM31.04,30.04c-.4-.2-.84-.38-1.28-.56,0-.03,0-.06,0-.09,0-1.3-.7-2.43-1.72-3.05.25-1.44.42-2.96.46-4.56h5.67c-.21,3.11-1.35,5.96-3.14,8.25Z" fill="url(#paint0_linear_231_1568)"/>
</g>
</g>
<defs>
<linearGradient id="paint0_linear_231_1568" x1="8.28742" y1="9.82364" x2="99.5067" y2="29.9446" gradientUnits="userSpaceOnUse">
<stop stop-color="#FFCE00"/>
<stop offset="1" stop-color="#6715E8"/>
</linearGradient>
</defs>
</svg>
