<svg width="111" height="100" viewBox="0 0 111 100" fill="none" xmlns="http://www.w3.org/2000/svg">
<g id="Icon / participant-resources-1">
<path d="M48.3294 17.7441H36.7344V29.3508H48.3294V17.7441ZM39.3029 26.7775V20.3153H45.7609V26.7775H39.3029Z" fill="#FFCE00"/>
<path d="M42.9339 36.002H36.6602V38.5731H42.9339V36.002Z" fill="#FFCE00"/>
<path d="M80.3653 36.002H46.8145V38.5731H80.3653V36.002Z" fill="#FFCE00"/>
<path d="M42.9339 43.1553H36.6602V45.7264H42.9339V43.1553Z" fill="#FFCE00"/>
<path d="M80.3653 43.1553H46.8145V45.7264H80.3653V43.1553Z" fill="#FFCE00"/>
<path d="M42.9339 50.3086H36.6602V52.8797H42.9339V50.3086Z" fill="#FFCE00"/>
<path d="M80.3653 50.3086H46.8145V52.8797H80.3653V50.3086Z" fill="#FFCE00"/>
<path d="M42.9339 57.46H36.6602V60.0311H42.9339V57.46Z" fill="#FFCE00"/>
<path d="M80.3653 57.46H46.8145V60.0311H80.3653V57.46Z" fill="#FFCE00"/>
<path d="M42.9339 64.6133H36.6602V67.1844H42.9339V64.6133Z" fill="#FFCE00"/>
<path d="M80.3653 64.6133H46.8145V67.1844H80.3653V64.6133Z" fill="#FFCE00"/>
<path d="M42.9339 71.7666H36.6602V74.3377H42.9339V71.7666Z" fill="#FFCE00"/>
<path d="M80.3653 71.7666H46.8145V74.3377H80.3653V71.7666Z" fill="#FFCE00"/>
<path d="M70.5286 8.53347H31.7785C30.3643 8.53347 29.2121 9.68681 29.2121 11.1024V15.309H25.0097C23.5955 15.309 22.4434 16.4624 22.4434 17.8779V88.9001C22.4434 90.3157 23.5955 91.469 25.0097 91.469H79.2243C80.6384 91.469 81.7884 90.3157 81.7884 88.9001V84.6935H85.9931C87.4072 84.6935 88.5572 83.5401 88.5572 82.1246V26.5757L70.5286 8.53125V8.53347ZM70.5197 26.7779V12.1579L85.1273 26.7801H70.5197V26.7779ZM31.7785 84.6912H79.2199L79.2243 88.8935L25.0119 88.8979V17.8779H29.2121V82.1224C29.2121 83.5379 30.3643 84.6912 31.7785 84.6912ZM31.7785 11.1024H67.9489V29.349H85.9886L85.9931 82.1179L31.7807 82.1224V11.1024H31.7785Z" fill="#FFCE00"/>
</svg>
