<svg width="111" height="100" viewBox="0 0 111 100" fill="none" xmlns="http://www.w3.org/2000/svg">
<g id="Icon / private-meeting-room-bookings-1">
<path d="M68.923 40.6866C68.2348 40.6866 67.6331 40.1821 67.5332 39.4799L66.9427 35.4021C66.4565 32.0466 63.5372 29.5177 60.1517 29.5177H50.8499C47.4644 29.5177 44.5451 32.0466 44.059 35.4021L43.4684 39.4821C43.3574 40.251 42.6515 40.7866 41.8745 40.6733C41.1063 40.5621 40.5735 39.8488 40.6845 39.0777L41.2751 34.9999C41.9588 30.271 46.0747 26.7021 50.8499 26.7021H60.1517C64.927 26.7021 69.0428 30.2688 69.7266 34.9999L70.3171 39.0777C70.4281 39.8488 69.8953 40.5621 69.1272 40.6733C69.0584 40.6844 68.9895 40.6888 68.923 40.6888V40.6866Z" fill="#FFCE00"/>
<path d="M55.5016 29.5175C51.5522 29.5175 48.3398 26.3019 48.3398 22.3486C48.3398 18.3952 51.5522 15.1797 55.5016 15.1797C59.4509 15.1797 62.6633 18.3952 62.6633 22.3486C62.6633 26.3019 59.4509 29.5175 55.5016 29.5175ZM55.5016 17.993C53.104 17.993 51.1526 19.9464 51.1526 22.3464C51.1526 24.7464 53.104 26.6997 55.5016 26.6997C57.8992 26.6997 59.8505 24.7464 59.8505 22.3464C59.8505 19.9464 57.8992 17.993 55.5016 17.993Z" fill="#FFCE00"/>
<path d="M44.1099 84.0178C41.6657 84.0178 39.5345 82.2756 39.0461 79.8778L36.26 66.1934H25.7705C22.2362 66.1934 19.3613 63.3156 19.3613 59.7778V35.3111C19.3613 31.6622 22.325 28.6934 25.9703 28.6934H26.9804C30.5546 28.6934 33.6093 31.1289 34.4085 34.6156L36.2844 42.8H42.5714C45.1444 42.8 47.2379 44.8956 47.2379 47.4711C47.2379 50.0467 45.1444 52.1422 42.5714 52.1422H31.2139C29.398 52.1422 27.7973 50.9156 27.3245 49.1622L26.0147 44.3111C25.8126 43.56 26.2566 42.7867 27.0048 42.5845C27.7551 42.38 28.5277 42.8245 28.7297 43.5756L30.0417 48.4267C30.1838 48.9556 30.6678 49.3267 31.2161 49.3267H42.5737C43.5948 49.3267 44.4273 48.4956 44.4273 47.4711C44.4273 46.4467 43.5971 45.6156 42.5737 45.6156H35.1677C34.5128 45.6156 33.9423 45.1623 33.7958 44.5223L31.669 35.2445C31.1651 33.0445 29.2381 31.5089 26.9826 31.5089H25.9725C23.879 31.5089 22.1763 33.2134 22.1763 35.3089V59.7756C22.1763 61.7622 23.7902 63.3756 25.7727 63.3756H37.4099C38.0781 63.3756 38.6553 63.8467 38.7885 64.5023L41.8033 79.3134C42.0253 80.4067 42.9954 81.2 44.1099 81.2C44.8003 81.2 45.453 80.9 45.9014 80.3734C46.3499 79.8489 46.5452 79.1556 46.4387 78.4734L43.6481 60.7934C43.3684 59.0245 41.8677 57.74 40.0784 57.74H32.4971C31.7201 57.74 31.0896 57.1089 31.0896 56.3311C31.0896 55.5534 31.7201 54.9222 32.4971 54.9222H40.0784C43.2596 54.9222 45.9303 57.2067 46.4276 60.3511L49.2181 78.0311C49.4534 79.5289 49.025 81.0467 48.0415 82.2C47.058 83.3511 45.6261 84.0134 44.1121 84.0134L44.1099 84.0178Z" fill="#FFCE00"/>
<path d="M26.7124 31.5114C22.7009 31.5114 19.4375 28.2448 19.4375 24.2292C19.4375 20.2137 22.7009 16.9492 26.7124 16.9492C30.724 16.9492 33.9874 20.2159 33.9874 24.2292C33.9874 28.2426 30.724 31.5114 26.7124 31.5114ZM26.7124 19.7648C24.2527 19.7648 22.2525 21.767 22.2525 24.2292C22.2525 26.6914 24.2527 28.6937 26.7124 28.6937C29.1722 28.6937 31.1724 26.6914 31.1724 24.2292C31.1724 21.767 29.1722 19.7648 26.7124 19.7648Z" fill="#FFCE00"/>
<path d="M32.4615 71.9518H24.0588C18.0004 71.9518 13.0742 67.0185 13.0742 60.954V36.694C13.0742 35.9163 13.7047 35.2852 14.4817 35.2852C15.2587 35.2852 15.8892 35.9163 15.8892 36.694V60.954C15.8892 65.4652 19.5544 69.1363 24.061 69.1363H32.4637C33.2407 69.1363 33.8712 69.7674 33.8712 70.5452C33.8712 71.3229 33.2407 71.954 32.4637 71.954L32.4615 71.9518Z" fill="#FFCE00"/>
<path d="M24.0579 84.823C23.2809 84.823 22.6504 84.1918 22.6504 83.4141V70.5407C22.6504 69.7629 23.2809 69.1318 24.0579 69.1318C24.8349 69.1318 25.4654 69.7629 25.4654 70.5407V83.4141C25.4654 84.1918 24.8349 84.823 24.0579 84.823Z" fill="#FFCE00"/>
<path d="M32.4609 84.8227H15.6555C14.8785 84.8227 14.248 84.1915 14.248 83.4138C14.248 82.636 14.8785 82.0049 15.6555 82.0049H32.4609C33.2379 82.0049 33.8684 82.636 33.8684 83.4138C33.8684 84.1915 33.2379 84.8227 32.4609 84.8227Z" fill="#FFCE00"/>
<path d="M66.8899 84.018C65.3759 84.018 63.9439 83.358 62.9605 82.2046C61.977 81.0513 61.5486 79.5335 61.7839 78.038L64.5744 60.358C65.0717 57.2113 67.7424 54.9291 70.9236 54.9291H78.5049C79.2819 54.9291 79.9124 55.5602 79.9124 56.338C79.9124 57.1158 79.2819 57.7469 78.5049 57.7469H70.9236C69.1343 57.7469 67.6314 59.0313 67.3539 60.8002L64.5633 78.4802C64.4568 79.1624 64.6521 79.8535 65.0983 80.3802C65.5468 80.9046 66.1995 81.2069 66.8877 81.2069C68.0021 81.2069 68.9723 80.4135 69.1965 79.3202L72.2112 64.5091C72.3444 63.8535 72.9216 63.3824 73.5898 63.3824H85.2271C87.2118 63.3824 88.8235 61.7669 88.8235 59.7824V35.3158C88.8235 33.2202 87.1208 31.5158 85.0273 31.5158H84.0172C81.7617 31.5158 79.8347 33.0513 79.3308 35.2513L77.204 44.5291C77.0575 45.1691 76.4892 45.6224 75.8321 45.6224H68.4261C67.4049 45.6224 66.5724 46.4535 66.5724 47.478C66.5724 48.5024 67.4027 49.3335 68.4261 49.3335H79.7837C80.332 49.3335 80.816 48.9624 80.958 48.4335L82.2678 43.5824C82.4698 42.8313 83.2424 42.3891 83.9928 42.5913C84.7431 42.7958 85.1849 43.5669 84.9829 44.318L83.6731 49.1691C83.198 50.9246 81.5996 52.1491 79.7837 52.1491H68.4261C65.8532 52.1491 63.7597 50.0535 63.7597 47.478C63.7597 44.9024 65.8532 42.8069 68.4261 42.8069H74.7132L76.5891 34.6224C77.3883 31.1358 80.443 28.7002 84.0172 28.7002H85.0273C88.6725 28.7002 91.6362 31.6691 91.6362 35.318V59.7846C91.6362 63.3224 88.7613 66.2002 85.2271 66.2002H74.7376L71.9515 79.8846C71.4631 82.2846 69.3319 84.0246 66.8877 84.0246L66.8899 84.018Z" fill="#FFCE00"/>
<path d="M84.2886 31.5114C80.2771 31.5114 77.0137 28.2448 77.0137 24.2292C77.0137 20.2137 80.2771 16.9492 84.2886 16.9492C88.3001 16.9492 91.5636 20.2159 91.5636 24.2292C91.5636 28.2426 88.3001 31.5114 84.2886 31.5114ZM84.2886 19.7648C81.8288 19.7648 79.8286 21.767 79.8286 24.2292C79.8286 26.6914 81.8288 28.6937 84.2886 28.6937C86.7484 28.6937 88.7486 26.6914 88.7486 24.2292C88.7486 21.767 86.7484 19.7648 84.2886 19.7648Z" fill="#FFCE00"/>
<path d="M86.941 71.9511H78.5383C77.7613 71.9511 77.1309 71.32 77.1309 70.5422C77.1309 69.7645 77.7613 69.1333 78.5383 69.1333H86.941C91.4476 69.1333 95.1129 65.4622 95.1129 60.9511V36.6911C95.1129 35.9133 95.7433 35.2822 96.5203 35.2822C97.2973 35.2822 97.9278 35.9133 97.9278 36.6911V60.9511C97.9278 67.0156 92.9994 71.9489 86.9433 71.9489L86.941 71.9511Z" fill="#FFCE00"/>
<path d="M86.9407 84.823C86.1637 84.823 85.5332 84.1918 85.5332 83.4141V70.5407C85.5332 69.7629 86.1637 69.1318 86.9407 69.1318C87.7177 69.1318 88.3482 69.7629 88.3482 70.5407V83.4141C88.3482 84.1918 87.7177 84.823 86.9407 84.823Z" fill="#FFCE00"/>
<path d="M95.3437 84.8227H78.5383C77.7613 84.8227 77.1309 84.1915 77.1309 83.4138C77.1309 82.636 77.7613 82.0049 78.5383 82.0049H95.3437C96.1207 82.0049 96.7512 82.636 96.7512 83.4138C96.7512 84.1915 96.1207 84.8227 95.3437 84.8227Z" fill="#FFCE00"/>
<path d="M69.0292 52.1449H42.5735C41.7965 52.1449 41.166 51.5138 41.166 50.736C41.166 49.9583 41.7965 49.3271 42.5735 49.3271H69.0292C69.8062 49.3271 70.4367 49.9583 70.4367 50.736C70.4367 51.5138 69.8062 52.1449 69.0292 52.1449Z" fill="#FFCE00"/>
</svg>
