<svg width="128" height="128" viewBox="0 0 128 128" fill="none" xmlns="http://www.w3.org/2000/svg">
<path d="M89.5042 71.2959C94.2402 70.9119 103.36 64.7359 104.128 72.9279C104.576 77.9839 104.704 89.6959 104.128 94.6239C103.296 101.824 93.5362 95.5199 89.5042 95.7759C90.0163 99.6159 88.8003 102.944 84.5763 103.328C66.8162 104.96 46.5283 102.048 28.5123 103.328C25.6643 103.072 24.2883 100.512 24.0323 97.9199C23.3923 91.2639 23.2963 75.2639 24.0323 68.7039C24.4483 65.0879 26.9443 63.5839 30.3683 63.2639C47.4242 61.7599 66.7203 64.3839 84.0323 63.3279C88.7682 63.9359 89.9522 66.8159 89.5042 71.2639V71.2959ZM28.6082 66.6879C27.5842 67.0399 27.4563 67.7439 27.3283 68.7039C26.1443 77.6639 28.2883 89.1839 27.3283 98.4319C27.3283 100.32 28.9283 100.416 30.4003 100.544C47.2003 102.048 66.1443 99.3599 83.2003 100.544C85.8563 100.544 86.4963 99.4559 86.7203 97.0239C87.2963 90.7199 87.4243 75.8399 86.7203 69.6639C86.5923 68.5119 86.2723 67.5519 85.3123 66.8479L28.6723 66.7199L28.6082 66.6879ZM100.8 71.7439C98.9443 71.9359 90.2723 73.9199 89.7283 75.0399L89.9202 92.1599C90.2083 92.5759 99.1683 95.0719 99.8083 95.1039C100.384 95.1039 100.416 95.0399 100.768 94.5919V71.7439H100.8Z" fill="#FFCD00"/>
<path d="M53.4713 77.408C56.1273 77.984 56.4473 82.944 53.6953 83.776L56.5113 88.96C56.8633 90.144 53.4713 89.824 53.1833 89.376C52.4153 86.912 52.3193 84.352 48.9913 84.96V89.664H45.6953C46.4313 85.664 46.4313 81.44 45.6953 77.408C47.9673 77.728 51.3913 76.96 53.4713 77.408ZM48.9913 82.592C53.9193 83.136 53.8873 79.232 48.9913 79.776V82.592Z" fill="#FFCD00"/>
<path d="M35.6794 78.4635C42.7514 76.8315 44.9914 86.5275 39.0394 88.4155C31.6474 90.7515 29.8234 79.8075 35.6794 78.4635Z" fill="#FFCD00"/>
<path d="M66.8792 77.4082V79.7762H60.7672V82.1442H66.4312V84.5122H60.7672C60.7672 84.8962 60.7352 85.3122 60.7672 85.6962C60.9592 88.6402 64.7992 87.0082 66.9112 86.8802V89.6962H57.9512V77.4402H66.9112L66.8792 77.4082Z" fill="#FFCD00"/>
<path d="M79.6166 81.1836L76.3207 81.6636L75.7767 79.8396C69.6327 77.7596 70.1767 88.7036 75.0407 87.2316C76.1927 86.8796 77.1526 84.4476 79.6166 85.4396C79.0086 91.6476 69.4086 91.1036 68.4166 85.0876C67.1046 76.8956 76.7686 73.7276 79.6166 81.1836Z" fill="#FFCD00"/>
</svg>
