<svg width="100" height="100" viewBox="0 0 100 100" fill="none" xmlns="http://www.w3.org/2000/svg">
<g id="Icon / rocket_launch">
<mask id="mask0_231_1568" style="mask-type:alpha" maskUnits="userSpaceOnUse" x="0" y="0" width="100" height="100">
<rect id="Bounding box" width="100" height="100" fill="#D9D9D9"/>
</mask>
<g mask="url(#mask0_231_1568)">
<path id="rocket_launch" d="M29.5837 47.2917C30.5559 45.3473 31.5628 43.4723 32.6045 41.6667C33.6462 39.8612 34.792 38.0556 36.042 36.2501L30.2087 35.1042L21.4587 43.8542L29.5837 47.2917ZM79.792 18.6459C74.9309 18.7848 69.7399 20.2084 64.2191 22.9167C58.6982 25.6251 53.6809 29.2362 49.167 33.7501C46.2503 36.6667 43.6462 39.7917 41.3545 43.1251C39.0628 46.4584 37.3614 49.5834 36.2503 52.5001L48.1253 64.2709C51.042 63.1598 54.167 61.4584 57.5003 59.1667C60.8337 56.8751 63.9587 54.2709 66.8753 51.3542C71.3892 46.8403 75.0003 41.8403 77.7087 36.3542C80.417 30.8681 81.8406 25.6945 81.9795 20.8334C81.9795 20.5556 81.9274 20.2778 81.8232 20.0001C81.7191 19.7223 81.5628 19.4792 81.3545 19.2709C81.1462 19.0626 80.9031 18.9063 80.6253 18.8021C80.3476 18.698 80.0698 18.6459 79.792 18.6459ZM56.8753 43.6459C55.2781 42.0487 54.4795 40.0869 54.4795 37.7605C54.4795 35.4341 55.2781 33.4723 56.8753 31.8751C58.4726 30.2778 60.4517 29.4792 62.8128 29.4792C65.1739 29.4792 67.1531 30.2778 68.7503 31.8751C70.3476 33.4723 71.1462 35.4341 71.1462 37.7605C71.1462 40.0869 70.3476 42.0487 68.7503 43.6459C67.1531 45.2431 65.1739 46.0417 62.8128 46.0417C60.4517 46.0417 58.4726 45.2431 56.8753 43.6459ZM53.3337 70.9376L56.7712 79.1667L65.5212 70.4167L64.3753 64.5834C62.5698 65.8334 60.7642 66.9619 58.9587 67.9688C57.1531 68.9757 55.2781 69.9653 53.3337 70.9376ZM89.8962 15.3126C90.4517 22.9514 89.2017 30.3994 86.1462 37.6563C83.0906 44.9132 78.2642 51.8403 71.667 58.4376L73.7503 68.7501C74.0281 70.1389 73.9587 71.4931 73.542 72.8126C73.1253 74.132 72.4309 75.2778 71.4587 76.2501L58.3337 89.3751C57.292 90.4167 56.042 90.816 54.5837 90.573C53.1253 90.3299 52.1184 89.5139 51.5628 88.1251L45.2087 73.2292L27.3962 55.4167L12.5003 49.0626C11.1114 48.507 10.2781 47.5001 10.0003 46.0417C9.72255 44.5834 10.1045 43.3334 11.1462 42.2917L24.2712 29.1667C25.2434 28.1945 26.4066 27.5001 27.7607 27.0834C29.1149 26.6667 30.4864 26.5973 31.8753 26.8751L42.1878 28.9584C48.785 22.3612 55.7121 17.5348 62.9691 14.4792C70.226 11.4237 77.674 10.1737 85.3128 10.7292C85.8684 10.7987 86.4239 10.9549 86.9795 11.198C87.5351 11.441 88.0212 11.7709 88.4378 12.1876C88.8545 12.6042 89.1844 13.0903 89.4274 13.6459C89.6705 14.2014 89.8267 14.757 89.8962 15.3126ZM16.3545 66.5626C18.785 64.132 21.7538 62.8994 25.2607 62.8646C28.7677 62.8299 31.7364 64.0278 34.167 66.4584C36.5976 68.8889 37.7955 71.8577 37.7607 75.3646C37.726 78.8716 36.4934 81.8403 34.0628 84.2709C30.7295 87.6042 26.7885 89.5834 22.2399 90.2084C17.6913 90.8334 13.1253 91.4584 8.54199 92.0834C9.16699 87.5001 9.79199 82.9341 10.417 78.3855C11.042 73.8369 13.0212 69.8959 16.3545 66.5626ZM22.292 72.3959C21.1114 73.5764 20.2955 75.0001 19.8441 76.6667C19.3927 78.3334 19.0281 80.0348 18.7503 81.7709C20.4864 81.4931 22.1878 81.1459 23.8545 80.7292C25.5212 80.3126 26.9448 79.5139 28.1253 78.3334C28.9587 77.5001 29.41 76.4931 29.4795 75.3126C29.5489 74.132 29.167 73.1251 28.3337 72.2917C27.5003 71.4584 26.4934 71.0591 25.3128 71.0938C24.1323 71.1285 23.1253 71.5626 22.292 72.3959Z" fill="url(#paint0_linear_231_1568)"/>
</g>
</g>
<defs>
<linearGradient id="paint0_linear_231_1568" x1="8.28742" y1="9.82364" x2="99.5067" y2="29.9446" gradientUnits="userSpaceOnUse">
<stop stop-color="#FFCE00"/>
<stop offset="1" stop-color="#6715E8"/>
</linearGradient>
</defs>
</svg>
