<svg width="100" height="100" viewBox="0 0 100 100" fill="none" xmlns="http://www.w3.org/2000/svg">
<g id="Icon / rocket">
<mask id="mask0_231_1578" style="mask-type:alpha" maskUnits="userSpaceOnUse" x="0" y="0" width="100" height="100">
<rect id="Bounding box" width="100" height="100" fill="#D9D9D9"/>
</mask>
<g mask="url(#mask0_231_1578)">
<path id="rocket" d="M35.3528 75.7611C34.5515 73.4 33.8424 70.9975 33.2254 68.5535C32.6084 66.1096 32.1396 63.6457 31.8191 61.1617L26.6428 64.6553C26.4558 64.7888 26.3156 64.9424 26.2221 65.116C26.1286 65.2896 26.0818 65.4833 26.0818 65.697V79.0545C26.0818 79.188 26.1286 79.2815 26.2221 79.3349C26.3156 79.3884 26.4157 79.3884 26.5226 79.3349L35.3528 75.7611ZM48.8622 20.032C45.1015 24.2147 42.2677 29.0385 40.3606 34.5032C38.4536 39.9679 37.5001 45.8146 37.5001 52.0432C37.5001 56.29 37.882 60.41 38.6459 64.403C39.4098 68.3961 40.4167 71.9284 41.6667 75H58.3334C59.5834 71.9284 60.5903 68.3961 61.3542 64.403C62.1181 60.41 62.5 56.29 62.5 52.0432C62.5 45.8146 61.5465 39.9679 59.6395 34.5032C57.7324 29.0385 54.8986 24.2147 51.1379 20.032C50.9562 19.8504 50.7772 19.7142 50.601 19.6233C50.4247 19.5326 50.2244 19.4872 50.0001 19.4872C49.7757 19.4872 49.5754 19.5326 49.3991 19.6233C49.2229 19.7142 49.0439 19.8504 48.8622 20.032ZM50.0001 53.1249C47.9755 53.1249 46.2541 52.4158 44.8359 50.9975C43.4176 49.5793 42.7085 47.8579 42.7085 45.8333C42.7085 43.8087 43.4176 42.0874 44.8359 40.6692C46.2541 39.2509 47.9755 38.5418 50.0001 38.5418C52.0246 38.5418 53.746 39.2509 55.1642 40.6692C56.5825 42.0874 57.2916 43.8087 57.2916 45.8333C57.2916 47.8579 56.5825 49.5793 55.1642 50.9975C53.746 52.4158 52.0246 53.1249 50.0001 53.1249ZM64.6473 75.8012L73.4775 79.375C73.5844 79.4284 73.6845 79.4217 73.778 79.355C73.8715 79.2882 73.9183 79.188 73.9183 79.0545V65.7371C73.9183 65.5234 73.8715 65.323 73.778 65.136C73.6845 64.9491 73.5443 64.7888 73.3573 64.6553L68.181 61.1617C67.8605 63.6457 67.3918 66.1163 66.7747 68.5736C66.1577 71.0309 65.4486 73.4401 64.6473 75.8012ZM52.8286 13.2374C58.1811 18.1839 62.1728 23.9825 64.8036 30.6331C67.4345 37.2837 68.75 44.7542 68.75 53.0448C68.75 53.2051 68.7566 53.372 68.7699 53.5456C68.7833 53.7192 68.7766 53.8995 68.75 54.0866L76.7386 59.4391C77.8123 60.1228 78.6523 61.0296 79.2586 62.1594C79.8649 63.2892 80.1681 64.4817 80.1681 65.7371V83.197C80.1681 84.5217 79.6139 85.5607 78.5055 86.3139C77.397 87.0671 76.2151 87.1927 74.9599 86.6905L61.5224 81.2499H38.4377L25.0003 86.6504C23.7449 87.1526 22.5697 87.027 21.4746 86.2738C20.3796 85.5207 19.832 84.4817 19.832 83.1569V65.697C19.832 64.4417 20.1285 63.2492 20.7214 62.1194C21.3144 60.9895 22.1477 60.0827 23.2214 59.399L31.2502 54.0465V53.0448C31.2502 44.7542 32.5656 37.2837 35.1965 30.6331C37.8273 23.9825 41.819 18.1839 47.1715 13.2374C47.5776 12.8902 48.0249 12.6257 48.5137 12.4441C49.0024 12.2625 49.4979 12.1717 50.0001 12.1717C50.5022 12.1717 50.9977 12.2625 51.4864 12.4441C51.9752 12.6257 52.4226 12.8902 52.8286 13.2374Z" fill="url(#paint0_linear_231_1578)"/>
</g>
</g>
<defs>
<linearGradient id="paint0_linear_231_1578" x1="19.6435" y1="11.4578" x2="88.3035" y2="23.6709" gradientUnits="userSpaceOnUse">
<stop stop-color="#FFCE00"/>
<stop offset="1" stop-color="#6715E8"/>
</linearGradient>
</defs>
</svg>
