<svg width="100" height="100" viewBox="0 0 100 100" fill="none" xmlns="http://www.w3.org/2000/svg">
<g id="Icon / settings">
<mask id="mask0_231_1566" style="mask-type:alpha" maskUnits="userSpaceOnUse" x="0" y="0" width="100" height="100">
<rect id="Bounding box" width="100" height="100" fill="#D9D9D9"/>
</mask>
<g mask="url(#mask0_231_1566)">
<path id="settings" d="M45.1038 91.6665C43.2288 91.6665 41.6143 91.0415 40.2601 89.7915C38.9059 88.5415 38.09 87.0137 37.8122 85.2081L36.8747 78.3331C35.9719 77.9859 35.1212 77.5692 34.3226 77.0831C33.524 76.597 32.7427 76.0762 31.9788 75.5206L25.5205 78.229C23.7844 78.9929 22.0483 79.0623 20.3122 78.4373C18.5761 77.8123 17.2219 76.7012 16.2497 75.104L11.3538 66.5623C10.3816 64.9651 10.1038 63.2637 10.5205 61.4581C10.9372 59.6526 11.8747 58.1595 13.333 56.979L18.8538 52.8123C18.7844 52.3262 18.7497 51.8574 18.7497 51.4061V48.5936C18.7497 48.1422 18.7844 47.6734 18.8538 47.1873L13.333 43.0206C11.8747 41.8401 10.9372 40.347 10.5205 38.5415C10.1038 36.7359 10.3816 35.0345 11.3538 33.4373L16.2497 24.8956C17.2219 23.2984 18.5761 22.1873 20.3122 21.5623C22.0483 20.9373 23.7844 21.0067 25.5205 21.7706L31.9788 24.479C32.7427 23.9234 33.5413 23.4026 34.3747 22.9165C35.208 22.4304 36.0413 22.0137 36.8747 21.6665L37.8122 14.7915C38.09 12.9859 38.9059 11.4581 40.2601 10.2081C41.6143 8.95813 43.2288 8.33313 45.1038 8.33313H54.8955C56.7705 8.33313 58.3851 8.95813 59.7393 10.2081C61.0934 11.4581 61.9094 12.9859 62.1872 14.7915L63.1247 21.6665C64.0275 22.0137 64.8782 22.4304 65.6768 22.9165C66.4754 23.4026 67.2566 23.9234 68.0205 24.479L74.4788 21.7706C76.215 21.0067 77.9511 20.9373 79.6872 21.5623C81.4233 22.1873 82.7775 23.2984 83.7497 24.8956L88.6455 33.4373C89.6177 35.0345 89.8955 36.7359 89.4789 38.5415C89.0622 40.347 88.1247 41.8401 86.6663 43.0206L81.1455 47.1873C81.215 47.6734 81.2497 48.1422 81.2497 48.5936V51.4061C81.2497 51.8574 81.1802 52.3262 81.0413 52.8123L86.5622 56.979C88.0205 58.1595 88.958 59.6526 89.3747 61.4581C89.7913 63.2637 89.5136 64.9651 88.5414 66.5623L83.5413 75.104C82.5691 76.7012 81.215 77.8123 79.4788 78.4373C77.7427 79.0623 76.0066 78.9929 74.2705 78.229L68.0205 75.5206C67.2566 76.0762 66.458 76.597 65.6247 77.0831C64.7913 77.5692 63.958 77.9859 63.1247 78.3331L62.1872 85.2081C61.9094 87.0137 61.0934 88.5415 59.7393 89.7915C58.3851 91.0415 56.7705 91.6665 54.8955 91.6665H45.1038ZM45.833 83.3331H54.0622L55.5205 72.2915C57.6733 71.7359 59.6698 70.9199 61.5101 69.8436C63.3504 68.7672 65.0344 67.4651 66.5622 65.9373L76.8747 70.2081L80.9372 63.1248L71.9788 56.354C72.3261 55.3817 72.5691 54.3574 72.708 53.2811C72.8469 52.2047 72.9163 51.1109 72.9163 49.9998C72.9163 48.8887 72.8469 47.7949 72.708 46.7186C72.5691 45.6422 72.3261 44.6179 71.9788 43.6456L80.9372 36.8748L76.8747 29.7915L66.5622 34.1665C65.0344 32.5692 63.3504 31.2324 61.5101 30.156C59.6698 29.0797 57.6733 28.2637 55.5205 27.7081L54.1663 16.6665H45.9372L44.4788 27.7081C42.3261 28.2637 40.3295 29.0797 38.4893 30.156C36.649 31.2324 34.965 32.5345 33.4372 34.0623L23.1247 29.7915L19.0622 36.8748L28.0205 43.5415C27.6733 44.5831 27.4302 45.6248 27.2913 46.6665C27.1525 47.7081 27.083 48.8192 27.083 49.9998C27.083 51.1109 27.1525 52.1873 27.2913 53.229C27.4302 54.2706 27.6733 55.3123 28.0205 56.354L19.0622 63.1248L23.1247 70.2081L33.4372 65.8331C34.965 67.4304 36.649 68.7672 38.4893 69.8436C40.3295 70.9199 42.3261 71.7359 44.4788 72.2915L45.833 83.3331ZM50.208 64.5831C54.2358 64.5831 57.6733 63.1595 60.5205 60.3123C63.3677 57.4651 64.7913 54.0276 64.7913 49.9998C64.7913 45.972 63.3677 42.5345 60.5205 39.6873C57.6733 36.8401 54.2358 35.4165 50.208 35.4165C46.1108 35.4165 42.6559 36.8401 39.8434 39.6873C37.0309 42.5345 35.6247 45.972 35.6247 49.9998C35.6247 54.0276 37.0309 57.4651 39.8434 60.3123C42.6559 63.1595 46.1108 64.5831 50.208 64.5831Z" fill="url(#paint0_linear_231_1566)"/>
</g>
</g>
<defs>
<linearGradient id="paint0_linear_231_1566" x1="10.0852" y1="7.5381" x2="99.2864" y2="26.2695" gradientUnits="userSpaceOnUse">
<stop stop-color="#FFCE00"/>
<stop offset="1" stop-color="#6715E8"/>
</linearGradient>
</defs>
</svg>
