<svg width="100" height="100" viewBox="0 0 100 100" fill="none" xmlns="http://www.w3.org/2000/svg">
<g id="Icon / shield_person">
<mask id="mask0_231_1569" style="mask-type:alpha" maskUnits="userSpaceOnUse" x="0" y="0" width="100" height="100">
<rect id="Bounding box" width="100" height="100" fill="#D9D9D9"/>
</mask>
<g mask="url(#mask0_231_1569)">
<path id="shield_person" d="M50.0003 54.1661C45.9031 54.1661 42.4482 52.7599 39.6357 49.9474C36.8232 47.1349 35.417 43.68 35.417 39.5828C35.417 35.4856 36.8232 32.0307 39.6357 29.2182C42.4482 26.4057 45.9031 24.9995 50.0003 24.9995C54.0975 24.9995 57.5524 26.4057 60.3649 29.2182C63.1774 32.0307 64.5837 35.4856 64.5837 39.5828C64.5837 43.68 63.1774 47.1349 60.3649 49.9474C57.5524 52.7599 54.0975 54.1661 50.0003 54.1661ZM50.0003 45.8328C51.8059 45.8328 53.2989 45.2425 54.4795 44.062C55.66 42.8814 56.2503 41.3883 56.2503 39.5828C56.2503 37.7772 55.66 36.2842 54.4795 35.1036C53.2989 33.9231 51.8059 33.3328 50.0003 33.3328C48.1948 33.3328 46.7017 33.9231 45.5212 35.1036C44.3406 36.2842 43.7503 37.7772 43.7503 39.5828C43.7503 41.3883 44.3406 42.8814 45.5212 44.062C46.7017 45.2425 48.1948 45.8328 50.0003 45.8328ZM50.0003 17.187L25.0003 26.562V46.2495C25.0003 49.9995 25.5212 53.6453 26.5628 57.187C27.6045 60.7286 29.0281 64.062 30.8337 67.187C33.7503 65.7286 36.8059 64.5828 40.0003 63.7495C43.1948 62.9161 46.5281 62.4995 50.0003 62.4995C53.4725 62.4995 56.8059 62.9161 60.0003 63.7495C63.1948 64.5828 66.2503 65.7286 69.167 67.187C70.9726 64.062 72.3962 60.7286 73.4378 57.187C74.4795 53.6453 75.0003 49.9995 75.0003 46.2495V26.562L50.0003 17.187ZM50.0003 70.8328C47.5003 70.8328 45.0698 71.1106 42.7087 71.6661C40.3475 72.2217 38.0906 72.9856 35.9378 73.9578C37.9517 76.0411 40.1392 77.8467 42.5003 79.3745C44.8614 80.9022 47.3614 82.0828 50.0003 82.9161C52.6392 82.0828 55.1392 80.9022 57.5003 79.3745C59.8614 77.8467 62.0489 76.0411 64.0628 73.9578C61.91 72.9856 59.6531 72.2217 57.292 71.6661C54.9309 71.1106 52.5003 70.8328 50.0003 70.8328ZM50.0003 91.2495C49.5142 91.2495 49.0628 91.2147 48.6462 91.1453C48.2295 91.0759 47.8128 90.9717 47.3962 90.8328C38.0212 87.7078 30.5559 81.9265 25.0003 73.489C19.4448 65.0515 16.667 55.9717 16.667 46.2495V26.562C16.667 24.8258 17.1705 23.2633 18.1774 21.8745C19.1844 20.4856 20.4864 19.4786 22.0837 18.8536L47.0837 9.47863C48.0559 9.13141 49.0281 8.95779 50.0003 8.95779C50.9725 8.95779 51.9448 9.13141 52.917 9.47863L77.917 18.8536C79.5142 19.4786 80.8163 20.4856 81.8232 21.8745C82.8302 23.2633 83.3337 24.8258 83.3337 26.562V46.2495C83.3337 55.9717 80.5559 65.0515 75.0003 73.489C69.4448 81.9265 61.9795 87.7078 52.6045 90.8328C52.1878 90.9717 51.7712 91.0759 51.3545 91.1453C50.9378 91.2147 50.4864 91.2495 50.0003 91.2495Z" fill="url(#paint0_linear_231_1569)"/>
</g>
</g>
<defs>
<linearGradient id="paint0_linear_231_1569" x1="16.4587" y1="8.1727" x2="92.3013" y2="21.7255" gradientUnits="userSpaceOnUse">
<stop stop-color="#FFCE00"/>
<stop offset="1" stop-color="#6715E8"/>
</linearGradient>
</defs>
</svg>
