<svg width="111" height="101" viewBox="0 0 111 101" fill="none" xmlns="http://www.w3.org/2000/svg">
<g id="Icon / social-evening-1">
<path d="M62.5257 48.8171V46.6984L92.3492 20.0456C92.7 19.7314 92.8243 19.2309 92.6578 18.7887C92.4913 18.3443 92.0717 18.0525 91.6011 18.0525H72.8443L74.8423 15.1684C75.1997 14.6499 75.0754 13.9407 74.5648 13.5793C74.0542 13.218 73.3504 13.3437 72.993 13.8599L70.087 18.0525H19.3956C18.9272 18.0525 18.5054 18.3443 18.3411 18.7887C18.1746 19.2309 18.2967 19.7314 18.6497 20.0456L48.4731 46.6984V48.8171C48.4731 52.1703 51.0927 54.9108 54.3694 55.0746V73.5329C51.1682 74.0088 48.6574 76.4552 48.2933 79.5144L34.7424 85.442C34.2518 85.6574 33.9765 86.1916 34.0853 86.7213C34.1919 87.2487 34.6536 87.6303 35.1886 87.6303H75.8058C76.343 87.6303 76.8025 87.251 76.9113 86.7213C77.0201 86.1916 76.7448 85.6574 76.2542 85.442L62.7033 79.5144C62.337 76.4552 59.824 74.0088 56.625 73.5329V55.0746C59.9039 54.9108 62.5235 52.1703 62.5235 48.8171H62.5257ZM50.0293 45.0442L34.4738 31.1444H55.5594C55.1997 32.1342 55.0377 33.1778 55.1487 34.208C55.2885 35.4941 55.7969 36.6298 56.6028 37.5096L54.5737 40.4386C54.2163 40.9571 54.3406 41.6663 54.8512 42.0277C55.0488 42.1668 55.273 42.2319 55.4972 42.2319C55.8524 42.2319 56.2032 42.0636 56.4229 41.7471L58.4587 38.8091C59.1269 39.0919 59.8395 39.2513 60.581 39.2513C61.0539 39.2513 61.5356 39.1929 62.0196 39.074C63.6002 38.6835 65.0121 37.6869 65.9978 36.2684C67.0989 34.6816 67.4541 32.8232 67.1655 31.1444H76.525L60.9695 45.0442H50.0293ZM63.6424 29.3443C65.2696 30.4935 65.4961 33.0162 64.1485 34.9599C63.4803 35.925 62.5346 36.5984 61.4845 36.8565C60.49 37.1011 59.5176 36.9395 58.7539 36.3964C57.988 35.8532 57.5063 34.9891 57.3931 33.9589C57.2754 32.8748 57.5796 31.7436 58.2478 30.7785C58.916 29.8157 59.8639 29.1423 60.9118 28.882C61.2159 28.8079 61.5156 28.7697 61.8087 28.7697C62.4791 28.7697 63.1118 28.965 63.6424 29.3421V29.3443ZM88.6218 20.3329L79.0758 28.8618H66.2553C66.1088 28.6463 65.9667 28.4263 65.7891 28.2333L71.2636 20.3329H88.6218ZM68.5064 20.3329L63.9421 26.9226C62.8498 26.458 61.6177 26.3615 60.379 26.6645C59.0381 26.9944 57.8415 27.7777 56.9025 28.8618H31.923L22.377 20.3329H68.5086H68.5064ZM50.7286 48.8171V47.3246H60.268V48.8171C60.268 51.0189 58.4964 52.8077 56.3186 52.8077H54.678C52.5002 52.8077 50.7286 51.0167 50.7286 48.8171ZM40.641 85.3477L49.6053 81.4267H61.3913L70.3557 85.3477H40.6387H40.641ZM60.339 79.1463H50.6576C51.2148 77.1802 53.1729 75.7258 55.4994 75.7258C57.826 75.7258 59.784 77.1802 60.339 79.1463Z" fill="#FFCE00"/>
</svg>
