<svg width="100" height="100" viewBox="0 0 100 100" fill="none" xmlns="http://www.w3.org/2000/svg">
<g id="Icon / thumb_up">
<mask id="mask0_231_1570" style="mask-type:alpha" maskUnits="userSpaceOnUse" x="0" y="0" width="100" height="100">
<rect id="Bounding box" width="100" height="100" fill="#D9D9D9"/>
</mask>
<g mask="url(#mask0_231_1570)">
<path id="thumb_up" d="M87.4997 33.3337C89.7219 33.3337 91.6663 34.167 93.333 35.8337C94.9997 37.5004 95.833 39.4448 95.833 41.667V50.0004C95.833 50.4865 95.7636 51.0073 95.6247 51.5629C95.4858 52.1184 95.3469 52.6393 95.208 53.1254L82.708 82.5004C82.083 83.8893 81.0414 85.0698 79.583 86.042C78.1247 87.0143 76.5969 87.5004 74.9997 87.5004H29.1663V33.3337L54.1663 8.54202C55.208 7.50036 56.4407 6.89272 57.8643 6.71911C59.2879 6.54549 60.6594 6.80591 61.9788 7.50036C63.2983 8.1948 64.2705 9.16702 64.8955 10.417C65.5205 11.667 65.6594 12.9517 65.3122 14.2712L60.6247 33.3337H87.4997ZM37.4997 36.8754V79.167H74.9997L87.4997 50.0004V41.667H49.9997L55.6247 18.7504L37.4997 36.8754ZM16.6663 87.5004C14.3747 87.5004 12.4129 86.6844 10.7809 85.0524C9.14898 83.4205 8.33301 81.4587 8.33301 79.167V41.667C8.33301 39.3754 9.14898 37.4136 10.7809 35.7816C12.4129 34.1497 14.3747 33.3337 16.6663 33.3337H29.1663V41.667H16.6663V79.167H29.1663V87.5004H16.6663Z" fill="url(#paint0_linear_231_1570)"/>
</g>
</g>
<defs>
<linearGradient id="paint0_linear_231_1570" x1="8.05964" y1="5.89584" x2="105.241" y2="29.0999" gradientUnits="userSpaceOnUse">
<stop stop-color="#FFCE00"/>
<stop offset="1" stop-color="#6715E8"/>
</linearGradient>
</defs>
</svg>
