<svg width="100" height="100" viewBox="0 0 100 100" fill="none" xmlns="http://www.w3.org/2000/svg">
<g id="Icon / thumb_down">
<mask id="mask0_231_1571" style="mask-type:alpha" maskUnits="userSpaceOnUse" x="0" y="0" width="100" height="100">
<rect id="Bounding box" width="100" height="100" fill="#D9D9D9"/>
</mask>
<g mask="url(#mask0_231_1571)">
<path id="thumb_down" d="M12.5003 66.6666C10.2781 66.6666 8.33366 65.8333 6.66699 64.1666C5.00033 62.4999 4.16699 60.5555 4.16699 58.3333V49.9999C4.16699 49.5138 4.23644 48.993 4.37533 48.4374C4.51421 47.8819 4.6531 47.3611 4.79199 46.8749L17.292 17.4999C17.917 16.1111 18.9587 14.9305 20.417 13.9583C21.8753 12.9861 23.4031 12.4999 25.0003 12.4999H70.8337V66.6666L45.8337 91.4583C44.792 92.4999 43.5594 93.1076 42.1357 93.2812C40.7121 93.4548 39.3406 93.1944 38.0212 92.4999C36.7017 91.8055 35.7295 90.8333 35.1045 89.5833C34.4795 88.3333 34.3406 87.0486 34.6878 85.7291L39.3753 66.6666H12.5003ZM62.5003 63.1249V20.8333H25.0003L12.5003 49.9999V58.3333H50.0003L44.3753 81.2499L62.5003 63.1249ZM83.3337 12.4999C85.6253 12.4999 87.5871 13.3159 89.2191 14.9479C90.851 16.5798 91.667 18.5416 91.667 20.8333V58.3333C91.667 60.6249 90.851 62.5868 89.2191 64.2187C87.5871 65.8506 85.6253 66.6666 83.3337 66.6666H70.8337V58.3333H83.3337V20.8333H70.8337V12.4999H83.3337Z" fill="url(#paint0_linear_231_1571)"/>
</g>
</g>
<defs>
<linearGradient id="paint0_linear_231_1571" x1="3.89362" y1="11.7288" x2="101.075" y2="34.9328" gradientUnits="userSpaceOnUse">
<stop stop-color="#FFCE00"/>
<stop offset="1" stop-color="#6715E8"/>
</linearGradient>
</defs>
</svg>
