<svg width="32" height="26" viewBox="0 0 32 26" fill="currentColor" xmlns="http://www.w3.org/2000/svg">
<g id="&#240;&#159;&#166;&#134; icon &#34;twitterbird&#34;">
<path id="Vector" d="M31.7439 3.07199C30.8053 4.43732 29.7173 5.54665 28.4799 6.39998V7.29598C28.4799 9.42931 28.0746 11.5946 27.2639 13.792C26.4533 15.9893 25.2693 17.9733 23.7119 19.744C22.1546 21.5146 20.224 22.9653 17.92 24.0959C15.616 25.2266 12.9706 25.7919 9.98398 25.7919C8.10665 25.7919 6.33599 25.5359 4.67199 25.0239C3.00799 24.5119 1.45066 23.7866 0 22.8479C0.255999 22.8906 0.511999 22.9226 0.767998 22.9439C1.024 22.9653 1.28 22.9759 1.536 22.9759C3.07199 22.9759 4.53332 22.7199 5.91999 22.2079C7.30665 21.6959 8.55465 21.0133 9.66398 20.16C8.21332 20.1173 6.94398 19.68 5.85599 18.848C4.76799 18.016 4.01066 16.9386 3.58399 15.616C3.79732 15.7013 3.99999 15.744 4.19199 15.744H4.79999C5.39732 15.744 5.95199 15.68 6.46399 15.552C4.97066 15.2106 3.73332 14.4533 2.75199 13.28C1.77066 12.1066 1.28 10.7306 1.28 9.15198V9.08798C1.74933 9.30131 2.21866 9.48264 2.68799 9.63198C3.15733 9.78131 3.66932 9.85598 4.22399 9.85598C3.37066 9.25864 2.67733 8.49065 2.144 7.55198C1.61066 6.61332 1.344 5.58932 1.344 4.47999C1.344 3.28533 1.64266 2.19733 2.24 1.216C3.86132 3.17866 5.82399 4.76799 8.12798 5.98399C10.432 7.19998 12.928 7.87198 15.616 7.99998C15.488 7.48798 15.424 6.99732 15.424 6.52798C15.424 5.63199 15.5946 4.78932 15.936 3.99999C16.2773 3.21066 16.7466 2.51733 17.344 1.92C17.9413 1.32266 18.6346 0.853331 19.424 0.511999C20.2133 0.170666 21.056 0 21.952 0C22.8906 0 23.7653 0.181333 24.5759 0.543999C25.3866 0.906664 26.0906 1.408 26.6879 2.048C27.4559 1.92 28.1813 1.71733 28.8639 1.44C29.5466 1.16266 30.2079 0.831998 30.8479 0.447999C30.3359 2.02666 29.3759 3.24266 27.9679 4.09599C29.3333 3.88266 30.5919 3.54132 31.7439 3.07199Z" />
</g>
</svg>
