<svg width="111" height="101" viewBox="0 0 111 101" fill="none" xmlns="http://www.w3.org/2000/svg">
<g id="Icon / virtual-access-1">
<path d="M44.9723 44.0471C44.2974 44.0471 43.7002 43.5534 43.587 42.8576C43.1963 40.4762 41.1783 38.748 38.7918 38.748H35.2687C32.8822 38.748 30.8664 40.4762 30.4757 42.8576C30.3491 43.6319 29.6299 44.1571 28.8573 44.0269C28.0914 43.899 27.5741 43.1651 27.7007 42.3907C28.3178 38.6313 31.5013 35.9043 35.2709 35.9043H38.794C42.5614 35.9043 45.7449 38.6313 46.3642 42.3907C46.4908 43.1651 45.9735 43.8968 45.2076 44.0269C45.1299 44.0404 45.0522 44.0449 44.9745 44.0449L44.9723 44.0471Z" fill="#FFCE00"/>
<path d="M37.0309 38.7502C34.2381 38.7502 31.9648 36.4541 31.9648 33.6306C31.9648 30.8071 34.2381 28.5088 37.0309 28.5088C39.8236 28.5088 42.0947 30.8071 42.0947 33.6306C42.0947 36.4541 39.8236 38.7502 37.0309 38.7502ZM37.0309 31.3525C35.7899 31.3525 34.7798 32.3737 34.7798 33.6284C34.7798 34.883 35.7899 35.9042 37.0309 35.9042C38.2719 35.9042 39.282 34.883 39.282 33.6284C39.282 32.3737 38.2719 31.3525 37.0309 31.3525Z" fill="#FFCE00"/>
<path d="M44.9723 67.2864C44.2974 67.2864 43.7002 66.7926 43.587 66.0968C43.1963 63.7177 41.1783 61.9895 38.7918 61.9895H35.2687C32.8822 61.9895 30.8664 63.7177 30.4757 66.0968C30.3491 66.8712 29.6299 67.3964 28.8573 67.2662C28.0914 67.136 27.5741 66.4043 27.7007 65.63C28.3178 61.8728 31.5013 59.1436 35.2709 59.1436H38.794C42.5614 59.1436 45.7449 61.8706 46.3642 65.63C46.4908 66.4043 45.9735 67.136 45.2076 67.2662C45.1299 67.2797 45.0522 67.2842 44.9745 67.2842L44.9723 67.2864Z" fill="#FFCE00"/>
<path d="M37.0309 61.9897C34.2381 61.9897 31.9648 59.6914 31.9648 56.8679C31.9648 54.0444 34.2381 51.7461 37.0309 51.7461C39.8236 51.7461 42.0947 54.0444 42.0947 56.8679C42.0947 59.6914 39.8236 61.9897 37.0309 61.9897ZM37.0309 54.592C35.7899 54.592 34.7798 55.6133 34.7798 56.8679C34.7798 58.1226 35.7899 59.1438 37.0309 59.1438C38.2719 59.1438 39.282 58.1226 39.282 56.8679C39.282 55.6133 38.2719 54.592 37.0309 54.592Z" fill="#FFCE00"/>
<path d="M81.8688 44.0471C81.1939 44.0471 80.5967 43.5534 80.4835 42.8576C80.0928 40.4762 78.077 38.748 75.6883 38.748H72.1652C69.7787 38.748 67.7629 40.4762 67.3722 42.8576C67.2456 43.6319 66.533 44.1571 65.7538 44.0269C64.9879 43.899 64.4706 43.1651 64.5972 42.3907C65.2143 38.6313 68.3978 35.9043 72.1674 35.9043H75.6905C79.4601 35.9043 82.6435 38.6313 83.2607 42.3907C83.3872 43.1651 82.87 43.899 82.1041 44.0269C82.0264 44.0404 81.9487 44.0449 81.871 44.0449L81.8688 44.0471Z" fill="#FFCE00"/>
<path d="M73.9274 38.7502C71.1346 38.7502 68.8613 36.4541 68.8613 33.6306C68.8613 30.8071 71.1346 28.5088 73.9274 28.5088C76.7201 28.5088 78.9912 30.8071 78.9912 33.6306C78.9912 36.4541 76.7201 38.7502 73.9274 38.7502ZM73.9274 31.3525C72.6864 31.3525 71.6763 32.3737 71.6763 33.6284C71.6763 34.883 72.6864 35.9042 73.9274 35.9042C75.1684 35.9042 76.1784 34.883 76.1784 33.6284C76.1784 32.3737 75.1684 31.3525 73.9274 31.3525Z" fill="#FFCE00"/>
<path d="M81.8688 67.2864C81.1939 67.2864 80.5967 66.7926 80.4835 66.0968C80.0928 63.7177 78.077 61.9895 75.6883 61.9895H72.1652C69.7787 61.9895 67.7629 63.7177 67.3722 66.0968C67.2456 66.8712 66.533 67.3964 65.7538 67.2662C64.9879 67.136 64.4706 66.4043 64.5972 65.63C65.2143 61.8728 68.3978 59.1436 72.1674 59.1436H75.6905C79.4601 59.1436 82.6435 61.8706 83.2607 65.63C83.3872 66.4043 82.87 67.136 82.1041 67.2662C82.0264 67.2797 81.9487 67.2842 81.871 67.2842L81.8688 67.2864Z" fill="#FFCE00"/>
<path d="M73.9274 61.9897C71.1346 61.9897 68.8613 59.6914 68.8613 56.8679C68.8613 54.0444 71.1346 51.7461 73.9274 51.7461C76.7201 51.7461 78.9912 54.0444 78.9912 56.8679C78.9912 59.6914 76.7201 61.9897 73.9274 61.9897ZM73.9274 54.592C72.6864 54.592 71.6763 55.6133 71.6763 56.8679C71.6763 58.1226 72.6864 59.1438 73.9274 59.1438C75.1684 59.1438 76.1784 58.1226 76.1784 56.8679C76.1784 55.6133 75.1684 54.592 73.9274 54.592Z" fill="#FFCE00"/>
<path d="M94.8718 73.6108H16.1262C15.3492 73.6108 14.7188 72.9734 14.7188 72.1878V28.8139C14.7188 24.518 18.1753 21.0234 22.4244 21.0234H88.5737C92.8228 21.0234 96.2771 24.518 96.2771 28.8139V72.1878C96.2771 72.9734 95.6466 73.6108 94.8696 73.6108H94.8718ZM17.5337 70.7648H93.4666V28.8117C93.4666 26.0847 91.2732 23.8649 88.5759 23.8649H22.4266C19.7293 23.8649 17.5337 26.0847 17.5337 28.8117V70.7648Z" fill="#FFCE00"/>
<path d="M100.047 79.9761H10.9538C7.98567 79.9761 5.57031 77.5342 5.57031 74.5334V72.1857C5.57031 71.4001 6.20079 70.7627 6.97779 70.7627H104.021C104.798 70.7627 105.428 71.4001 105.428 72.1857V74.5334C105.428 77.5342 103.013 79.9761 100.045 79.9761H100.047ZM8.38527 73.6109V74.5356C8.38527 75.9676 9.53745 77.1324 10.9538 77.1324H100.047C101.463 77.1324 102.615 75.9676 102.615 74.5356V73.6109H8.38527Z" fill="#FFCE00"/>
<path d="M55.4993 67.2863C54.7223 67.2863 54.0918 66.6489 54.0918 65.8634V29.9298C54.0918 29.1443 54.7223 28.5068 55.4993 28.5068C56.2763 28.5068 56.9068 29.1443 56.9068 29.9298V65.8634C56.9068 66.6489 56.2763 67.2863 55.4993 67.2863Z" fill="#FFCE00"/>
<path d="M87.0368 49.3196H23.9622C23.1852 49.3196 22.5547 48.6822 22.5547 47.8966C22.5547 47.1111 23.1852 46.4736 23.9622 46.4736H87.039C87.816 46.4736 88.4465 47.1111 88.4465 47.8966C88.4465 48.6822 87.816 49.3196 87.039 49.3196H87.0368Z" fill="#FFCE00"/>
</svg>
