<svg width="100" height="100" viewBox="0 0 100 100" fill="none" xmlns="http://www.w3.org/2000/svg">
<g id="Icon / visibility">
<mask id="mask0_231_1572" style="mask-type:alpha" maskUnits="userSpaceOnUse" x="0" y="0" width="100" height="100">
<rect id="Bounding box" width="100" height="100" fill="#D9D9D9"/>
</mask>
<g mask="url(#mask0_231_1572)">
<path id="visibility" d="M50 66.6668C55.2083 66.6668 59.6354 64.8439 63.2813 61.198C66.9271 57.5522 68.75 53.1251 68.75 47.9168C68.75 42.7084 66.9271 38.2814 63.2813 34.6355C59.6354 30.9897 55.2083 29.1668 50 29.1668C44.7917 29.1668 40.3646 30.9897 36.7188 34.6355C33.0729 38.2814 31.25 42.7084 31.25 47.9168C31.25 53.1251 33.0729 57.5522 36.7188 61.198C40.3646 64.8439 44.7917 66.6668 50 66.6668ZM50 59.1668C46.875 59.1668 44.2188 58.073 42.0313 55.8855C39.8438 53.698 38.75 51.0418 38.75 47.9168C38.75 44.7918 39.8438 42.1355 42.0313 39.948C44.2188 37.7605 46.875 36.6668 50 36.6668C53.125 36.6668 55.7813 37.7605 57.9688 39.948C60.1563 42.1355 61.25 44.7918 61.25 47.9168C61.25 51.0418 60.1563 53.698 57.9688 55.8855C55.7813 58.073 53.125 59.1668 50 59.1668ZM50 79.1668C40.6945 79.1668 32.2049 76.6668 24.5313 71.6668C16.8576 66.6668 10.7986 60.0696 6.35417 51.8751C6.00694 51.2501 5.74653 50.6078 5.57292 49.948C5.39931 49.2883 5.3125 48.6112 5.3125 47.9168C5.3125 47.2223 5.39931 46.5453 5.57292 45.8855C5.74653 45.2258 6.00694 44.5834 6.35417 43.9584C10.7986 35.764 16.8576 29.1668 24.5313 24.1668C32.2049 19.1668 40.6945 16.6668 50 16.6668C59.3056 16.6668 67.7951 19.1668 75.4688 24.1668C83.1424 29.1668 89.2014 35.764 93.6458 43.9584C93.9931 44.5834 94.2535 45.2258 94.4271 45.8855C94.6007 46.5453 94.6875 47.2223 94.6875 47.9168C94.6875 48.6112 94.6007 49.2883 94.4271 49.948C94.2535 50.6078 93.9931 51.2501 93.6458 51.8751C89.2014 60.0696 83.1424 66.6668 75.4688 71.6668C67.7951 76.6668 59.3056 79.1668 50 79.1668ZM50 70.8335C57.8472 70.8335 65.0521 68.7675 71.6146 64.6355C78.1771 60.5036 83.1945 54.9307 86.6667 47.9168C83.1945 40.9029 78.1771 35.33 71.6146 31.198C65.0521 27.0661 57.8472 25.0001 50 25.0001C42.1528 25.0001 34.9479 27.0661 28.3854 31.198C21.8229 35.33 16.8056 40.9029 13.3333 47.9168C16.8056 54.9307 21.8229 60.5036 28.3854 64.6355C34.9479 68.7675 42.1528 70.8335 50 70.8335Z" fill="url(#paint0_linear_231_1572)"/>
</g>
</g>
<defs>
<linearGradient id="paint0_linear_231_1572" x1="5.03327" y1="16.0705" x2="100.462" y2="46.1712" gradientUnits="userSpaceOnUse">
<stop stop-color="#FFCE00"/>
<stop offset="1" stop-color="#6715E8"/>
</linearGradient>
</defs>
</svg>
