<svg width="114" height="82" viewBox="0 0 114 82" fill="none" xmlns="http://www.w3.org/2000/svg">
<g id="Icon / webinar">
<mask id="mask0_231_1576" style="mask-type:alpha" maskUnits="userSpaceOnUse" x="0" y="0" width="100" height="100">
<rect id="Bounding box" width="100" height="100" fill="#D9D9D9"/>
</mask>
<g mask="url(#mask0_231_1576)">
<path id="webinar" d="M38.0923 58.7338C38.4881 58.973 38.9432 59.0926 39.3984 59.0926C39.8535 59.0926 40.3284 58.973 40.7242 58.7338L57.0297 49.1442C57.841 48.6657 58.3357 47.7885 58.3357 46.8514C58.3357 45.9144 57.841 45.0372 57.0297 44.5587L40.7242 34.9691C40.3284 34.7299 39.8535 34.6103 39.3984 34.6103C38.9432 34.6103 38.4881 34.7299 38.0923 34.9691C37.281 35.4476 36.7665 36.3248 36.7665 37.2619V56.441C36.7665 57.398 37.281 58.2752 38.0923 58.7338ZM42.0302 41.8673L50.4798 46.8315L42.0302 51.7958V41.8673ZM111.071 25.1403C110.181 24.6219 109.172 24.3428 108.162 24.3428C107.153 24.3428 106.104 24.6219 105.194 25.1802L86.8505 36.0656V10.8655C86.8505 4.86458 82.0024 0 76.066 0H10.7846C4.82833 0 0 4.88451 0 10.8655V71.1345C0 77.1354 4.84812 82 10.7846 82H76.0462C82.0024 82 86.8307 77.1155 86.8307 71.1345V49.204L104.838 61.6047C105.827 62.2825 106.955 62.6414 108.143 62.6414C109.093 62.6414 110.042 62.4021 110.873 61.9635C112.813 60.9468 114 58.9331 114 56.7401V30.264C114 28.1109 112.892 26.1969 111.052 25.1403H111.071ZM81.5671 71.1544C81.5671 74.2247 79.0936 76.7168 76.0462 76.7168H10.7846C7.7372 76.7168 5.26367 74.2247 5.26367 71.1544V18.9998H81.5671V71.1345V71.1544ZM81.5671 13.6966H5.26367V10.8655C5.26367 7.79528 7.7372 5.30318 10.7846 5.30318H76.0462C79.0936 5.30318 81.5671 7.79528 81.5671 10.8655V13.6966ZM108.776 56.76C108.776 57.0591 108.598 57.2186 108.459 57.2983C108.4 57.3183 108.301 57.3781 108.162 57.3781C108.044 57.3781 107.945 57.3382 107.826 57.2584L87.1672 43.0236C86.9297 42.8641 86.9099 42.6249 86.9099 42.5052C86.9099 42.3856 86.9495 42.1464 87.2067 42.0068L107.866 29.7457C107.965 29.6859 108.064 29.6659 108.162 29.6659C108.301 29.6659 108.42 29.7257 108.459 29.7457C108.598 29.8254 108.756 29.9849 108.756 30.264V56.7401L108.776 56.76Z" fill="url(#paint0_linear_2301_3746)"/>
</g>
</g>
<defs>
<linearGradient id="paint0_linear_2301_3746" x1="0" y1="41.0299" x2="114.02" y2="41.0299" gradientUnits="userSpaceOnUse">
<stop stop-color="#FFCE00"/>
<stop offset="1" stop-color="#6715E8"/>
</linearGradient>
</defs>
</svg>

