<svg width="100" height="100" viewBox="0 0 100 100" fill="none" xmlns="http://www.w3.org/2000/svg">
<g id="Icon / where_to_vote">
<mask id="mask0_231_1573" style="mask-type:alpha" maskUnits="userSpaceOnUse" x="0" y="0" width="100" height="100">
<rect id="Bounding box" width="100" height="100" fill="#D9D9D9"/>
</mask>
<g mask="url(#mask0_231_1573)">
<path id="where_to_vote" d="M45.6253 43.7498L42.7087 40.8331C41.8753 39.9998 40.9031 39.5831 39.792 39.5831C38.6809 39.5831 37.7087 39.9998 36.8753 40.8331C36.042 41.6665 35.6253 42.656 35.6253 43.8019C35.6253 44.9477 36.042 45.9373 36.8753 46.7706L42.7087 52.7081C43.542 53.5415 44.5142 53.9581 45.6253 53.9581C46.7364 53.9581 47.7087 53.5415 48.542 52.7081L63.3337 37.9165C64.167 37.0831 64.5837 36.0935 64.5837 34.9477C64.5837 33.8019 64.167 32.8123 63.3337 31.979C62.5003 31.1456 61.5107 30.729 60.3649 30.729C59.2191 30.729 58.2295 31.1456 57.3962 31.979L45.6253 43.7498ZM50.0003 80.6248C58.4726 72.847 64.7573 65.781 68.8545 59.4269C72.9517 53.0727 75.0003 47.4304 75.0003 42.4998C75.0003 34.9304 72.5871 28.7324 67.7607 23.906C62.9344 19.0797 57.0142 16.6665 50.0003 16.6665C42.9864 16.6665 37.0663 19.0797 32.2399 23.906C27.4135 28.7324 25.0003 34.9304 25.0003 42.4998C25.0003 47.4304 27.0489 53.0727 31.1462 59.4269C35.2434 65.781 41.5281 72.847 50.0003 80.6248ZM50.0003 88.854C49.0281 88.854 48.0559 88.6804 47.0837 88.3331C46.1114 87.9859 45.2434 87.4651 44.4795 86.7706C39.9656 82.604 35.9725 78.5415 32.5003 74.5831C29.0281 70.6248 26.1288 66.788 23.8024 63.0727C21.476 59.3574 19.7052 55.781 18.4899 52.3435C17.2746 48.906 16.667 45.6248 16.667 42.4998C16.667 32.0831 20.0177 23.7845 26.7191 17.604C33.4205 11.4234 41.1809 8.33313 50.0003 8.33313C58.8198 8.33313 66.5802 11.4234 73.2816 17.604C79.983 23.7845 83.3337 32.0831 83.3337 42.4998C83.3337 45.6248 82.726 48.906 81.5107 52.3435C80.2955 55.781 78.5246 59.3574 76.1982 63.0727C73.8719 66.788 70.9725 70.6248 67.5003 74.5831C64.0281 78.5415 60.035 82.604 55.5212 86.7706C54.7573 87.4651 53.8892 87.9859 52.917 88.3331C51.9448 88.6804 50.9725 88.854 50.0003 88.854Z" fill="url(#paint0_linear_231_1573)"/>
</g>
</g>
<defs>
<linearGradient id="paint0_linear_231_1573" x1="16.4587" y1="7.56493" x2="92.197" y2="21.3967" gradientUnits="userSpaceOnUse">
<stop stop-color="#FFCE00"/>
<stop offset="1" stop-color="#6715E8"/>
</linearGradient>
</defs>
</svg>
