<svg width="100" height="100" viewBox="0 0 100 100" fill="none" xmlns="http://www.w3.org/2000/svg">
<g id="Icon / workspaces">
<mask id="mask0_231_1444" style="mask-type:alpha" maskUnits="userSpaceOnUse" x="0" y="0" width="100" height="100">
<rect id="Bounding box" width="100" height="100" fill="#D9D9D9"/>
</mask>
<g mask="url(#mask0_231_1444)">
<path id="workspaces" d="M24.9997 87.5C20.4163 87.5 16.4927 85.8681 13.2288 82.6042C9.96495 79.3403 8.33301 75.4167 8.33301 70.8334C8.33301 66.25 9.96495 62.3264 13.2288 59.0625C16.4927 55.7986 20.4163 54.1667 24.9997 54.1667C29.583 54.1667 33.5066 55.7986 36.7705 59.0625C40.0344 62.3264 41.6663 66.25 41.6663 70.8334C41.6663 75.4167 40.0344 79.3403 36.7705 82.6042C33.5066 85.8681 29.583 87.5 24.9997 87.5ZM74.9997 87.5C70.4163 87.5 66.4927 85.8681 63.2288 82.6042C59.965 79.3403 58.333 75.4167 58.333 70.8334C58.333 66.25 59.965 62.3264 63.2288 59.0625C66.4927 55.7986 70.4163 54.1667 74.9997 54.1667C79.583 54.1667 83.5066 55.7986 86.7705 59.0625C90.0344 62.3264 91.6663 66.25 91.6663 70.8334C91.6663 75.4167 90.0344 79.3403 86.7705 82.6042C83.5066 85.8681 79.583 87.5 74.9997 87.5ZM24.9997 79.1667C27.2913 79.1667 29.2531 78.3507 30.8851 76.7188C32.517 75.0868 33.333 73.125 33.333 70.8334C33.333 68.5417 32.517 66.5799 30.8851 64.9479C29.2531 63.316 27.2913 62.5 24.9997 62.5C22.708 62.5 20.7462 63.316 19.1143 64.9479C17.4823 66.5799 16.6663 68.5417 16.6663 70.8334C16.6663 73.125 17.4823 75.0868 19.1143 76.7188C20.7462 78.3507 22.708 79.1667 24.9997 79.1667ZM74.9997 79.1667C77.2913 79.1667 79.2531 78.3507 80.8851 76.7188C82.517 75.0868 83.333 73.125 83.333 70.8334C83.333 68.5417 82.517 66.5799 80.8851 64.9479C79.2531 63.316 77.2913 62.5 74.9997 62.5C72.708 62.5 70.7462 63.316 69.1143 64.9479C67.4823 66.5799 66.6663 68.5417 66.6663 70.8334C66.6663 73.125 67.4823 75.0868 69.1143 76.7188C70.7462 78.3507 72.708 79.1667 74.9997 79.1667ZM49.9997 45.8334C45.4163 45.8334 41.4927 44.2014 38.2288 40.9375C34.965 37.6736 33.333 33.75 33.333 29.1667C33.333 24.5834 34.965 20.6598 38.2288 17.3959C41.4927 14.132 45.4163 12.5 49.9997 12.5C54.583 12.5 58.5066 14.132 61.7705 17.3959C65.0344 20.6598 66.6663 24.5834 66.6663 29.1667C66.6663 33.75 65.0344 37.6736 61.7705 40.9375C58.5066 44.2014 54.583 45.8334 49.9997 45.8334ZM49.9997 37.5C52.2913 37.5 54.2531 36.6841 55.8851 35.0521C57.517 33.4202 58.333 31.4584 58.333 29.1667C58.333 26.875 57.517 24.9132 55.8851 23.2813C54.2531 21.6493 52.2913 20.8334 49.9997 20.8334C47.708 20.8334 45.7462 21.6493 44.1143 23.2813C42.4823 24.9132 41.6663 26.875 41.6663 29.1667C41.6663 31.4584 42.4823 33.4202 44.1143 35.0521C45.7462 36.6841 47.708 37.5 49.9997 37.5Z" fill="url(#paint0_linear_231_1444)"/>
</g>
</g>
<defs>
<linearGradient id="paint0_linear_231_1444" x1="8.07265" y1="11.7845" x2="100.36" y2="34.4028" gradientUnits="userSpaceOnUse">
<stop stop-color="#FFCE00"/>
<stop offset="1" stop-color="#6715E8"/>
</linearGradient>
</defs>
</svg>
