<svg width="27" height="26" viewBox="0 0 27 26" fill="currentColor" xmlns="http://www.w3.org/2000/svg">
<g id="&#240;&#159;&#166;&#134; icon &#34;youtube&#34;">
<path id="Vector" d="M1.99339 0H4.31561L5.82776 5.2385H5.98977L7.44791 0H9.77013L7.06987 7.66873V13.0692H4.74765V7.88475L1.99339 0ZM9.93215 5.61654C9.93215 4.86046 10.2202 4.26641 10.7962 3.83437C11.3363 3.40232 12.0744 3.1863 13.0104 3.1863C13.9105 3.1863 14.6126 3.42033 15.1166 3.88837C15.6567 4.39242 15.9267 4.98648 15.9267 5.67054V10.693C15.9267 11.5211 15.6747 12.1512 15.1706 12.5832C14.5946 13.0872 13.8565 13.3393 12.9564 13.3393C12.0564 13.3393 11.3183 13.0872 10.7422 12.5832C10.2022 12.1152 9.93215 11.4671 9.93215 10.639V5.61654ZM12.0924 10.801C12.0924 11.0891 12.1644 11.3051 12.3084 11.4491C12.3804 11.5211 12.4614 11.5751 12.5514 11.6111C12.6414 11.6471 12.7764 11.6651 12.9564 11.6651C13.2085 11.6651 13.4245 11.5751 13.6045 11.3951C13.7485 11.2871 13.8205 11.0891 13.8205 10.801V5.56253C13.8205 5.34651 13.7485 5.18449 13.6045 5.07648C13.4605 4.93247 13.2445 4.86046 12.9564 4.86046C12.6684 4.86046 12.4524 4.93247 12.3084 5.07648C12.1644 5.18449 12.0924 5.34651 12.0924 5.56253V10.801ZM23.5414 3.40232V13.0692H21.4352V11.9891C21.1112 12.3852 20.7152 12.6912 20.2471 12.9072C19.8511 13.1233 19.4551 13.2313 19.059 13.2313C18.627 13.2313 18.2669 13.0872 17.9789 12.7992C17.7269 12.4392 17.6009 12.0071 17.6009 11.5031V3.40232H19.7071V10.801C19.7071 11.0891 19.7431 11.2511 19.8151 11.2871C19.9231 11.3951 20.0671 11.4491 20.2471 11.4491C20.3551 11.4491 20.5532 11.3951 20.8412 11.2871C21.1292 11.0711 21.3272 10.891 21.4352 10.747V3.40232H23.5414ZM7.01587 13.3393H0.697266V15.0134H2.80347V25.1664H4.85566V15.0134H7.01587V13.3393ZM11.2283 23.0602C11.0843 23.2762 10.8862 23.4382 10.6342 23.5462C10.4542 23.6543 10.2922 23.7083 10.1482 23.7083C10.0402 23.7083 9.91415 23.6723 9.77013 23.6003C9.69812 23.4562 9.66212 23.2942 9.66212 23.1142V16.4176H7.82595V23.7623C7.82595 24.2663 7.93396 24.6444 8.14998 24.8964C8.366 25.1844 8.69003 25.3284 9.12207 25.3284C9.4821 25.3284 9.82414 25.2204 10.1482 25.0044C10.5442 24.8244 10.9042 24.5543 11.2283 24.1943V25.1664H13.0644V16.4176H11.2283V23.0602ZM19.275 16.8496C18.915 16.4896 18.465 16.3096 17.9249 16.3096C17.6369 16.3096 17.3489 16.3816 17.0608 16.5256C16.8808 16.5976 16.6288 16.7956 16.3048 17.1196V13.3393H14.4686V25.1664H16.3048V24.5183C16.4128 24.6624 16.5298 24.7794 16.6558 24.8694C16.7818 24.9594 16.9168 25.0404 17.0608 25.1124C17.3849 25.2204 17.7089 25.2744 18.0329 25.2744C18.573 25.2744 18.987 25.1124 19.275 24.7884C19.5631 24.5003 19.7071 24.0323 19.7071 23.3842V18.5238C19.7071 17.8037 19.5631 17.2456 19.275 16.8496ZM17.8169 23.1142C17.8169 23.4022 17.7629 23.6003 17.6549 23.7083C17.5469 23.8523 17.3849 23.9243 17.1688 23.9243C17.0968 23.9243 16.9528 23.8883 16.7368 23.8163C16.6288 23.7803 16.4848 23.6723 16.3048 23.4922V18.0377C16.4128 17.9297 16.5388 17.8397 16.6828 17.7677C16.7548 17.7317 16.8808 17.7137 17.0608 17.7137C17.3129 17.7137 17.5109 17.7857 17.6549 17.9297C17.7629 18.1097 17.8169 18.3438 17.8169 18.6318V23.1142ZM26.0797 21.008V18.7938C26.0797 18.0017 25.8637 17.3537 25.4316 16.8496C24.9276 16.4176 24.2795 16.2015 23.4874 16.2015C22.6234 16.2015 21.9573 16.4356 21.4893 16.9036C20.9492 17.4077 20.6792 18.0377 20.6792 18.7938V22.6822C20.6792 23.4742 20.9132 24.1403 21.3812 24.6804C21.8853 25.1844 22.5333 25.4364 23.3254 25.4364C24.2255 25.4364 24.9096 25.2024 25.3776 24.7344C25.8457 24.3023 26.0797 23.6183 26.0797 22.6822V22.2501H24.1895V22.6822C24.1895 23.1862 24.1355 23.5102 24.0275 23.6543C23.8835 23.7983 23.6675 23.8703 23.3794 23.8703C23.0914 23.8703 22.8754 23.7803 22.7314 23.6003C22.6234 23.4562 22.5694 23.1502 22.5694 22.6822V21.008H26.0797ZM22.5694 18.7398C22.5694 18.3798 22.6414 18.1277 22.7854 17.9837C22.8934 17.8037 23.0914 17.7137 23.3794 17.7137C23.6315 17.7137 23.8475 17.8037 24.0275 17.9837C24.1355 18.1637 24.1895 18.4158 24.1895 18.7398V19.6579H22.5694V18.7398Z" />
</g>
</svg>
