<svg width="100" height="100" viewBox="0 0 100 100" fill="none" xmlns="http://www.w3.org/2000/svg">
<g id="Icon / zoom_in_map">
<mask id="mask0_231_1574" style="mask-type:alpha" maskUnits="userSpaceOnUse" x="0" y="0" width="100" height="100">
<rect id="Bounding box" width="100" height="100" fill="#D9D9D9"/>
</mask>
<g mask="url(#mask0_231_1574)">
<path id="zoom_in_map" d="M29.1667 76.6668L19.1667 86.6668C18.4028 87.4307 17.4306 87.8126 16.25 87.8126C15.0694 87.8126 14.0972 87.4307 13.3333 86.6668C12.5694 85.9029 12.1875 84.9307 12.1875 83.7501C12.1875 82.5696 12.5694 81.5974 13.3333 80.8335L23.3333 70.8335H16.6667C15.4861 70.8335 14.4965 70.4342 13.6979 69.6355C12.8993 68.8369 12.5 67.8473 12.5 66.6668C12.5 65.4862 12.8993 64.4967 13.6979 63.698C14.4965 62.8994 15.4861 62.5001 16.6667 62.5001H33.3333C34.5139 62.5001 35.5035 62.8994 36.3021 63.698C37.1007 64.4967 37.5 65.4862 37.5 66.6668V83.3335C37.5 84.514 37.1007 85.5036 36.3021 86.3022C35.5035 87.1008 34.5139 87.5001 33.3333 87.5001C32.1528 87.5001 31.1632 87.1008 30.3646 86.3022C29.566 85.5036 29.1667 84.514 29.1667 83.3335V76.6668ZM70.8333 76.6668V83.3335C70.8333 84.514 70.434 85.5036 69.6354 86.3022C68.8368 87.1008 67.8472 87.5001 66.6667 87.5001C65.4861 87.5001 64.4965 87.1008 63.6979 86.3022C62.8993 85.5036 62.5 84.514 62.5 83.3335V66.6668C62.5 65.4862 62.8993 64.4967 63.6979 63.698C64.4965 62.8994 65.4861 62.5001 66.6667 62.5001H83.3333C84.5139 62.5001 85.5035 62.8994 86.3021 63.698C87.1007 64.4967 87.5 65.4862 87.5 66.6668C87.5 67.8473 87.1007 68.8369 86.3021 69.6355C85.5035 70.4342 84.5139 70.8335 83.3333 70.8335H76.6667L86.6667 80.8335C87.4306 81.5974 87.8125 82.5696 87.8125 83.7501C87.8125 84.9307 87.4306 85.9029 86.6667 86.6668C85.9028 87.4307 84.9306 87.8126 83.75 87.8126C82.5695 87.8126 81.5972 87.4307 80.8333 86.6668L70.8333 76.6668ZM23.3333 29.1668L13.3333 19.1668C12.5694 18.4029 12.1875 17.4307 12.1875 16.2501C12.1875 15.0696 12.5694 14.0973 13.3333 13.3335C14.0972 12.5696 15.0694 12.1876 16.25 12.1876C17.4306 12.1876 18.4028 12.5696 19.1667 13.3335L29.1667 23.3335V16.6668C29.1667 15.4862 29.566 14.4966 30.3646 13.698C31.1632 12.8994 32.1528 12.5001 33.3333 12.5001C34.5139 12.5001 35.5035 12.8994 36.3021 13.698C37.1007 14.4966 37.5 15.4862 37.5 16.6668V33.3335C37.5 34.514 37.1007 35.5036 36.3021 36.3022C35.5035 37.1008 34.5139 37.5001 33.3333 37.5001H16.6667C15.4861 37.5001 14.4965 37.1008 13.6979 36.3022C12.8993 35.5036 12.5 34.514 12.5 33.3335C12.5 32.1529 12.8993 31.1633 13.6979 30.3647C14.4965 29.5661 15.4861 29.1668 16.6667 29.1668H23.3333ZM76.6667 29.1668H83.3333C84.5139 29.1668 85.5035 29.5661 86.3021 30.3647C87.1007 31.1633 87.5 32.1529 87.5 33.3335C87.5 34.514 87.1007 35.5036 86.3021 36.3022C85.5035 37.1008 84.5139 37.5001 83.3333 37.5001H66.6667C65.4861 37.5001 64.4965 37.1008 63.6979 36.3022C62.8993 35.5036 62.5 34.514 62.5 33.3335V16.6668C62.5 15.4862 62.8993 14.4966 63.6979 13.698C64.4965 12.8994 65.4861 12.5001 66.6667 12.5001C67.8472 12.5001 68.8368 12.8994 69.6354 13.698C70.434 14.4966 70.8333 15.4862 70.8333 16.6668V23.3335L80.8333 13.3335C81.5972 12.5696 82.5695 12.1876 83.75 12.1876C84.9306 12.1876 85.9028 12.5696 86.6667 13.3335C87.4306 14.0973 87.8125 15.0696 87.8125 16.2501C87.8125 17.4307 87.4306 18.4029 86.6667 19.1668L76.6667 29.1668Z" fill="url(#paint0_linear_231_1574)"/>
</g>
</g>
<defs>
<linearGradient id="paint0_linear_231_1574" x1="11.9512" y1="11.4661" x2="96.6132" y2="30.1407" gradientUnits="userSpaceOnUse">
<stop stop-color="#FFCE00"/>
<stop offset="1" stop-color="#6715E8"/>
</linearGradient>
</defs>
</svg>
