<svg width="100" height="100" viewBox="0 0 100 100" fill="none" xmlns="http://www.w3.org/2000/svg">
<g id="Icon / zoom_out_map">
<mask id="mask0_231_1575" style="mask-type:alpha" maskUnits="userSpaceOnUse" x="0" y="0" width="100" height="100">
<rect id="Bounding box" width="100" height="100" fill="#D9D9D9"/>
</mask>
<g mask="url(#mask0_231_1575)">
<path id="zoom_out_map" d="M26.6667 79.1666H33.3333C34.5139 79.1666 35.5035 79.5659 36.3021 80.3645C37.1007 81.1631 37.5 82.1527 37.5 83.3333C37.5 84.5138 37.1007 85.5034 36.3021 86.302C35.5035 87.1006 34.5139 87.4999 33.3333 87.4999H16.6667C15.4861 87.4999 14.4965 87.1006 13.6979 86.302C12.8993 85.5034 12.5 84.5138 12.5 83.3333V66.6666C12.5 65.4861 12.8993 64.4965 13.6979 63.6979C14.4965 62.8993 15.4861 62.4999 16.6667 62.4999C17.8472 62.4999 18.8368 62.8993 19.6354 63.6979C20.434 64.4965 20.8333 65.4861 20.8333 66.6666V73.3333L30.8333 63.3333C31.5972 62.5694 32.5694 62.1874 33.75 62.1874C34.9306 62.1874 35.9028 62.5694 36.6667 63.3333C37.4306 64.0972 37.8125 65.0694 37.8125 66.2499C37.8125 67.4305 37.4306 68.4027 36.6667 69.1666L26.6667 79.1666ZM73.3333 79.1666L63.3333 69.1666C62.5694 68.4027 62.1875 67.4305 62.1875 66.2499C62.1875 65.0694 62.5694 64.0972 63.3333 63.3333C64.0972 62.5694 65.0695 62.1874 66.25 62.1874C67.4306 62.1874 68.4028 62.5694 69.1667 63.3333L79.1667 73.3333V66.6666C79.1667 65.4861 79.566 64.4965 80.3646 63.6979C81.1632 62.8993 82.1528 62.4999 83.3333 62.4999C84.5139 62.4999 85.5035 62.8993 86.3021 63.6979C87.1007 64.4965 87.5 65.4861 87.5 66.6666V83.3333C87.5 84.5138 87.1007 85.5034 86.3021 86.302C85.5035 87.1006 84.5139 87.4999 83.3333 87.4999H66.6667C65.4861 87.4999 64.4965 87.1006 63.6979 86.302C62.8993 85.5034 62.5 84.5138 62.5 83.3333C62.5 82.1527 62.8993 81.1631 63.6979 80.3645C64.4965 79.5659 65.4861 79.1666 66.6667 79.1666H73.3333ZM20.8333 26.6666V33.3333C20.8333 34.5138 20.434 35.5034 19.6354 36.302C18.8368 37.1006 17.8472 37.4999 16.6667 37.4999C15.4861 37.4999 14.4965 37.1006 13.6979 36.302C12.8993 35.5034 12.5 34.5138 12.5 33.3333V16.6666C12.5 15.4861 12.8993 14.4965 13.6979 13.6979C14.4965 12.8992 15.4861 12.4999 16.6667 12.4999H33.3333C34.5139 12.4999 35.5035 12.8992 36.3021 13.6979C37.1007 14.4965 37.5 15.4861 37.5 16.6666C37.5 17.8472 37.1007 18.8367 36.3021 19.6354C35.5035 20.434 34.5139 20.8333 33.3333 20.8333H26.6667L36.6667 30.8333C37.4306 31.5972 37.8125 32.5694 37.8125 33.7499C37.8125 34.9305 37.4306 35.9027 36.6667 36.6666C35.9028 37.4305 34.9306 37.8124 33.75 37.8124C32.5694 37.8124 31.5972 37.4305 30.8333 36.6666L20.8333 26.6666ZM79.1667 26.6666L69.1667 36.6666C68.4028 37.4305 67.4306 37.8124 66.25 37.8124C65.0695 37.8124 64.0972 37.4305 63.3333 36.6666C62.5694 35.9027 62.1875 34.9305 62.1875 33.7499C62.1875 32.5694 62.5694 31.5972 63.3333 30.8333L73.3333 20.8333H66.6667C65.4861 20.8333 64.4965 20.434 63.6979 19.6354C62.8993 18.8367 62.5 17.8472 62.5 16.6666C62.5 15.4861 62.8993 14.4965 63.6979 13.6979C64.4965 12.8992 65.4861 12.4999 66.6667 12.4999H83.3333C84.5139 12.4999 85.5035 12.8992 86.3021 13.6979C87.1007 14.4965 87.5 15.4861 87.5 16.6666V33.3333C87.5 34.5138 87.1007 35.5034 86.3021 36.302C85.5035 37.1006 84.5139 37.4999 83.3333 37.4999C82.1528 37.4999 81.1632 37.1006 80.3646 36.302C79.566 35.5034 79.1667 34.5138 79.1667 33.3333V26.6666Z" fill="url(#paint0_linear_231_1575)"/>
</g>
</g>
<defs>
<linearGradient id="paint0_linear_231_1575" x1="12.2657" y1="11.7844" x2="96.228" y2="30.3046" gradientUnits="userSpaceOnUse">
<stop stop-color="#FFCE00"/>
<stop offset="1" stop-color="#6715E8"/>
</linearGradient>
</defs>
</svg>
