<?xml version="1.0" standalone="no"?>
<!DOCTYPE svg PUBLIC "-//W3C//DTD SVG 20010904//EN"
 "http://www.w3.org/TR/2001/REC-SVG-20010904/DTD/svg10.dtd">
<svg version="1.0" xmlns="http://www.w3.org/2000/svg"
 width="700.000000pt" height="700.000000pt" viewBox="0 0 700.000000 700.000000"
 preserveAspectRatio="xMidYMid meet">
<metadata>
Created by potrace 1.14, written by Peter Selinger 2001-2017
</metadata>
<g transform="translate(0.000000,700.000000) scale(0.100000,-0.100000)"
fill="#000000" stroke="none">
<path d="M1868 5126 c-1 -2 -51 -6 -109 -9 -205 -12 -410 -70 -602 -171 -74
-39 -204 -120 -217 -135 -3 -3 -23 -19 -45 -36 -115 -84 -299 -297 -386 -447
-75 -129 -159 -331 -175 -424 -3 -16 -9 -45 -14 -64 -5 -19 -11 -55 -15 -80
-3 -25 -8 -58 -11 -74 -8 -37 -7 -306 0 -364 3 -23 8 -61 11 -83 17 -137 70
-299 151 -464 248 -506 731 -843 1274 -892 141 -12 235 -7 422 22 181 29 411
127 678 290 399 244 563 298 781 260 158 -27 284 -84 569 -255 186 -112 355
-197 470 -237 387 -136 786 -112 1159 70 89 43 245 136 261 156 3 4 25 22 50
41 205 159 383 402 485 660 111 283 141 634 79 954 -56 294 -214 586 -439 811
-430 430 -1041 578 -1591 384 -71 -25 -279 -121 -324 -149 -335 -211 -569
-324 -715 -346 -225 -34 -389 19 -765 248 -187 114 -310 177 -433 224 -97 37
-211 70 -275 80 -20 3 -48 7 -62 10 -14 2 -61 7 -105 10 -44 3 -85 7 -92 9 -6
2 -13 2 -15 1z m154 -835 c77 -20 249 -93 279 -118 8 -7 19 -13 22 -13 4 0 48
-26 98 -57 50 -32 98 -62 108 -68 9 -5 68 -44 132 -86 63 -42 129 -84 145 -93
16 -9 45 -26 64 -38 379 -228 746 -253 1125 -78 99 46 248 135 474 285 257
169 409 243 581 280 93 20 266 14 350 -13 249 -80 447 -324 505 -622 14 -72
15 -281 1 -338 -22 -95 -39 -150 -65 -206 -131 -290 -386 -458 -667 -442 -228
13 -386 81 -769 332 -327 215 -431 270 -595 317 -164 48 -370 58 -505 27 -27
-6 -57 -13 -65 -15 -27 -6 -174 -62 -225 -86 -80 -37 -218 -118 -426 -251
-227 -145 -259 -164 -376 -222 -158 -79 -260 -105 -397 -104 -309 4 -568 201
-678 518 -45 131 -61 319 -38 452 48 277 213 507 435 608 127 58 336 71 487
31z"/>
</g>
</svg>
